<svg width="182" height="138" viewBox="0 0 182 138" fill="none" xmlns="http://www.w3.org/2000/svg">
<path d="M181.321 121.5H0.4375V121.59H181.321V121.5Z" fill="#E0E0E0"/>
<path d="M137.665 124.834H125.221V124.924H137.665V124.834Z" fill="#E0E0E0"/>
<path d="M152.308 124.578H145.305V124.669H152.308V124.578Z" fill="#E0E0E0"/>
<path d="M89.9171 124.791H80.627V124.881H89.9171V124.791Z" fill="#E0E0E0"/>
<path d="M96.6267 126.076H90.2812V126.167H96.6267V126.076Z" fill="#E0E0E0"/>
<path d="M52.7755 123.877H33.6055V123.967H52.7755V123.877Z" fill="#E0E0E0"/>
<path d="M86.1755 105.364H16.3218C15.7746 105.363 15.2501 105.145 14.8635 104.758C14.4769 104.371 14.2598 103.846 14.2598 103.299V5.10424C14.2645 4.56015 14.4838 4.03992 14.8699 3.65653C15.256 3.27314 15.7777 3.05757 16.3218 3.05664H86.1755C86.7234 3.05664 87.2488 3.27428 87.6362 3.66167C88.0236 4.04906 88.2412 4.57448 88.2412 5.12233V103.299C88.2412 103.847 88.0236 104.372 87.6362 104.759C87.2488 105.147 86.7234 105.364 86.1755 105.364ZM16.3218 3.12899C15.7986 3.12995 15.2971 3.33848 14.9275 3.70881C14.5578 4.07914 14.3502 4.581 14.3502 5.10424V103.299C14.3502 103.822 14.5578 104.324 14.9275 104.694C15.2971 105.065 15.7986 105.273 16.3218 105.274H86.1755C86.6991 105.273 87.2009 105.065 87.5712 104.694C87.9414 104.324 88.1498 103.822 88.1508 103.299V5.10424C88.1498 4.58067 87.9414 4.07881 87.5712 3.70859C87.2009 3.33836 86.6991 3.12995 86.1755 3.12899H16.3218Z" fill="#E0E0E0"/>
<path d="M164.431 105.364H94.5735C94.0259 105.363 93.5011 105.146 93.1139 104.758C92.7267 104.371 92.5088 103.846 92.5078 103.299V5.10424C92.5135 4.55982 92.7336 4.03959 93.1202 3.6563C93.5069 3.27302 94.0291 3.05756 94.5735 3.05664H164.431C164.974 3.05852 165.495 3.27451 165.88 3.6578C166.266 4.04108 166.484 4.56078 166.489 5.10424V103.299C166.489 103.845 166.273 104.37 165.887 104.757C165.501 105.144 164.977 105.363 164.431 105.364ZM94.5735 3.12899C94.0499 3.12995 93.5481 3.33836 93.1778 3.70859C92.8076 4.07881 92.5992 4.58067 92.5983 5.10424V103.299C92.5992 103.822 92.8076 104.324 93.1778 104.694C93.5481 105.065 94.0499 105.273 94.5735 105.274H164.431C164.954 105.273 165.456 105.065 165.826 104.694C166.197 104.324 166.405 103.822 166.406 103.299V5.10424C166.405 4.58067 166.197 4.07881 165.826 3.70859C165.456 3.33836 164.954 3.12995 164.431 3.12899H94.5735Z" fill="#E0E0E0"/>
<path d="M157.454 11.8359H102.936V58.7065H157.454V11.8359Z" fill="#E0E0E0"/>
<path d="M158.667 11.8359H104.148V58.7065H158.667V11.8359Z" fill="#F0F0F0"/>
<path d="M156.494 56.5086V14.0371L106.324 14.0371V56.5086H156.494Z" fill="#FAFAFA"/>
<path d="M140.459 56.5086V14.0371H137.181V56.5086H140.459Z" fill="#E0E0E0"/>
<path d="M123.219 56.5086V14.0371H119.941V56.5086H123.219Z" fill="#E0E0E0"/>
<path d="M141.613 57.8996V12.3965H138.336V57.8996H141.613Z" fill="#F0F0F0"/>
<path d="M124.367 57.9035V12.4004H121.09V57.9035H124.367Z" fill="#F0F0F0"/>
<path d="M156.494 56.5047V14.0332H155.579V56.5047H156.494Z" fill="#E0E0E0"/>
<path d="M64.5918 48.8517C64.5918 48.8517 57.957 37.4235 67.164 28.3105C67.164 28.3105 69.5661 29.877 69.5299 31.9825C69.4938 34.088 66.9542 34.6198 67.5004 36.378C68.0467 38.1362 70.438 39.8545 68.8679 41.3089C67.2978 42.7632 69.1211 44.051 69.0162 45.8309C68.9113 47.6108 64.5918 48.8517 64.5918 48.8517Z" fill="#E0E0E0"/>
<path d="M65.6352 50.7227C65.6352 50.7227 68.3268 37.7786 56.7213 32.041C56.7213 32.041 54.9342 34.284 55.636 36.2701C56.3378 38.2562 58.91 37.9595 58.9462 39.8009C58.9823 41.6423 57.2567 44.03 59.203 44.9127C61.1493 45.7954 59.8289 47.597 60.4909 49.2539C61.1529 50.9108 65.6352 50.7227 65.6352 50.7227Z" fill="#E6E6E6"/>
<path d="M59.7266 47.4336C59.7266 47.4336 59.8423 58.6086 64.3102 58.6086C68.778 58.6086 68.8901 47.4336 68.8901 47.4336H59.7266Z" fill="#F0F0F0"/>
<path d="M32.8848 54.4043C32.8848 54.4043 33.1344 58.608 42.6742 58.608C52.214 58.608 52.4672 54.4043 52.4672 54.4043H32.8848Z" fill="#E6E6E6"/>
<path d="M133.461 79.752H128.425C127.798 79.752 127.289 80.2605 127.289 80.8879V89.2158C127.289 89.8432 127.798 90.3517 128.425 90.3517H133.461C134.088 90.3517 134.597 89.8432 134.597 89.2158V80.8879C134.597 80.2605 134.088 79.752 133.461 79.752Z" fill="#F0F0F0"/>
<path d="M146.815 83.2188H143.425C143.004 83.2188 142.662 83.5605 142.662 83.9821V89.5895C142.662 90.0111 143.004 90.3528 143.425 90.3528H146.815C147.237 90.3528 147.579 90.0111 147.579 89.5895V83.9821C147.579 83.5605 147.237 83.2188 146.815 83.2188Z" fill="#E6E6E6"/>
<path d="M147.322 82.5273H142.919C142.777 82.5273 142.662 82.6423 142.662 82.7842V83.0736C142.662 83.2155 142.777 83.3305 142.919 83.3305H147.322C147.464 83.3305 147.579 83.2155 147.579 83.0736V82.7842C147.579 82.6423 147.464 82.5273 147.322 82.5273Z" fill="#F0F0F0"/>
<path d="M115.631 84.4551C115.631 84.4551 115.812 90.3519 122.718 90.3519C129.624 90.3519 129.809 84.4551 129.809 84.4551H115.631Z" fill="#E6E6E6"/>
<path d="M98.4548 76.666H108.906V74.6039H98.4548V76.666Z" fill="#E0E0E0"/>
<path d="M160.867 74.6074H108.906V76.6695H160.867V74.6074Z" fill="#F0F0F0"/>
<path d="M98.4548 92.4141H108.906V90.352H98.4548V92.4141Z" fill="#E0E0E0"/>
<path d="M160.867 90.3516H108.906V92.4136H160.867V90.3516Z" fill="#F0F0F0"/>
<path d="M102.221 76.666H100.293V121.496H102.221V76.666Z" fill="#E0E0E0"/>
<path d="M110.834 76.666H108.906V121.496H110.834V76.666Z" fill="#F0F0F0"/>
<path d="M154.18 76.666H152.252V121.496H154.18V76.666Z" fill="#E0E0E0"/>
<path d="M160.868 76.666H158.939V121.496H160.868V76.666Z" fill="#F0F0F0"/>
<path d="M32.8835 61.2324H23V118.786H32.8835V61.2324Z" fill="#E6E6E6"/>
<path d="M73.6377 118.783H24.9004V121.5H73.6377V118.783Z" fill="#E6E6E6"/>
<path d="M32.8844 118.783H75.5332V61.2296L32.8844 61.2296L32.8844 118.783Z" fill="#F0F0F0"/>
<path d="M36.7685 97.0371H71.6465V82.9788H36.7685V97.0371Z" fill="#E6E6E6"/>
<path d="M36.7685 113.656H71.6465V99.598H36.7685V113.656Z" fill="#E6E6E6"/>
<path d="M58.1246 84.5181H50.2924C50.0375 84.5171 49.7932 84.4154 49.613 84.2352C49.4327 84.0549 49.331 83.8107 49.3301 83.5558C49.3301 83.3002 49.4313 83.0551 49.6117 82.874C49.7921 82.693 50.0368 82.5908 50.2924 82.5898H58.1246C58.3802 82.5908 58.6249 82.693 58.8053 82.874C58.9857 83.0551 59.0869 83.3002 59.0869 83.5558C59.086 83.8107 58.9843 84.0549 58.804 84.2352C58.6238 84.4154 58.3796 84.5171 58.1246 84.5181Z" fill="#F0F0F0"/>
<path d="M36.7685 80.4121H71.6465V66.3538H36.7685V80.4121Z" fill="#E6E6E6"/>
<path d="M58.1246 67.8989H50.2924C50.0368 67.898 49.7921 67.7958 49.6117 67.6147C49.4313 67.4337 49.3301 67.1886 49.3301 66.933C49.331 66.6781 49.4327 66.4339 49.613 66.2536C49.7932 66.0733 50.0375 65.9717 50.2924 65.9707H58.1246C58.3796 65.9717 58.6238 66.0733 58.804 66.2536C58.9843 66.4339 59.086 66.6781 59.0869 66.933C59.0869 67.1886 58.9857 67.4337 58.8053 67.6147C58.6249 67.7958 58.3802 67.898 58.1246 67.8989Z" fill="#F0F0F0"/>
<path d="M58.1246 101.139H50.2924C50.0375 101.138 49.7932 101.037 49.613 100.856C49.4327 100.676 49.331 100.432 49.3301 100.177C49.3301 99.9213 49.4313 99.6762 49.6117 99.4951C49.7921 99.3141 50.0368 99.2119 50.2924 99.2109H58.1246C58.3802 99.2119 58.6249 99.3141 58.8053 99.4951C58.9857 99.6762 59.0869 99.9213 59.0869 100.177C59.086 100.432 58.9843 100.676 58.804 100.856C58.6238 101.037 58.3796 101.138 58.1246 101.139Z" fill="#F0F0F0"/>
<path d="M76.8504 58.6074H32.8848V61.2302H76.8504V58.6074Z" fill="#E6E6E6"/>
<path d="M21.6193 61.2285H32.8848V58.6057H21.6193V61.2285Z" fill="#E0E0E0"/>
<path d="M43.9022 14.0371H27.9121V31.5973H43.9022V14.0371Z" fill="#E6E6E6"/>
<path d="M45.6335 14.0371H29.1152V31.5973H45.6335V14.0371Z" fill="#F0F0F0"/>
<path d="M44.2461 30.2106V15.418H30.4953V30.2106H44.2461Z" fill="#FAFAFA"/>
<path d="M40.916 26.6263V19.0039H33.8326V26.6263H40.916Z" fill="#F0F0F0"/>
<path d="M60.7593 8.85156H48.6328V21.8788H60.7593V8.85156Z" fill="#E6E6E6"/>
<path d="M62.046 8.85156H49.793V21.8788H62.046V8.85156Z" fill="#F0F0F0"/>
<path d="M61.0176 20.8513V9.87891H50.8194V20.8513H61.0176Z" fill="#FAFAFA"/>
<path d="M55.9181 12.5898L53.1289 17.4231H58.7074L55.9181 12.5898Z" fill="#F0F0F0"/>
<path d="M90.8794 137.839C129.618 137.839 161.022 136.005 161.022 133.744C161.022 131.482 129.618 129.648 90.8794 129.648C52.1404 129.648 20.7363 131.482 20.7363 133.744C20.7363 136.005 52.1404 137.839 90.8794 137.839Z" fill="#F5F5F5"/>
<path d="M152.305 35.9121H116.816C114.943 35.9121 113.426 37.4298 113.426 39.3019V48.9538C113.426 50.8259 114.943 52.3436 116.816 52.3436H152.305C154.177 52.3436 155.695 50.8259 155.695 48.9538V39.3019C155.695 37.4298 154.177 35.9121 152.305 35.9121Z" fill="#407BFF"/>
<path d="M145.267 38.6836H117.544C117.217 38.6836 116.951 38.9492 116.951 39.2769V39.9281C116.951 40.2557 117.217 40.5214 117.544 40.5214H145.267C145.594 40.5214 145.86 40.2557 145.86 39.9281V39.2769C145.86 38.9492 145.594 38.6836 145.267 38.6836Z" fill="#407BFF"/>
<path d="M136.487 43.1113H117.544C117.217 43.1113 116.951 43.377 116.951 43.7046V44.3558C116.951 44.6835 117.217 44.9491 117.544 44.9491H136.487C136.814 44.9491 137.08 44.6835 137.08 44.3558V43.7046C137.08 43.377 136.814 43.1113 136.487 43.1113Z" fill="#407BFF"/>
<path d="M131.407 47.541H117.544C117.217 47.541 116.951 47.8066 116.951 48.1343V48.7855C116.951 49.1132 117.217 49.3788 117.544 49.3788H131.407C131.735 49.3788 132.001 49.1132 132.001 48.7855V48.1343C132.001 47.8066 131.735 47.541 131.407 47.541Z" fill="#407BFF"/>
<path d="M148.587 47.541H134.724C134.396 47.541 134.131 47.8066 134.131 48.1343V48.7855C134.131 49.1132 134.396 49.3788 134.724 49.3788H148.587C148.915 49.3788 149.18 49.1132 149.18 48.7855V48.1343C149.18 47.8066 148.915 47.541 148.587 47.541Z" fill="#407BFF"/>
<g opacity="0.5">
<path d="M145.265 38.6836H117.543C117.215 38.6836 116.949 38.9492 116.949 39.2769V39.9281C116.949 40.2557 117.215 40.5214 117.543 40.5214H145.265C145.592 40.5214 145.858 40.2557 145.858 39.9281V39.2769C145.858 38.9492 145.592 38.6836 145.265 38.6836Z" fill="white"/>
<path d="M136.485 43.1133H117.543C117.215 43.1133 116.949 43.3789 116.949 43.7066V44.3578C116.949 44.6854 117.215 44.9511 117.543 44.9511H136.485C136.812 44.9511 137.078 44.6854 137.078 44.3578V43.7066C137.078 43.3789 136.812 43.1133 136.485 43.1133Z" fill="white"/>
<path d="M131.405 47.5391H117.543C117.215 47.5391 116.949 47.8047 116.949 48.1324V48.7835C116.949 49.1112 117.215 49.3768 117.543 49.3768H131.405C131.733 49.3768 131.999 49.1112 131.999 48.7835V48.1324C131.999 47.8047 131.733 47.5391 131.405 47.5391Z" fill="white"/>
<path d="M148.585 47.5391H134.722C134.395 47.5391 134.129 47.8047 134.129 48.1324V48.7835C134.129 49.1112 134.395 49.3768 134.722 49.3768H148.585C148.913 49.3768 149.178 49.1112 149.178 48.7835V48.1324C149.178 47.8047 148.913 47.5391 148.585 47.5391Z" fill="white"/>
</g>
<path d="M123.877 32.082H83.5937C80.8485 32.082 78.623 34.3075 78.623 37.0527V51.2051C78.623 53.9503 80.8485 56.1757 83.5937 56.1757H123.877C126.622 56.1757 128.847 53.9503 128.847 51.2051V37.0527C128.847 34.3075 126.622 32.082 123.877 32.082Z" fill="#407BFF"/>
<path d="M125.302 36.1445H84.6609C84.1794 36.1445 83.7891 36.5349 83.7891 37.0164V37.9678C83.7891 38.4494 84.1794 38.8397 84.6609 38.8397H125.302C125.783 38.8397 126.174 38.4494 126.174 37.9678V37.0164C126.174 36.5349 125.783 36.1445 125.302 36.1445Z" fill="#407BFF"/>
<path d="M112.427 42.6387H84.6609C84.1794 42.6387 83.7891 43.029 83.7891 43.5105V44.462C83.7891 44.9435 84.1794 45.3338 84.6609 45.3338H112.427C112.908 45.3338 113.298 44.9435 113.298 44.462V43.5105C113.298 43.029 112.908 42.6387 112.427 42.6387Z" fill="#407BFF"/>
<path d="M104.981 49.1309H84.6609C84.1794 49.1309 83.7891 49.5212 83.7891 50.0027V50.9542C83.7891 51.4357 84.1794 51.826 84.6609 51.826H104.981C105.463 51.826 105.853 51.4357 105.853 50.9542V50.0027C105.853 49.5212 105.463 49.1309 104.981 49.1309Z" fill="#407BFF"/>
<path d="M126.783 49.1309H109.852C109.371 49.1309 108.98 49.5212 108.98 50.0027V50.9542C108.98 51.4357 109.371 51.826 109.852 51.826H126.783C127.265 51.826 127.655 51.4357 127.655 50.9542V50.0027C127.655 49.5212 127.265 49.1309 126.783 49.1309Z" fill="#407BFF"/>
<g opacity="0.5">
<path d="M125.302 36.1426H84.6609C84.1794 36.1426 83.7891 36.5329 83.7891 37.0144V37.9659C83.7891 38.4474 84.1794 38.8377 84.6609 38.8377H125.302C125.783 38.8377 126.174 38.4474 126.174 37.9659V37.0144C126.174 36.5329 125.783 36.1426 125.302 36.1426Z" fill="white"/>
<path d="M112.427 42.6367H84.6609C84.1794 42.6367 83.7891 43.0271 83.7891 43.5086V44.46C83.7891 44.9415 84.1794 45.3319 84.6609 45.3319H112.427C112.908 45.3319 113.298 44.9415 113.298 44.46V43.5086C113.298 43.0271 112.908 42.6367 112.427 42.6367Z" fill="white"/>
<path d="M104.981 49.1289H84.6609C84.1794 49.1289 83.7891 49.5193 83.7891 50.0008V50.9522C83.7891 51.4337 84.1794 51.8241 84.6609 51.8241H104.981C105.463 51.8241 105.853 51.4337 105.853 50.9522V50.0008C105.853 49.5193 105.463 49.1289 104.981 49.1289Z" fill="white"/>
<path d="M126.783 49.1289H109.852C109.371 49.1289 108.98 49.5193 108.98 50.0008V50.9522C108.98 51.4337 109.371 51.8241 109.852 51.8241H126.783C127.265 51.8241 127.655 51.4337 127.655 50.9522V50.0008C127.655 49.5193 127.265 49.1289 126.783 49.1289Z" fill="white"/>
</g>
<path d="M98.8335 60.541H79.4319C78.1492 60.541 77.1094 61.5809 77.1094 62.8636V91.928C77.1094 93.2107 78.1492 94.2505 79.4319 94.2505H98.8335C100.116 94.2505 101.156 93.2107 101.156 91.928V62.8636C101.156 61.5809 100.116 60.541 98.8335 60.541Z" fill="#407BFF"/>
<path opacity="0.4" d="M98.8335 60.541H79.4319C78.1492 60.541 77.1094 61.5809 77.1094 62.8636V91.928C77.1094 93.2107 78.1492 94.2505 79.4319 94.2505H98.8335C100.116 94.2505 101.156 93.2107 101.156 91.928V62.8636C101.156 61.5809 100.116 60.541 98.8335 60.541Z" fill="black"/>
<path d="M97.9448 64.0566H80.3195C80.0837 64.0566 79.8926 64.2478 79.8926 64.4835V65.1239C79.8926 65.3596 80.0837 65.5507 80.3195 65.5507H97.9448C98.1805 65.5507 98.3717 65.3596 98.3717 65.1239V64.4835C98.3717 64.2478 98.1805 64.0566 97.9448 64.0566Z" fill="#FAFAFA"/>
<path d="M92.3338 67.6543H80.3195C80.0837 67.6543 79.8926 67.8454 79.8926 68.0812V68.7215C79.8926 68.9573 80.0837 69.1484 80.3195 69.1484H92.3338C92.5695 69.1484 92.7606 68.9573 92.7606 68.7215V68.0812C92.7606 67.8454 92.5695 67.6543 92.3338 67.6543Z" fill="#FAFAFA"/>
<path d="M97.9448 71.2539H80.3195C80.0837 71.2539 79.8926 71.445 79.8926 71.6808V72.3211C79.8926 72.5569 80.0837 72.748 80.3195 72.748H97.9448C98.1805 72.748 98.3717 72.5569 98.3717 72.3211V71.6808C98.3717 71.445 98.1805 71.2539 97.9448 71.2539Z" fill="#FAFAFA"/>
<path d="M86.8711 74.8496H80.3195C80.0837 74.8496 79.8926 75.0407 79.8926 75.2765V75.9168C79.8926 76.1526 80.0837 76.3437 80.3195 76.3437H86.8711C87.1068 76.3437 87.298 76.1526 87.298 75.9168V75.2765C87.298 75.0407 87.1068 74.8496 86.8711 74.8496Z" fill="#FAFAFA"/>
<path d="M96.0371 74.8496H89.4855C89.2497 74.8496 89.0586 75.0407 89.0586 75.2765V75.9168C89.0586 76.1526 89.2497 76.3437 89.4855 76.3437H96.0371C96.2729 76.3437 96.464 76.1526 96.464 75.9168V75.2765C96.464 75.0407 96.2729 74.8496 96.0371 74.8496Z" fill="#FAFAFA"/>
<path d="M97.9448 78.4492H80.3195C80.0837 78.4492 79.8926 78.6403 79.8926 78.8761V79.5164C79.8926 79.7522 80.0837 79.9433 80.3195 79.9433H97.9448C98.1805 79.9433 98.3717 79.7522 98.3717 79.5164V78.8761C98.3717 78.6403 98.1805 78.4492 97.9448 78.4492Z" fill="#FAFAFA"/>
<path d="M97.9448 82.0449H80.3195C80.0837 82.0449 79.8926 82.236 79.8926 82.4718V83.1121C79.8926 83.3479 80.0837 83.539 80.3195 83.539H97.9448C98.1805 83.539 98.3717 83.3479 98.3717 83.1121V82.4718C98.3717 82.236 98.1805 82.0449 97.9448 82.0449Z" fill="#FAFAFA"/>
<path d="M94.8191 85.6445H80.3195C80.0837 85.6445 79.8926 85.8357 79.8926 86.0714V86.7117C79.8926 86.9475 80.0837 87.1386 80.3195 87.1386H94.8191C95.0549 87.1386 95.246 86.9475 95.246 86.7117V86.0714C95.246 85.8357 95.0549 85.6445 94.8191 85.6445Z" fill="#FAFAFA"/>
<path d="M87.0845 89.2402H80.3195C80.0837 89.2402 79.8926 89.4314 79.8926 89.6671V90.3074C79.8926 90.5432 80.0837 90.7343 80.3195 90.7343H87.0845C87.3203 90.7343 87.5114 90.5432 87.5114 90.3074V89.6671C87.5114 89.4314 87.3203 89.2402 87.0845 89.2402Z" fill="#FAFAFA"/>
<path d="M104.084 60.3359H77.1719L89.0704 69.8034L107.314 76.677V63.5593C107.312 62.7037 106.971 61.8839 106.366 61.2796C105.76 60.6753 104.939 60.3359 104.084 60.3359Z" fill="#407BFF"/>
<path opacity="0.4" d="M104.084 60.3359H77.1719L89.0704 69.8034L107.314 76.677V63.5593C107.312 62.7037 106.971 61.8839 106.366 61.2796C105.76 60.6753 104.939 60.3359 104.084 60.3359Z" fill="black"/>
<path d="M102.906 65.2109H83.2151C82.9194 65.2109 82.6797 65.4506 82.6797 65.7464V66.7448C82.6797 67.0405 82.9194 67.2802 83.2151 67.2802H102.906C103.202 67.2802 103.442 67.0405 103.442 66.7448V65.7464C103.442 65.4506 103.202 65.2109 102.906 65.2109Z" fill="#FAFAFA"/>
<path d="M150.623 85.9623V67.0346C150.623 65.5841 149.447 64.4082 147.997 64.4082H115.13C113.68 64.4082 112.504 65.5841 112.504 67.0346V85.9623C112.504 87.4128 113.68 88.5887 115.13 88.5887H147.997C149.447 88.5887 150.623 87.4128 150.623 85.9623Z" fill="#407BFF"/>
<path d="M156.625 79.9662V61.0385C156.625 59.588 155.449 58.4121 153.999 58.4121H121.132C119.681 58.4121 118.506 59.588 118.506 61.0385V79.9662C118.506 81.4167 119.681 82.5926 121.132 82.5926H153.999C155.449 82.5926 156.625 81.4167 156.625 79.9662Z" fill="#407BFF"/>
<path opacity="0.5" d="M156.625 79.9662V61.0385C156.625 59.588 155.449 58.4121 153.999 58.4121H121.132C119.681 58.4121 118.506 59.588 118.506 61.0385V79.9662C118.506 81.4167 119.681 82.5926 121.132 82.5926H153.999C155.449 82.5926 156.625 81.4167 156.625 79.9662Z" fill="white"/>
<path d="M153.289 73.4792V61.8267C153.289 61.1814 152.766 60.6582 152.121 60.6582H141.38C140.734 60.6582 140.211 61.1814 140.211 61.8267V73.4792C140.211 74.1246 140.734 74.6477 141.38 74.6477H152.121C152.766 74.6477 153.289 74.1246 153.289 73.4792Z" fill="#407BFF"/>
<path opacity="0.7" d="M153.289 73.4792V61.8267C153.289 61.1814 152.766 60.6582 152.121 60.6582H141.38C140.734 60.6582 140.211 61.1814 140.211 61.8267V73.4792C140.211 74.1246 140.734 74.6477 141.38 74.6477H152.121C152.766 74.6477 153.289 74.1246 153.289 73.4792Z" fill="white"/>
<path d="M138.164 79.1147V70.1862C138.164 69.6907 137.762 69.2891 137.267 69.2891H129.037C128.541 69.2891 128.139 69.6907 128.139 70.1862V79.1147C128.139 79.6102 128.541 80.0118 129.037 80.0118H137.267C137.762 80.0118 138.164 79.6102 138.164 79.1147Z" fill="#407BFF"/>
<path opacity="0.3" d="M138.164 79.1147V70.1862C138.164 69.6907 137.762 69.2891 137.267 69.2891H129.037C128.541 69.2891 128.139 69.6907 128.139 70.1862V79.1147C128.139 79.6102 128.541 80.0118 129.037 80.0118H137.267C137.762 80.0118 138.164 79.6102 138.164 79.1147Z" fill="white"/>
<path d="M133.15 22.5059V17.6835C133.15 16.209 131.955 15.0137 130.481 15.0137L42.1623 15.0137C40.6878 15.0137 39.4924 16.209 39.4924 17.6835V22.5059C39.4924 23.9804 40.6878 25.1757 42.1623 25.1757L130.481 25.1757C131.955 25.1757 133.15 23.9804 133.15 22.5059Z" fill="#407BFF"/>
<path opacity="0.5" d="M133.15 22.5059V17.6835C133.15 16.209 131.955 15.0137 130.481 15.0137L42.1623 15.0137C40.6878 15.0137 39.4924 16.209 39.4924 17.6835V22.5059C39.4924 23.9804 40.6878 25.1757 42.1623 25.1757L130.481 25.1757C131.955 25.1757 133.15 23.9804 133.15 22.5059Z" fill="white"/>
<path d="M116.439 26.8752V23.377H91.0253V26.8752H116.439Z" fill="#407BFF"/>
<path opacity="0.5" d="M116.439 26.8752V23.377H91.0253V26.8752H116.439Z" fill="white"/>
<path d="M142.262 7.4922V2.66985C142.262 1.19533 141.066 0 139.592 0L51.2736 0C49.7991 0 48.6038 1.19533 48.6038 2.66985V7.4922C48.6038 8.96672 49.7991 10.1621 51.2736 10.1621L139.592 10.1621C141.066 10.1621 142.262 8.96672 142.262 7.4922Z" fill="#407BFF"/>
<path d="M47.5979 53.4356C47.2796 54.1591 46.9287 54.9405 46.6211 55.7038C46.3136 56.4672 45.9953 57.2522 45.7167 58.0336C45.1452 59.557 44.6869 61.1204 44.3456 62.7113L44.2407 63.2901L44.2045 63.5072C44.2045 63.5687 44.2045 63.6483 44.1828 63.7206C44.1691 64.0729 44.1763 64.4256 44.2045 64.777C44.2733 65.5403 44.3963 66.3579 44.5663 67.1755C44.8702 68.8143 45.2573 70.5037 45.6516 72.1679L43.7957 72.8914C42.9306 71.3144 42.1939 69.6703 41.5926 67.975C41.2758 67.0927 41.0196 66.1898 40.8256 65.2726C40.717 64.7651 40.6492 64.2498 40.623 63.7315C40.623 63.5868 40.623 63.4493 40.623 63.2937C40.623 63.1382 40.623 62.9645 40.6484 62.8632L40.7207 62.1397C40.8288 61.2079 40.9943 60.2836 41.2163 59.3722C41.4189 58.4678 41.6794 57.5887 41.9399 56.7204C42.2004 55.8522 42.5259 54.9984 42.8696 54.1591C43.0397 53.7394 43.2314 53.3234 43.3978 52.9074C43.5642 52.4914 43.7596 52.0934 43.9911 51.6484L47.5979 53.4356Z" fill="#E4897B"/>
<path d="M45.553 71.6797L46.9639 73.058L43.8853 74.5051C43.8853 74.5051 43.1401 73.1991 43.6574 72.0197L45.553 71.6797Z" fill="#E4897B"/>
<path d="M48.1052 75.1118L45.5041 76.1754L43.8906 74.4931L46.9656 73.0605L48.1052 75.1118Z" fill="#E4897B"/>
<path opacity="0.4" d="M100.795 73.6272C95.6766 73.0525 90.8432 70.973 86.9062 67.6517C82.9691 64.3305 80.1052 59.9165 78.6764 54.9678C77.2477 50.0191 77.3182 44.7578 78.8791 39.8492C80.44 34.9406 83.4212 30.6049 87.4459 27.3904C91.4705 24.1758 96.3579 22.2267 101.49 21.7894C106.622 21.3521 111.769 22.4462 116.28 24.9335C120.79 27.4208 124.462 31.1895 126.831 35.7633C129.2 40.3371 130.159 45.5105 129.588 50.6296C129.209 54.0308 128.163 57.3238 126.511 60.3205C124.858 63.3173 122.631 65.959 119.957 68.0948C117.283 70.2305 114.215 71.8184 110.927 72.7677C107.639 73.717 104.196 74.009 100.795 73.6272Z" fill="#FAFAFA"/>
<path opacity="0.4" d="M119.745 27.2211L80.1316 58.8721C79.9652 58.5104 79.8024 58.1486 79.6504 57.7868C78.6573 55.4246 78.0221 52.9275 77.7656 50.3778L111.982 23.0391C114.791 23.9761 117.417 25.3909 119.745 27.2211Z" fill="#FAFAFA"/>
<path opacity="0.4" d="M128.889 41.0854L91.6446 70.8408C88.1064 68.9963 85.0402 66.3622 82.6836 63.1424L123.35 30.6484C125.971 33.6572 127.866 37.2281 128.889 41.0854Z" fill="#FAFAFA"/>
<path d="M74.3788 37.7871L74.0352 37.6714C74.6304 35.915 75.3785 34.2142 76.2709 32.5885L76.5856 32.7622C75.705 34.3697 74.9666 36.051 74.3788 37.7871ZM78.7707 29.3435L78.4777 29.13C81.4507 25.11 85.3417 21.859 89.8263 19.6481L89.9891 19.9737C85.5554 22.1618 81.7091 25.378 78.7707 29.3543V29.3435ZM118.417 20.4693C117.235 19.8352 116.012 19.2805 114.756 18.8088L114.886 18.4688C116.154 18.9515 117.389 19.5171 118.583 20.1618L118.417 20.4693Z" fill="#407BFF"/>
<path opacity="0.3" d="M74.3788 37.7871L74.0352 37.6714C74.6304 35.915 75.3785 34.2142 76.2709 32.5885L76.5856 32.7622C75.705 34.3697 74.9666 36.051 74.3788 37.7871ZM78.7707 29.3435L78.4777 29.13C81.4507 25.11 85.3417 21.859 89.8263 19.6481L89.9891 19.9737C85.5554 22.1618 81.7091 25.378 78.7707 29.3543V29.3435ZM118.417 20.4693C117.235 19.8352 116.012 19.2805 114.756 18.8088L114.886 18.4688C116.154 18.9515 117.389 19.5171 118.583 20.1618L118.417 20.4693Z" fill="black"/>
<path d="M130.627 34.437C127.277 27.4893 121.382 22.0972 114.164 19.3784C106.946 16.6597 98.959 16.8227 91.858 19.8338C84.757 22.845 79.0871 28.4732 76.0236 35.5518C72.9601 42.6303 72.738 50.6163 75.4034 57.8542C72.9868 58.7007 70.5991 59.6087 68.2259 60.5457C64.8036 61.9036 61.4126 63.3217 58.053 64.8001C54.6958 66.287 51.3531 67.8028 48.0429 69.3873C46.3824 70.1651 44.7436 70.9863 43.0903 71.7822C42.2303 72.1518 41.451 72.6864 40.7967 73.3559C40.4427 73.7266 40.1308 74.1355 39.867 74.5751C39.545 75.0949 39.3013 75.6593 39.1434 76.2501C38.8712 77.3146 38.9889 78.4415 39.4753 79.4268C39.9617 80.4122 40.7846 81.1909 41.7952 81.6223C42.3564 81.8577 42.9485 82.0112 43.5534 82.0781C44.0643 82.136 44.58 82.136 45.0909 82.0781C46.0193 81.9654 46.9165 81.6717 47.7318 81.2135C49.3706 80.3851 51.0203 79.5855 52.6482 78.7354C55.9041 77.0749 59.16 75.342 62.3761 73.5838C65.5923 71.8256 68.812 69.9842 71.9521 68.0958C74.1227 66.7826 76.315 65.4404 78.4639 64.0368C82.5904 70.551 89.0648 75.228 96.5456 77.0986C104.026 78.9693 111.94 77.8901 118.647 74.0849C125.354 70.2796 130.34 64.0399 132.571 56.6587C134.803 49.2775 134.11 41.3207 130.634 34.437H130.627ZM114.181 68.9966C109.977 71.0718 105.252 71.8538 100.603 71.2436C95.9546 70.6335 91.5913 68.6587 88.065 65.5688C84.5387 62.479 82.0078 58.4129 80.7923 53.8847C79.5767 49.3566 79.7312 44.5696 81.2361 40.1292C82.741 35.6888 85.5288 31.7944 89.247 28.9383C92.9652 26.0822 97.4467 24.3928 102.125 24.0836C106.803 23.7744 111.468 24.8594 115.53 27.2013C119.592 29.5432 122.868 33.0369 124.944 37.2407C126.323 40.0324 127.138 43.0684 127.343 46.1753C127.549 49.2822 127.14 52.3991 126.14 55.348C125.141 58.2969 123.57 61.0201 121.519 63.3619C119.467 65.7038 116.973 67.6185 114.181 68.9966Z" fill="#407BFF"/>
<path opacity="0.3" d="M130.627 34.437C127.277 27.4893 121.382 22.0972 114.164 19.3784C106.946 16.6597 98.959 16.8227 91.858 19.8338C84.757 22.845 79.0871 28.4732 76.0236 35.5518C72.9601 42.6303 72.738 50.6163 75.4034 57.8542C72.9868 58.7007 70.5991 59.6087 68.2259 60.5457C64.8036 61.9036 61.4126 63.3217 58.053 64.8001C54.6958 66.287 51.3531 67.8028 48.0429 69.3873C46.3824 70.1651 44.7436 70.9863 43.0903 71.7822C42.2303 72.1518 41.451 72.6864 40.7967 73.3559C40.4427 73.7266 40.1308 74.1355 39.867 74.5751C39.545 75.0949 39.3013 75.6593 39.1434 76.2501C38.8712 77.3146 38.9889 78.4415 39.4753 79.4268C39.9617 80.4122 40.7846 81.1909 41.7952 81.6223C42.3564 81.8577 42.9485 82.0112 43.5534 82.0781C44.0643 82.136 44.58 82.136 45.0909 82.0781C46.0193 81.9654 46.9165 81.6717 47.7318 81.2135C49.3706 80.3851 51.0203 79.5855 52.6482 78.7354C55.9041 77.0749 59.16 75.342 62.3761 73.5838C65.5923 71.8256 68.812 69.9842 71.9521 68.0958C74.1227 66.7826 76.315 65.4404 78.4639 64.0368C82.5904 70.551 89.0648 75.228 96.5456 77.0986C104.026 78.9693 111.94 77.8901 118.647 74.0849C125.354 70.2796 130.34 64.0399 132.571 56.6587C134.803 49.2775 134.11 41.3207 130.634 34.437H130.627ZM114.181 68.9966C109.977 71.0718 105.252 71.8538 100.603 71.2436C95.9546 70.6335 91.5913 68.6587 88.065 65.5688C84.5387 62.479 82.0078 58.4129 80.7923 53.8847C79.5767 49.3566 79.7312 44.5696 81.2361 40.1292C82.741 35.6888 85.5288 31.7944 89.247 28.9383C92.9652 26.0822 97.4467 24.3928 102.125 24.0836C106.803 23.7744 111.468 24.8594 115.53 27.2013C119.592 29.5432 122.868 33.0369 124.944 37.2407C126.323 40.0324 127.138 43.0684 127.343 46.1753C127.549 49.2822 127.14 52.3991 126.14 55.348C125.141 58.2969 123.57 61.0201 121.519 63.3619C119.467 65.7038 116.973 67.6185 114.181 68.9966Z" fill="black"/>
<path d="M57.5977 40.518C57.5977 40.7314 57.7098 40.905 57.8509 40.905C57.992 40.905 58.1041 40.7314 58.1041 40.518C58.1041 40.3045 57.992 40.1309 57.8509 40.1309C57.7098 40.1309 57.5977 40.319 57.5977 40.518Z" fill="#263238"/>
<path d="M57.6992 40.9043C57.9553 41.5595 58.2997 42.1766 58.723 42.7385C58.5767 42.8432 58.4092 42.9146 58.2323 42.9477C58.0555 42.9808 57.8735 42.9748 57.6992 42.9302V40.9043Z" fill="#DE5753"/>
<path d="M56.8463 39.3277C56.8262 39.3277 56.8063 39.3232 56.7881 39.3144C56.7699 39.3057 56.754 39.2929 56.7414 39.2771C56.7226 39.2495 56.7151 39.2157 56.7205 39.1827C56.7258 39.1497 56.7437 39.12 56.7704 39.0998C56.9297 38.979 57.1159 38.8985 57.313 38.8651C57.5102 38.8317 57.7125 38.8464 57.9027 38.9081C57.9198 38.9127 57.9357 38.9209 57.9494 38.9321C57.9632 38.9433 57.9744 38.9572 57.9824 38.973C57.9904 38.9888 57.995 39.0061 57.9959 39.0238C57.9968 39.0415 57.994 39.0592 57.9876 39.0757C57.9812 39.0922 57.9715 39.1072 57.959 39.1198C57.9465 39.1323 57.9314 39.1421 57.9149 39.1484C57.8984 39.1548 57.8807 39.1576 57.863 39.1567C57.8454 39.1558 57.8281 39.1512 57.8123 39.1432C57.6612 39.0969 57.5011 39.0875 57.3457 39.1158C57.1902 39.1441 57.0437 39.2094 56.9187 39.306C56.8973 39.3203 56.8721 39.3278 56.8463 39.3277Z" fill="#263238"/>
<path d="M50.288 42.1289C50.6498 44.0716 51.0477 47.635 49.6875 48.9337C49.6875 48.9337 50.2193 50.9054 53.8334 50.9054C57.8128 50.9054 55.729 48.9337 55.729 48.9337C53.5584 48.4128 53.6199 46.8066 53.9962 45.2944L50.288 42.1289Z" fill="#E4897B"/>
<path d="M48.0645 49.9574C48.495 49.2881 47.7715 47.6638 47.7715 47.6638C47.7715 47.6638 54.1675 46.0539 56.7831 48.5248C57.3258 49.0349 56.7252 49.7874 56.7252 49.7874L48.0645 49.9574Z" fill="#407BFF"/>
<path opacity="0.1" d="M48.0645 49.9574C48.495 49.2881 47.7715 47.6638 47.7715 47.6638C47.7715 47.6638 54.1675 46.0539 56.7831 48.5248C57.3258 49.0349 56.7252 49.7874 56.7252 49.7874L48.0645 49.9574Z" fill="black"/>
<path d="M37.4827 123.768C37.1462 123.768 36.6072 123.208 36.448 122.998C36.4412 122.988 36.4375 122.976 36.4375 122.963C36.4375 122.951 36.4412 122.939 36.448 122.929C36.4538 122.919 36.4623 122.911 36.4725 122.905C36.4827 122.899 36.4942 122.896 36.5059 122.897C36.5457 122.897 37.432 122.976 37.6744 123.291C37.7007 123.324 37.7196 123.363 37.7296 123.404C37.7396 123.445 37.7405 123.488 37.7323 123.53C37.7291 123.583 37.7093 123.635 37.6756 123.677C37.6419 123.719 37.596 123.75 37.5442 123.765L37.4827 123.768ZM36.6434 123.045C36.9074 123.349 37.3307 123.692 37.5116 123.649C37.5116 123.649 37.5839 123.631 37.6057 123.515C37.6104 123.491 37.6096 123.466 37.6034 123.442C37.5971 123.418 37.5855 123.396 37.5695 123.378C37.3015 123.175 36.979 123.056 36.6434 123.038V123.045Z" fill="#407BFF"/>
<path d="M36.6834 123.038C36.6185 123.044 36.553 123.044 36.4881 123.038C36.4766 123.037 36.4657 123.033 36.4567 123.025C36.4477 123.018 36.441 123.009 36.4374 122.998C36.4323 122.988 36.4297 122.977 36.4297 122.965C36.4297 122.954 36.4323 122.943 36.4374 122.933C36.4628 122.911 36.9945 122.358 37.3961 122.358C37.4442 122.356 37.4919 122.366 37.5362 122.384C37.5804 122.403 37.6203 122.431 37.653 122.466C37.689 122.496 37.7136 122.538 37.7228 122.584C37.732 122.63 37.7253 122.678 37.7036 122.719C37.5987 122.922 37.0452 123.038 36.6834 123.038ZM36.6364 122.911C36.9982 122.911 37.5227 122.799 37.6096 122.64C37.6096 122.64 37.6349 122.593 37.577 122.535C37.5559 122.512 37.5301 122.494 37.5014 122.482C37.4726 122.47 37.4417 122.465 37.4106 122.466C37.114 122.534 36.8445 122.689 36.6364 122.911Z" fill="#407BFF"/>
<path d="M61.3557 131.98C61.0815 131.978 60.808 131.953 60.5381 131.904C60.5247 131.901 60.5126 131.894 60.504 131.884C60.4954 131.873 60.4908 131.86 60.4911 131.846C60.489 131.834 60.4907 131.821 60.4958 131.809C60.501 131.798 60.5094 131.788 60.52 131.781C60.5598 131.759 61.4859 131.227 61.9309 131.35C61.9722 131.36 62.0111 131.377 62.0453 131.402C62.0795 131.427 62.1083 131.459 62.1299 131.495C62.1582 131.535 62.1734 131.583 62.1734 131.633C62.1734 131.682 62.1582 131.73 62.1299 131.77C62.025 131.933 61.6958 131.98 61.3557 131.98ZM60.7443 131.81C61.2363 131.882 61.9092 131.879 62.0322 131.705C62.0503 131.683 62.0648 131.644 62.0322 131.568C62.0046 131.523 61.9604 131.49 61.9092 131.477C61.627 131.405 61.0663 131.643 60.7443 131.81Z" fill="#407BFF"/>
<path d="M60.5531 131.908C60.5413 131.911 60.5288 131.911 60.517 131.908C60.5069 131.902 60.4991 131.892 60.4946 131.881C60.4901 131.87 60.489 131.858 60.4916 131.847C60.5162 131.47 60.6607 131.111 60.9041 130.823C60.9533 130.78 61.0111 130.749 61.0735 130.731C61.1359 130.713 61.2015 130.708 61.2658 130.718C61.4395 130.718 61.4901 130.823 61.501 130.891C61.548 131.192 60.9149 131.767 60.5929 131.912L60.5531 131.908ZM61.2007 130.823C61.1211 130.822 61.044 130.85 60.9837 130.902C60.7791 131.131 60.6524 131.418 60.6219 131.724C60.9475 131.525 61.3816 131.076 61.3454 130.895C61.3454 130.895 61.3454 130.834 61.2224 130.823H61.2007Z" fill="#407BFF"/>
<path d="M57.6289 131.841H60.2879L60.552 125.688H57.893L57.6289 131.841Z" fill="#E4897B"/>
<path d="M33.9531 121.281L36.1744 122.735L41.0799 118.593L38.8551 117.135L33.9531 121.281Z" fill="#E4897B"/>
<path d="M36.5384 122.596L34.2303 120.704C34.1895 120.671 34.1384 120.652 34.0856 120.652C34.0328 120.652 33.9817 120.671 33.9409 120.704L32.038 122.198C31.992 122.235 31.9549 122.281 31.9294 122.334C31.9039 122.387 31.8906 122.445 31.8906 122.504C31.8906 122.563 31.9039 122.621 31.9294 122.674C31.9549 122.727 31.992 122.773 32.038 122.81C32.8556 123.457 33.2861 123.732 34.3027 124.564C34.9285 125.074 36.4733 126.637 37.3451 127.343C38.217 128.048 39.0165 127.288 38.7271 126.923C37.4283 125.277 36.9183 123.87 36.7699 122.998C36.7443 122.84 36.662 122.697 36.5384 122.596Z" fill="#263238"/>
<path d="M60.2698 131.535H57.3756C57.3229 131.535 57.2717 131.553 57.2303 131.586C57.189 131.619 57.1599 131.665 57.1477 131.716L56.6232 134.078C56.61 134.136 56.61 134.195 56.6232 134.252C56.6364 134.31 56.6625 134.363 56.6995 134.409C56.7364 134.454 56.7833 134.491 56.8365 134.516C56.8897 134.541 56.9479 134.553 57.0066 134.552C58.0521 134.534 59.5643 134.473 60.8812 134.473C62.4187 134.473 63.75 134.556 65.5516 134.556C66.6369 134.556 66.948 133.453 66.4886 133.355C64.412 132.899 62.7117 132.852 60.9173 131.741C60.7248 131.614 60.5006 131.542 60.2698 131.535Z" fill="#263238"/>
<path d="M44.4497 49.7257C42.1452 50.811 40.832 58.0825 40.832 58.0825L46.4647 60.3291C47.2892 58.3158 47.9557 56.2415 48.4581 54.1248C49.2323 50.7748 46.8084 48.6042 44.4497 49.7257Z" fill="#263238"/>
<path d="M47.4389 53.8253C46.0461 55.2362 45.4094 58.0001 45.1309 59.7981L46.4803 60.3371C47.2813 58.3811 47.9343 56.3676 48.4338 54.3137C48.3144 53.5468 48.0178 53.2393 47.4389 53.8253Z" fill="#203048"/>
<path d="M59.8184 49.6736C59.8184 49.6736 62.6474 52.8716 59.9775 72.6458H45.7637C45.666 70.4752 47.0371 59.8212 44.9316 49.5398C46.5025 49.2352 48.0917 49.0346 49.6889 48.9392C51.7009 48.8197 53.7183 48.8197 55.7304 48.9392C57.11 49.078 58.4767 49.3236 59.8184 49.6736Z" fill="#263238"/>
<path d="M61.1163 57.3524L58.7214 53.2246C58.2591 55.1505 58.0703 57.132 58.1606 59.1106C58.2257 60.5287 59.5245 65.7816 60.693 66.5485C61.0031 63.4932 61.1444 60.4232 61.1163 57.3524Z" fill="#203048"/>
<path d="M61.4485 52.5C61.8103 54.2582 62.1721 56.0598 62.5592 57.8252C62.9463 59.5906 63.3478 61.3633 63.8145 63.0745C63.9339 63.4977 64.046 63.9318 64.1763 64.337L64.274 64.6481L64.321 64.8037V64.7856C64.2957 64.7531 64.2667 64.7494 64.2884 64.7856C64.4371 64.948 64.6272 65.0668 64.8383 65.1293C65.1803 65.2566 65.5325 65.3546 65.891 65.4223C67.6014 65.6934 69.3332 65.806 71.0643 65.7588L71.408 67.7268C70.9232 67.8823 70.471 67.9945 69.9935 68.1066C69.516 68.2188 69.0457 68.3129 68.5645 68.3852C67.569 68.5509 66.5597 68.6188 65.551 68.5878C64.9903 68.5727 64.4327 68.5 63.8869 68.3707C63.1929 68.2189 62.5407 67.9163 61.9767 67.4844C61.6084 67.187 61.3043 66.8177 61.0832 66.3991C61.0253 66.2906 60.9746 66.1676 60.9276 66.0627L60.8625 65.8926L60.7286 65.5309C60.5441 65.0714 60.3922 64.6192 60.2258 64.167C59.6144 62.3582 59.1043 60.5312 58.6557 58.7079C58.2071 56.8846 57.82 55.0649 57.498 53.1946L61.4485 52.5Z" fill="#E4897B"/>
<path d="M56.2692 51.614C55.5204 54.0415 58.5556 61.2805 58.5556 61.2805L64.6007 59.7611C64.6007 59.7611 64.3692 55.9987 62.9909 53.0141C60.9143 48.5137 57.1664 48.7018 56.2692 51.614Z" fill="#263238"/>
<path d="M71.0144 65.7596L74.0243 65.6836L72.5772 68.8165C72.5772 68.8165 71.3509 68.9793 70.3451 67.326L69.2852 66.0598L70.5043 65.8174C70.6721 65.7821 70.8429 65.7627 71.0144 65.7596Z" fill="#E4897B"/>
<path d="M75.9225 66.266L74.2005 68.8635L72.5762 68.8165L74.0232 65.6836L75.9225 66.266Z" fill="#E4897B"/>
<path d="M60.5523 125.688L60.4148 128.86H57.7559L57.8933 125.688H60.5523Z" fill="#CE6F64"/>
<path d="M38.8549 117.135L41.0798 118.593L38.5474 120.727L36.3262 119.273L38.8549 117.135Z" fill="#CE6F64"/>
<path d="M50.4556 40.0579C50.6147 42.6879 50.5749 44.2399 51.9026 45.5893C53.8996 47.626 57.1519 46.4214 57.7814 43.7805C58.3493 41.4145 57.9948 37.5074 55.419 36.4583C54.8507 36.2289 54.2334 36.1476 53.625 36.2222C53.0167 36.2967 52.4372 36.5246 51.9411 36.8844C51.4449 37.2442 51.0483 37.7242 50.7885 38.2793C50.5286 38.8344 50.4141 39.4464 50.4556 40.0579Z" fill="#E4897B"/>
<path d="M47.3603 39.5966C48.0151 41.9951 49.5562 44.759 51.5495 44.9363C54.024 45.1534 55.1419 42.5957 55.4675 39.9548C56.9507 38.9382 56.1729 37.8203 57.6598 37.6792C59.5699 37.4984 58.9585 34.0037 56.4443 33.443C56.4443 33.443 57.2872 35.0166 55.5181 34.2208C53.8358 33.4212 51.9667 33.0972 50.1133 33.2838C50.1133 33.2838 52.3708 34.4125 50.164 34.9153C47.9572 35.4182 47.2988 36.7784 48.3153 37.5997C48.3153 37.6033 46.9298 38.0193 47.3603 39.5966Z" fill="#263238"/>
<path d="M53.9578 40.4966C54.0064 41.1504 54.2697 41.7698 54.7067 42.2584C55.2855 42.8988 55.8897 42.5008 55.9909 41.723C56.085 41.0248 55.8933 39.8491 55.1842 39.4945C54.4751 39.14 53.9108 39.708 53.9578 40.4966Z" fill="#E4897B"/>
<path d="M54.9338 72.6462C54.9338 72.6462 57.5241 91.4038 55.4837 98.9214C52.2495 110.824 39.8843 120.87 39.8843 120.87L35.6914 118.12C35.6914 118.12 46.2225 109.637 47.5103 99.6702C48.668 90.7237 45.763 79.9032 45.763 72.6426L54.9338 72.6462Z" fill="#407BFF"/>
<path opacity="0.1" d="M54.9338 72.6462C54.9338 72.6462 57.5241 91.4038 55.4837 98.9214C52.2495 110.824 39.8843 120.87 39.8843 120.87L35.6914 118.12C35.6914 118.12 46.2225 109.637 47.5103 99.6702C48.668 90.7237 45.763 79.9032 45.763 72.6426L54.9338 72.6462Z" fill="black"/>
<path d="M56.0046 83.3698C55.315 82.5798 54.5559 81.8534 53.7363 81.1992C54.1777 87.2878 54.5395 96.3066 54.1379 102.714C54.6778 101.485 55.1276 100.219 55.4837 98.9258C56.4785 95.2539 56.3736 88.9121 56.0046 83.3698Z" fill="#407BFF"/>
<path opacity="0.3" d="M56.0046 83.3698C55.315 82.5798 54.5559 81.8534 53.7363 81.1992C54.1777 87.2878 54.5395 96.3066 54.1379 102.714C54.6778 101.485 55.1276 100.219 55.4837 98.9258C56.4785 95.2539 56.3736 88.9121 56.0046 83.3698Z" fill="black"/>
<path d="M41.5735 119.933C41.5915 119.933 39.9491 121.018 39.9491 121.018L35.3691 118.016L36.8162 116.818L41.5735 119.933Z" fill="#407BFF"/>
<path opacity="0.3" d="M41.5735 119.933C41.5915 119.933 39.9491 121.018 39.9491 121.018L35.3691 118.016L36.8162 116.818L41.5735 119.933Z" fill="black"/>
<path d="M59.9773 72.6465C59.9773 72.6465 63.9784 89.6134 64.2606 97.7206C64.5789 106.808 61.4062 128.247 61.4062 128.247H56.9022C56.9022 128.247 56.3487 106.642 56.1498 98.3645C55.9291 89.3384 50.6328 72.6465 50.6328 72.6465H59.9773Z" fill="#407BFF"/>
<path opacity="0.1" d="M59.9773 72.6465C59.9773 72.6465 63.9784 89.6134 64.2606 97.7206C64.5789 106.808 61.4062 128.247 61.4062 128.247H56.9022C56.9022 128.247 56.3487 106.642 56.1498 98.3645C55.9291 89.3384 50.6328 72.6465 50.6328 72.6465H59.9773Z" fill="black"/>
<path d="M62.2713 126.457C62.293 126.457 62.0181 128.324 62.0181 128.324H56.5409L56.3926 126.656L62.2713 126.457Z" fill="#407BFF"/>
<path opacity="0.3" d="M62.2713 126.457C62.293 126.457 62.0181 128.324 62.0181 128.324H56.5409L56.3926 126.656L62.2713 126.457Z" fill="black"/>
<path d="M129.226 56.3418C129.533 56.6312 129.776 56.8772 130.029 57.1522C130.282 57.4271 130.521 57.6948 130.752 57.9734C131.223 58.5269 131.664 59.1093 132.091 59.6954C132.944 60.871 133.702 62.1121 134.359 63.4071L134.493 63.6712C134.558 63.799 134.613 63.9322 134.656 64.0691C134.743 64.3339 134.797 64.6086 134.815 64.8867C134.839 65.3772 134.771 65.8679 134.616 66.3338C134.352 67.1078 133.959 67.8317 133.455 68.4755C132.546 69.6429 131.474 70.6737 130.271 71.536L129.37 70.5014C129.794 70.0057 130.235 69.474 130.629 68.9422C131.031 68.4269 131.393 67.8828 131.715 67.3142C132.015 66.8181 132.237 66.2788 132.373 65.7152C132.42 65.5136 132.428 65.305 132.398 65.1002C132.386 65.0313 132.364 64.9644 132.333 64.9012C132.32 64.8735 132.304 64.8468 132.286 64.8216L132.171 64.6263C131.473 63.4886 130.716 62.3886 129.902 61.3306C129.501 60.7988 129.07 60.2887 128.636 59.7858C128.423 59.5326 128.202 59.2866 127.981 59.0406C127.761 58.7946 127.522 58.5486 127.33 58.3568L129.226 56.3418Z" fill="#E4897B"/>
<path d="M129.716 70.1972L127.014 69.7559L128.428 72.1218C128.428 72.1218 130.168 72.0603 130.664 71.0365L129.716 70.1972Z" fill="#E4897B"/>
<path d="M125.018 70.8484L126.305 72.7694L128.429 72.1218L127.015 69.7559L125.018 70.8484Z" fill="#E4897B"/>
<path d="M129.588 131.948C129.404 131.963 129.221 131.913 129.07 131.807C129.025 131.764 128.991 131.71 128.973 131.65C128.955 131.591 128.952 131.527 128.965 131.466C128.968 131.428 128.981 131.39 129.003 131.358C129.026 131.326 129.056 131.301 129.092 131.286C129.407 131.144 130.232 131.673 130.326 131.734C130.336 131.741 130.345 131.751 130.349 131.762C130.354 131.774 130.354 131.787 130.351 131.799C130.35 131.812 130.344 131.823 130.336 131.832C130.327 131.842 130.316 131.848 130.304 131.85C130.07 131.909 129.829 131.942 129.588 131.948ZM129.226 131.387C129.199 131.383 129.173 131.383 129.146 131.387C129.13 131.394 129.117 131.406 129.107 131.421C129.098 131.435 129.092 131.453 129.092 131.47C129.082 131.51 129.083 131.553 129.095 131.593C129.106 131.632 129.128 131.669 129.157 131.698C129.295 131.821 129.649 131.839 130.123 131.745C129.852 131.566 129.546 131.444 129.226 131.387Z" fill="#407BFF"/>
<path d="M130.311 131.846H130.278C130.021 131.697 129.526 131.122 129.587 130.807C129.599 130.758 129.626 130.713 129.666 130.681C129.705 130.648 129.753 130.629 129.804 130.626C129.853 130.619 129.903 130.623 129.95 130.639C129.997 130.654 130.04 130.679 130.076 130.713C130.372 130.974 130.376 131.755 130.376 131.798C130.375 131.809 130.372 131.82 130.366 131.83C130.361 131.839 130.353 131.847 130.343 131.853L130.311 131.846ZM129.848 130.76H129.819C129.739 130.76 129.721 130.804 129.714 130.836C129.678 131.021 129.985 131.462 130.242 131.668C130.248 131.365 130.161 131.067 129.992 130.814C129.971 130.794 129.945 130.779 129.917 130.77C129.889 130.76 129.859 130.757 129.83 130.76H129.848Z" fill="#407BFF"/>
<path d="M117.257 131.948C117.026 131.97 116.795 131.911 116.602 131.782C116.559 131.743 116.525 131.695 116.504 131.641C116.484 131.587 116.476 131.528 116.483 131.471C116.485 131.436 116.496 131.402 116.515 131.372C116.534 131.342 116.56 131.318 116.591 131.301C116.928 131.113 118.006 131.662 118.129 131.731C118.14 131.739 118.149 131.749 118.155 131.761C118.161 131.773 118.163 131.787 118.161 131.8C118.159 131.813 118.153 131.824 118.144 131.833C118.135 131.843 118.123 131.849 118.111 131.851C117.83 131.91 117.544 131.943 117.257 131.948ZM116.776 131.388C116.734 131.385 116.693 131.394 116.656 131.413C116.643 131.419 116.632 131.429 116.625 131.441C116.617 131.453 116.613 131.467 116.613 131.482C116.607 131.519 116.611 131.558 116.624 131.594C116.636 131.63 116.657 131.662 116.685 131.688C116.852 131.836 117.297 131.861 117.897 131.76C117.547 131.574 117.168 131.448 116.776 131.388Z" fill="#407BFF"/>
<path d="M118.102 131.847H118.073C117.751 131.702 117.11 131.123 117.161 130.809C117.161 130.736 117.226 130.646 117.403 130.628C117.468 130.621 117.534 130.627 117.596 130.646C117.658 130.666 117.716 130.698 117.765 130.74C118.105 131.022 118.17 131.753 118.17 131.785C118.172 131.796 118.17 131.808 118.166 131.818C118.161 131.828 118.154 131.837 118.145 131.843C118.131 131.849 118.116 131.85 118.102 131.847ZM117.454 130.762H117.414C117.299 130.762 117.291 130.819 117.288 130.834C117.259 131.018 117.693 131.478 118.011 131.677C117.98 131.368 117.853 131.076 117.649 130.841C117.595 130.794 117.526 130.766 117.454 130.762Z" fill="#407BFF"/>
<path d="M122.378 48.0254C122.273 49.6606 121.991 52.9816 123.246 53.9005C123.246 53.9005 123.018 55.5755 120.055 55.9662C116.799 56.3895 118.286 54.5517 118.286 54.5517C120.012 53.8933 119.791 52.58 119.321 51.379L122.378 48.0254Z" fill="#E4897B"/>
<path d="M115.636 45.1336C115.619 45.1337 115.601 45.1298 115.585 45.1223C115.568 45.1148 115.554 45.1039 115.542 45.0902C115.439 44.9675 115.308 44.8708 115.16 44.808C115.013 44.7451 114.852 44.7179 114.692 44.7285C114.675 44.7315 114.658 44.7311 114.641 44.7273C114.624 44.7235 114.609 44.7162 114.595 44.7061C114.581 44.6959 114.569 44.683 114.56 44.6682C114.552 44.6534 114.546 44.637 114.544 44.6199C114.54 44.5859 114.549 44.5516 114.57 44.5245C114.591 44.4974 114.622 44.4797 114.656 44.4752C114.86 44.4579 115.066 44.4904 115.255 44.5698C115.444 44.6491 115.611 44.7731 115.741 44.931C115.757 44.9499 115.767 44.9728 115.77 44.9971C115.774 45.0214 115.77 45.0462 115.76 45.0685C115.749 45.0908 115.733 45.1097 115.713 45.1232C115.692 45.1366 115.668 45.144 115.644 45.1445L115.636 45.1336Z" fill="#263238"/>
<path d="M115.072 46.7363C114.944 47.2552 114.745 47.7542 114.482 48.2196C114.603 48.2846 114.737 48.3222 114.874 48.3297C115.011 48.3372 115.148 48.3144 115.275 48.263L115.072 46.7363Z" fill="#DE5753"/>
<path d="M115.218 46.3401C115.247 46.5572 115.156 46.7453 115.015 46.767C114.874 46.7887 114.733 46.6223 114.708 46.4053C114.682 46.1882 114.769 46.0001 114.91 45.982C115.051 45.9639 115.192 46.1086 115.218 46.3401Z" fill="#263238"/>
<path d="M114.975 45.9836L114.436 45.9004C114.436 45.9004 114.754 46.273 114.975 45.9836Z" fill="#263238"/>
<path d="M121.084 131.788H118.37L118.189 125.512H120.903L121.084 131.788Z" fill="#E4897B"/>
<path d="M133.402 131.788H130.688L129.816 125.512H132.53L133.402 131.788Z" fill="#E4897B"/>
<path d="M130.52 131.484H133.566C133.618 131.484 133.668 131.502 133.708 131.536C133.747 131.57 133.772 131.617 133.779 131.669L134.141 134.082C134.148 134.143 134.141 134.204 134.123 134.262C134.104 134.321 134.073 134.374 134.032 134.42C133.991 134.465 133.941 134.501 133.885 134.526C133.829 134.551 133.768 134.563 133.707 134.563C132.647 134.545 132.133 134.483 130.795 134.483C129.97 134.483 128.765 134.567 127.629 134.567C126.493 134.567 126.432 133.442 126.906 133.34C129.029 132.884 129.366 132.255 130.079 131.651C130.203 131.548 130.358 131.489 130.52 131.484Z" fill="#263238"/>
<path d="M118.279 131.484H121.321C121.373 131.484 121.424 131.502 121.464 131.536C121.504 131.57 121.53 131.617 121.538 131.669L121.9 134.082C121.907 134.143 121.9 134.204 121.881 134.262C121.863 134.321 121.832 134.374 121.791 134.42C121.75 134.465 121.7 134.501 121.644 134.526C121.588 134.551 121.527 134.563 121.466 134.563C120.406 134.545 119.892 134.483 118.554 134.483C117.729 134.483 116.021 134.567 114.885 134.567C113.749 134.567 113.688 133.442 114.162 133.34C116.285 132.884 117.121 132.255 117.837 131.651C117.962 131.548 118.117 131.489 118.279 131.484Z" fill="#263238"/>
<path d="M118.189 125.512L118.284 128.75H120.997L120.903 125.512H118.189Z" fill="#CE6F64"/>
<path d="M132.53 125.512H129.816L130.269 128.75H132.978L132.53 125.512Z" fill="#CE6F64"/>
<path d="M122.413 44.6395C122.598 47.3238 122.732 48.4562 121.567 50.0009C119.812 52.3198 116.477 51.9617 115.493 49.3859C114.606 47.067 114.455 43.0695 116.922 41.6658C117.465 41.3547 118.078 41.1875 118.703 41.18C119.329 41.1724 119.946 41.3248 120.496 41.6227C121.046 41.9206 121.511 42.3541 121.847 42.8821C122.182 43.41 122.377 44.015 122.413 44.6395Z" fill="#E4897B"/>
<path d="M123.976 47.1311C125.481 47.9704 126.599 45.9011 126.599 45.9011C126.599 45.9011 123.9 46.1941 124.142 44.5879C124.46 42.457 122.934 39.8668 119.106 40.1996C118.893 40.2177 118.69 40.243 118.491 40.2756C118.091 40.0857 117.637 40.0366 117.205 40.1364C116.773 40.2362 116.388 40.479 116.111 40.8255C115.026 40.9159 113.56 42.211 114.555 43.9222C114.625 43.7256 114.733 43.5448 114.874 43.3904C114.957 44.3925 115.832 45.9843 116.925 46.0892C117.16 47.4603 116.248 49.0485 116.563 50.481C117.03 52.5467 120.514 53.0134 120.514 53.0134C120.393 52.7555 120.349 52.4688 120.385 52.1865C120.42 51.9042 120.535 51.6378 120.716 51.418C123.082 52.5033 124.641 51.4434 124.641 51.4434C123.028 50.8428 123.516 49.772 123.516 49.772C124.073 50.0193 124.705 50.0411 125.277 49.8326C125.85 49.6241 126.32 49.2017 126.588 48.6541C126.052 48.6796 125.52 48.5493 125.056 48.279C124.593 48.0087 124.218 47.61 123.976 47.1311Z" fill="#263238"/>
<path d="M117.87 46.5022C117.876 46.7599 117.832 47.0162 117.739 47.2565C117.645 47.4968 117.506 47.7162 117.327 47.9023C116.85 48.3979 116.264 48.0506 116.105 47.4175C115.964 46.8459 116.043 45.9017 116.665 45.6412C116.802 45.5874 116.951 45.5687 117.097 45.5868C117.243 45.6048 117.382 45.6591 117.501 45.7446C117.621 45.8302 117.718 45.9443 117.782 46.0766C117.846 46.2089 117.877 46.3553 117.87 46.5022Z" fill="#E4897B"/>
<path d="M120.125 71.5104C120.125 71.5104 120.812 89.3672 122.448 99.8512C123.764 108.324 129.614 128.12 129.614 128.12H133.311C133.311 128.12 130.262 109 129.592 100.625C127.899 79.4294 132.295 74.8784 128.145 70.4648L120.125 71.5104Z" fill="#263238"/>
<path d="M123.213 77.1592C123.213 77.1592 121.541 76.8698 120.564 80.0533C120.926 86.084 121.545 94.0863 122.446 99.8529C122.645 101.137 122.948 102.686 123.321 104.382C122.616 94.1948 123.213 77.1592 123.213 77.1592Z" fill="#161F33"/>
<path d="M117.241 71.8879C117.241 71.8879 114.195 91.644 114.373 99.9104C114.557 108.51 117.708 128.128 117.708 128.128H121.373C121.373 128.128 120.794 109.02 121.116 100.576C121.478 91.3691 125.237 70.8496 125.237 70.8496L117.241 71.8879Z" fill="#263238"/>
<path d="M133.845 128.294H128.928L128.545 126.645L133.809 126.681L133.845 128.294Z" fill="#407BFF"/>
<path opacity="0.2" d="M133.845 128.294H128.928L128.545 126.645L133.809 126.681L133.845 128.294Z" fill="black"/>
<path d="M127.957 53.9042C129.372 54.0417 131.521 58.0609 131.521 58.0609L127.95 60.7995C127.95 60.7995 124.994 58.2056 125.345 56.7477C125.711 55.2319 126.601 53.7776 127.957 53.9042Z" fill="#407BFF"/>
<path opacity="0.1" d="M127.957 53.9042C129.372 54.0417 131.521 58.0609 131.521 58.0609L127.95 60.7995C127.95 60.7995 124.994 58.2056 125.345 56.7477C125.711 55.2319 126.601 53.7776 127.957 53.9042Z" fill="black"/>
<path d="M126.892 55.6321C126.531 55.5349 126.158 55.4934 125.785 55.5091C125.595 55.9046 125.448 56.3194 125.347 56.7463C124.985 58.1934 127.952 60.7981 127.952 60.7981L128.216 60.5955L126.892 55.6321Z" fill="#407BFF"/>
<path opacity="0.3" d="M126.892 55.6321C126.531 55.5349 126.158 55.4934 125.785 55.5091C125.595 55.9046 125.448 56.3194 125.347 56.7463C124.985 58.1934 127.952 60.7981 127.952 60.7981L128.216 60.5955L126.892 55.6321Z" fill="black"/>
<path d="M116.028 59.4935C114.997 62.1018 113.912 64.7536 113.047 67.3692C112.99 67.5356 112.943 67.6948 112.892 67.8576L112.769 68.2591C112.735 68.3774 112.735 68.5026 112.769 68.6209C112.973 69.0732 113.297 69.461 113.706 69.7424C114.787 70.5184 115.966 71.1496 117.211 71.62L116.886 72.9513C115.354 72.7492 113.872 72.266 112.516 71.5259C111.681 71.0799 111.001 70.3912 110.566 69.5506C110.316 69.0134 110.229 68.4147 110.316 67.8286C110.324 67.7569 110.336 67.6856 110.352 67.6152L110.388 67.4632L110.45 67.1883C110.493 67.0038 110.537 66.8265 110.584 66.6456C110.946 65.1986 111.409 63.8239 111.897 62.46C112.385 61.0961 112.895 59.7504 113.471 58.4082L116.028 59.4935Z" fill="#E4897B"/>
<path d="M113.832 55.8307C113.832 55.8307 112.609 56.4493 117.239 71.8859L128.158 70.4605C127.391 66.0397 127.029 63.3012 127.959 53.9024C126.393 53.7903 124.821 53.7903 123.256 53.9024C121.589 53.9994 119.931 54.217 118.296 54.5536C116.201 55.0203 113.832 55.8307 113.832 55.8307Z" fill="#407BFF"/>
<path opacity="0.1" d="M113.832 55.8307C113.832 55.8307 112.609 56.4493 117.239 71.8859L128.158 70.4605C127.391 66.0397 127.029 63.3012 127.959 53.9024C126.393 53.7903 124.821 53.7903 123.256 53.9024C121.589 53.9994 119.931 54.217 118.296 54.5536C116.201 55.0203 113.832 55.8307 113.832 55.8307Z" fill="black"/>
<path d="M128.237 69.7981L128.863 70.7061C128.91 70.7785 128.831 70.8653 128.708 70.8834L117.258 72.3811C117.16 72.3811 117.069 72.3558 117.055 72.2943L116.831 71.3284C116.813 71.2632 116.892 71.1945 117.001 71.18L128.056 69.733C128.09 69.7277 128.124 69.7308 128.155 69.7422C128.187 69.7536 128.215 69.7728 128.237 69.7981Z" fill="#407BFF"/>
<path opacity="0.2" d="M128.237 69.7981L128.863 70.7061C128.91 70.7785 128.831 70.8653 128.708 70.8834L117.258 72.3811C117.16 72.3811 117.069 72.3558 117.055 72.2943L116.831 71.3284C116.813 71.2632 116.892 71.1945 117.001 71.18L128.056 69.733C128.09 69.7277 128.124 69.7308 128.155 69.7422C128.187 69.7536 128.215 69.7728 128.237 69.7981Z" fill="black"/>
<path d="M126.915 71.229L127.212 71.1893C127.27 71.1893 127.309 71.1458 127.302 71.1097L126.998 69.8579C126.987 69.8366 126.968 69.8199 126.946 69.8106C126.923 69.8014 126.898 69.8002 126.875 69.8073L126.579 69.8435C126.517 69.8435 126.477 69.8869 126.488 69.9267L126.792 71.1748C126.799 71.2146 126.857 71.2363 126.915 71.229Z" fill="#263238"/>
<path d="M119.735 72.1548L120.032 72.115C120.09 72.115 120.133 72.0716 120.122 72.0354L119.818 70.7837C119.807 70.7626 119.788 70.7459 119.766 70.7361C119.744 70.7263 119.719 70.724 119.695 70.7294L119.399 70.7692C119.341 70.7692 119.297 70.8127 119.308 70.8488L119.612 72.1005C119.619 72.1548 119.677 72.1765 119.735 72.1548Z" fill="#263238"/>
<path d="M114.344 61.0682C114.644 62.4646 115.067 64.2337 115.686 66.473L115.82 60.7969L114.344 61.0682Z" fill="#407BFF"/>
<path opacity="0.3" d="M114.344 61.0682C114.644 62.4646 115.067 64.2337 115.686 66.473L115.82 60.7969L114.344 61.0682Z" fill="black"/>
<path d="M113.833 55.8314C112.477 56.3777 111.301 61.0191 111.301 61.0191L115.968 63.291C115.968 63.291 118.221 57.6149 117.212 56.5079C116.203 55.4009 115.396 55.2055 113.833 55.8314Z" fill="#407BFF"/>
<path opacity="0.1" d="M113.833 55.8314C112.477 56.3777 111.301 61.0191 111.301 61.0191L115.968 63.291C115.968 63.291 118.221 57.6149 117.212 56.5079C116.203 55.4009 115.396 55.2055 113.833 55.8314Z" fill="black"/>
<path d="M121.997 128.294H117.081L116.697 126.645L122.171 126.681L121.997 128.294Z" fill="#407BFF"/>
<path opacity="0.2" d="M121.997 128.294H117.081L116.697 126.645L122.171 126.681L121.997 128.294Z" fill="black"/>
<path d="M117.287 71.1694L116.893 71.0066C116.796 70.9672 116.69 70.9541 116.587 70.9687C116.483 70.9833 116.385 71.025 116.303 71.0897C116.221 71.1543 116.157 71.2396 116.118 71.3368C116.08 71.4341 116.067 71.5398 116.083 71.6433L116.368 73.5281C116.382 73.6225 116.417 73.7126 116.469 73.7919C116.522 73.8713 116.592 73.938 116.674 73.9871C116.755 74.0363 116.847 74.0667 116.942 74.0761C117.037 74.0856 117.132 74.0739 117.222 74.0418C117.366 73.9897 117.5 73.9152 117.62 73.8211C117.751 73.7126 117.854 73.5749 117.922 73.4191C117.99 73.2633 118.02 73.0937 118.011 72.924L117.971 72.1425C117.964 71.9314 117.896 71.7268 117.774 71.554C117.653 71.3811 117.484 71.2474 117.287 71.1694Z" fill="#E4897B"/>
</svg>
