<svg width="214" height="159" viewBox="0 0 214 159" fill="none" xmlns="http://www.w3.org/2000/svg">
<path d="M213.572 139.727H0.183594V139.833H213.572V139.727Z" fill="#EBEBEB"/>
<path d="M192.19 146.594H178.055V146.7H192.19V146.594Z" fill="#EBEBEB"/>
<path d="M141.539 147.756H137.83V147.863H141.539V147.756Z" fill="#EBEBEB"/>
<path d="M177.629 142.633H169.439V142.74H177.629V142.633Z" fill="#EBEBEB"/>
<path d="M41.0048 143.352H22.5723V143.458H41.0048V143.352Z" fill="#EBEBEB"/>
<path d="M47.5101 143.352H44.8086V143.458H47.5101V143.352Z" fill="#EBEBEB"/>
<path d="M96.2715 145.15H56.291V145.257H96.2715V145.15Z" fill="#EBEBEB"/>
<path d="M101.329 120.693H18.9229C18.2773 120.691 17.6586 120.434 17.2025 119.977C16.7464 119.52 16.4902 118.901 16.4902 118.256V2.41556C16.4959 1.7737 16.7545 1.15997 17.21 0.70769C17.6654 0.255408 18.281 0.00109954 18.9229 0H101.329C101.976 0 102.595 0.256744 103.052 0.713751C103.509 1.17076 103.766 1.79059 103.766 2.4369V118.256C103.766 118.902 103.509 119.522 103.052 119.979C102.595 120.436 101.976 120.693 101.329 120.693ZM18.9229 0.0853558C18.3056 0.0864863 17.714 0.332487 17.2779 0.769363C16.8418 1.20624 16.5969 1.79829 16.5969 2.41556V118.256C16.5969 118.873 16.8418 119.465 17.2779 119.902C17.714 120.339 18.3056 120.585 18.9229 120.586H101.329C101.947 120.585 102.539 120.339 102.976 119.902C103.412 119.465 103.658 118.873 103.659 118.256V2.41556C103.658 1.7979 103.412 1.20586 102.976 0.769102C102.539 0.332349 101.947 0.0864839 101.329 0.0853558H18.9229Z" fill="#EBEBEB"/>
<path d="M193.646 120.693H111.236C110.59 120.691 109.971 120.434 109.514 119.978C109.057 119.521 108.8 118.902 108.799 118.256V2.41556C108.806 1.77331 109.065 1.15959 109.521 0.707423C109.977 0.255259 110.593 0.00108755 111.236 0H193.646C194.288 0.00222116 194.902 0.257026 195.357 0.709188C195.811 1.16135 196.069 1.77443 196.075 2.41556V118.256C196.075 118.901 195.819 119.519 195.364 119.976C194.909 120.433 194.291 120.69 193.646 120.693ZM111.236 0.0853558C110.618 0.0864839 110.026 0.332349 109.589 0.769102C109.153 1.20586 108.907 1.7979 108.906 2.41556V118.256C108.907 118.873 109.153 119.465 109.589 119.902C110.026 120.339 110.618 120.585 111.236 120.586H193.646C194.264 120.585 194.856 120.339 195.293 119.902C195.73 119.465 195.975 118.873 195.977 118.256V2.41556C195.975 1.7979 195.73 1.20586 195.293 0.769102C194.856 0.332349 194.264 0.0864839 193.646 0.0853558H111.236Z" fill="#EBEBEB"/>
<path d="M103.608 50.7363H43.0137V139.579H103.608V50.7363Z" fill="#F0F0F0"/>
<path d="M101.466 53.5312H45.1523V69.9408H101.466V53.5312Z" fill="#E0E0E0"/>
<path d="M48.3532 56.1875H45.1523V69.9383H48.3532V56.1875Z" fill="#EBEBEB"/>
<path d="M63.8239 56.1875H60.623V69.9383H63.8239V56.1875Z" fill="#EBEBEB"/>
<path d="M81.3828 55.8391L78.2285 56.3828L80.5643 69.9337L83.7186 69.39L81.3828 55.8391Z" fill="#EBEBEB"/>
<path d="M52.32 58H49.1191V69.9412H52.32V58Z" fill="#EBEBEB"/>
<path d="M59.6735 58H56.4727V69.9412H59.6735V58Z" fill="#EBEBEB"/>
<path d="M78.234 58H75.0332V69.9412H78.234V58Z" fill="#EBEBEB"/>
<path d="M68.0289 57.5849L64.9043 58.2793L67.495 69.9361L70.6195 69.2417L68.0289 57.5849Z" fill="#EBEBEB"/>
<path d="M55.0848 55.5H53.4844V69.9336H55.0848V55.5Z" fill="#EBEBEB"/>
<path d="M74.1082 55.5H72.5078V69.9336H74.1082V55.5Z" fill="#EBEBEB"/>
<path d="M45.1574 88.9473H101.471V72.5377H45.1574V88.9473Z" fill="#E0E0E0"/>
<path d="M98.266 88.9434H101.467V75.1926H98.266V88.9434Z" fill="#EBEBEB"/>
<path d="M82.7972 88.9434H85.998V75.1926H82.7972V88.9434Z" fill="#EBEBEB"/>
<path d="M62.9043 88.3977L66.0586 88.9414L68.3944 75.3905L65.2401 74.8468L62.9043 88.3977Z" fill="#EBEBEB"/>
<path d="M94.3011 88.9473H97.502V77.006H94.3011V88.9473Z" fill="#EBEBEB"/>
<path d="M86.9515 88.9473H90.1523V77.006H86.9515V88.9473Z" fill="#EBEBEB"/>
<path d="M68.391 88.9473H71.5918V77.006H68.391V88.9473Z" fill="#EBEBEB"/>
<path d="M76.0141 88.2509L79.1387 88.9453L81.7293 77.2885L78.6047 76.5941L76.0141 88.2509Z" fill="#EBEBEB"/>
<path d="M91.5363 88.9434H93.1367V74.5097H91.5363V88.9434Z" fill="#EBEBEB"/>
<path d="M72.5129 88.9434H74.1133V74.5097H72.5129V88.9434Z" fill="#EBEBEB"/>
<path d="M48.3532 75.1953H45.1523V88.9461H48.3532V75.1953Z" fill="#EBEBEB"/>
<path d="M52.32 77.0039H49.1191V88.9451H52.32V77.0039Z" fill="#EBEBEB"/>
<path d="M59.6735 77.0039H56.4727V88.9451H59.6735V77.0039Z" fill="#EBEBEB"/>
<path d="M55.0848 74.5117H53.4844V88.9453H55.0848V74.5117Z" fill="#EBEBEB"/>
<path d="M101.466 91.5449H45.1523V107.955H101.466V91.5449Z" fill="#E0E0E0"/>
<path d="M80.6774 94.1973H77.4766V107.948H80.6774V94.1973Z" fill="#EBEBEB"/>
<path d="M98.2383 93.8528L95.084 94.3965L97.4198 107.947L100.574 107.404L98.2383 93.8528Z" fill="#EBEBEB"/>
<path d="M69.1735 96.0117H65.9727V107.953H69.1735V96.0117Z" fill="#EBEBEB"/>
<path d="M76.525 96.0117H73.3242V107.953H76.525V96.0117Z" fill="#EBEBEB"/>
<path d="M95.0856 96.0117H91.8848V107.953H95.0856V96.0117Z" fill="#EBEBEB"/>
<path d="M84.8824 95.5966L81.7578 96.291L84.3485 107.948L87.4731 107.253L84.8824 95.5966Z" fill="#EBEBEB"/>
<path d="M71.9383 93.5137H70.3379V107.947H71.9383V93.5137Z" fill="#EBEBEB"/>
<path d="M90.9637 93.5137H89.3633V107.947H90.9637V93.5137Z" fill="#EBEBEB"/>
<path d="M61.4356 93.8547L58.2812 94.3984L60.617 107.949L63.7713 107.406L61.4356 93.8547Z" fill="#EBEBEB"/>
<path d="M58.2809 96.0117H55.0801V107.953H58.2809V96.0117Z" fill="#EBEBEB"/>
<path d="M48.0797 95.5966L44.9551 96.291L47.5457 107.948L50.6703 107.253L48.0797 95.5966Z" fill="#EBEBEB"/>
<path d="M54.1629 93.5137H52.5625V107.947H54.1629V93.5137Z" fill="#EBEBEB"/>
<path d="M32.5576 139.809H43.0137L43.0137 50.7359H32.5576L32.5576 139.809Z" fill="#E0E0E0"/>
<path d="M139.075 137.483H130.193L134.862 99.4403C134.974 98.6454 135.365 97.9161 135.964 97.3823C136.564 96.8485 137.333 96.5448 138.136 96.5254H176.87L171.19 137.466L139.075 137.483Z" fill="#F5F5F5"/>
<path d="M167.24 137.482H176.121L180.795 99.4391C180.852 99.0734 180.828 98.6997 180.724 98.3443C180.621 97.9889 180.441 97.6606 180.196 97.3825C179.952 97.1044 179.65 96.8834 179.311 96.7351C178.972 96.5868 178.604 96.5148 178.234 96.5243H175.183C174.382 96.5487 173.615 96.8542 173.016 97.3871C172.418 97.92 172.026 98.6464 171.909 99.4391L167.24 137.482Z" fill="#F0F0F0"/>
<path d="M163.973 137.421L165.582 119.027C165.616 118.628 165.786 118.252 166.063 117.963C166.34 117.674 166.708 117.489 167.106 117.439L167.767 117.354C168.301 117.287 168.796 117.038 169.168 116.65C169.54 116.261 169.767 115.756 169.811 115.22L170.106 111.865C170.135 111.54 170.096 111.212 169.991 110.903C169.887 110.594 169.719 110.31 169.498 110.069C169.278 109.828 169.01 109.636 168.711 109.504C168.412 109.372 168.089 109.305 167.763 109.305H182.606C182.933 109.305 183.256 109.372 183.554 109.504C183.853 109.636 184.121 109.828 184.342 110.069C184.562 110.31 184.73 110.594 184.835 110.903C184.939 111.212 184.978 111.54 184.949 111.865L184.655 115.22C184.611 115.756 184.384 116.261 184.011 116.65C183.639 117.038 183.144 117.287 182.61 117.354L181.949 117.439C181.552 117.49 181.184 117.675 180.907 117.964C180.63 118.253 180.46 118.628 180.425 119.027L178.816 137.421C178.759 138.067 178.461 138.669 177.983 139.107C177.504 139.545 176.879 139.789 176.23 139.789H161.387C162.036 139.789 162.661 139.545 163.14 139.107C163.618 138.669 163.915 138.067 163.973 137.421Z" fill="#E6E6E6"/>
<path d="M123.122 114.442C123.005 113.045 122.367 111.744 121.335 110.796C120.304 109.847 118.954 109.321 117.553 109.32H130.476C131.873 109.326 133.218 109.855 134.245 110.803C135.272 111.751 135.906 113.049 136.024 114.442L137.304 129.02H124.398L123.122 114.442Z" fill="#E6E6E6"/>
<path d="M111.811 109.336H117.547C118.948 109.336 120.298 109.863 121.329 110.811C122.361 111.76 122.998 113.061 123.116 114.457L124.396 129.036H155.176L156.456 114.457C156.572 113.064 157.207 111.766 158.234 110.817C159.261 109.869 160.606 109.341 162.004 109.336H167.744C168.071 109.336 168.394 109.404 168.692 109.535C168.991 109.667 169.259 109.859 169.48 110.1C169.7 110.341 169.868 110.625 169.973 110.934C170.077 111.244 170.116 111.571 170.087 111.897L169.793 115.251C169.749 115.787 169.522 116.292 169.149 116.681C168.777 117.07 168.282 117.318 167.748 117.385L167.087 117.47C166.69 117.521 166.322 117.706 166.044 117.995C165.767 118.284 165.597 118.659 165.563 119.058L163.971 137.422C163.914 138.069 163.617 138.67 163.138 139.108C162.659 139.547 162.034 139.79 161.385 139.791H118.187C117.538 139.79 116.913 139.547 116.434 139.108C115.955 138.67 115.658 138.069 115.601 137.422L113.992 119.028C113.956 118.63 113.786 118.255 113.509 117.966C113.232 117.678 112.865 117.492 112.468 117.44L111.807 117.355C111.272 117.288 110.778 117.039 110.405 116.651C110.032 116.262 109.804 115.758 109.758 115.221L109.468 111.867C109.443 111.544 109.485 111.219 109.592 110.914C109.698 110.608 109.867 110.328 110.087 110.09C110.307 109.852 110.574 109.663 110.87 109.533C111.167 109.403 111.487 109.336 111.811 109.336Z" fill="#F0F0F0"/>
<path d="M43.7823 46.2962C43.7823 46.2962 43.3086 43.1765 45.5833 41.1749C47.858 39.1733 47.6574 37.9869 47.0045 37.8332C46.3515 37.6796 45.7583 39.6769 44.7596 40.2275C44.7596 40.2275 44.7255 37.3766 45.7412 36.331C46.7569 35.2854 47.2904 32.5753 46.3216 32.5284C45.3528 32.4815 45.259 34.1331 45.0413 35.3067C44.8236 36.4804 43.761 38.1277 43.761 38.1277C43.761 38.1277 43.5518 35.5671 42.9074 34.53C42.263 33.4929 44 31.0816 43.3342 30.036C42.6684 28.9904 41.4606 30.9835 41.5588 33.2326C41.657 35.4817 43.1592 37.8802 42.8093 40.2275C42.8093 40.2275 42.1477 38.5758 41.5545 38.4265C40.9613 38.2771 40.3596 37.1888 39.9626 36.7834C39.5657 36.3779 39.0621 37.7778 39.9626 39.0752C40.8631 40.3726 43.1592 43.8508 42.8093 46.659L43.7823 46.2962Z" fill="#E6E6E6"/>
<path d="M45.1398 44.875L45.8867 49.5482C45.9403 49.8875 45.9198 50.2344 45.8265 50.565C45.7332 50.8956 45.5694 51.2021 45.3463 51.4633C45.1232 51.7245 44.8462 51.9343 44.5343 52.0781C44.2223 52.222 43.8829 52.2966 43.5394 52.2967H42.7456C42.4021 52.2966 42.0627 52.222 41.7507 52.0781C41.4388 51.9343 41.1617 51.7245 40.9387 51.4633C40.7156 51.2021 40.5517 50.8956 40.4585 50.565C40.3652 50.2344 40.3447 49.8875 40.3983 49.5482L41.1537 44.875H45.1398Z" fill="#E6E6E6"/>
<path d="M89.8271 51.3848H92.1445V41.4195H89.8271V51.3848Z" fill="#EBEBEB"/>
<path d="M78.6201 51.3848H80.9375V41.4195H78.6201V51.3848Z" fill="#EBEBEB"/>
<path d="M64.2046 50.9892L66.4883 51.3828L68.181 41.5624L65.8973 41.1687L64.2046 50.9892Z" fill="#EBEBEB"/>
<path d="M86.956 51.3789H89.2734V42.7281H86.956V51.3789Z" fill="#EBEBEB"/>
<path d="M81.6299 51.3789H83.9473V42.7281H81.6299V51.3789Z" fill="#EBEBEB"/>
<path d="M68.1767 51.3789H70.4941V42.7281H68.1767V51.3789Z" fill="#EBEBEB"/>
<path d="M73.7046 50.88L75.9668 51.3828L77.8436 42.9381L75.5814 42.4353L73.7046 50.88Z" fill="#EBEBEB"/>
<path d="M84.9505 51.3848H86.1113V40.9245H84.9505V51.3848Z" fill="#EBEBEB"/>
<path d="M71.1614 51.3848H72.3223V40.9245H71.1614V51.3848Z" fill="#EBEBEB"/>
<path d="M62.8964 43.4707H51.5996V51.2679H62.8964V43.4707Z" fill="#EBEBEB"/>
<path d="M101.641 46.6641H92.1797V52.4853H101.641V46.6641Z" fill="#EBEBEB"/>
<path d="M99.4302 41.5469H94.6973V47.3681H99.4302V41.5469Z" fill="#EBEBEB"/>
<path d="M178.494 33.8438H167.24V80.738H178.494V33.8438Z" fill="#E0E0E0"/>
<path d="M135.198 80.8672H177.287V33.8491L135.198 33.8491V80.8672Z" fill="#E0E0E0"/>
<path d="M133.84 80.8672H177.508V33.8491L133.84 33.8491V80.8672Z" fill="#F0F0F0"/>
<path d="M135.711 78.7031H175.717V35.3426L135.711 35.3426V78.7031Z" fill="white"/>
<path d="M135.707 78.7031H136.449V35.3426H135.707V78.7031Z" fill="#E0E0E0"/>
<path d="M136.33 66.524V67.6934H175.824V66.524H136.33Z" fill="#E0E0E0"/>
<path d="M135.708 66.5215H176.342V64.5583H135.708V66.5215Z" fill="#F0F0F0"/>
<path d="M106.881 159.002C152.581 159.002 189.628 156.839 189.628 154.171C189.628 151.503 152.581 149.34 106.881 149.34C61.1803 149.34 24.1328 151.503 24.1328 154.171C24.1328 156.839 61.1803 159.002 106.881 159.002Z" fill="#F5F5F5"/>
<path d="M137.586 41.7461H61.2314C59.5061 41.7461 58.1074 43.1448 58.1074 44.8701V134.775C58.1074 136.5 59.5061 137.899 61.2314 137.899H137.586C139.312 137.899 140.71 136.5 140.71 134.775V44.8701C140.71 43.1448 139.312 41.7461 137.586 41.7461Z" fill="#407BFF"/>
<path opacity="0.6" d="M137.586 41.7461H61.2314C59.5061 41.7461 58.1074 43.1448 58.1074 44.8701V134.775C58.1074 136.5 59.5061 137.899 61.2314 137.899H137.586C139.312 137.899 140.71 136.5 140.71 134.775V44.8701C140.71 43.1448 139.312 41.7461 137.586 41.7461Z" fill="white"/>
<path d="M127.33 85.8438H71.4902V95.4036H127.33V85.8438Z" fill="white"/>
<g opacity="0.4">
<path d="M76.4844 91.5545V91.8063H74.5469V89.0664H76.4247V89.3139H74.8371V90.2913H76.254V90.5345H74.8371V91.5545H76.4844Z" fill="#263238"/>
<path d="M76.873 90.625H77.9016V90.864H76.873V90.625Z" fill="#263238"/>
<path d="M81.9167 90.6107V91.8056H81.6393V90.6363C81.6393 90.2095 81.4216 89.979 81.0503 89.979C80.9541 89.9746 80.858 89.9912 80.7688 90.0277C80.6797 90.0642 80.5995 90.1198 80.5341 90.1906C80.4687 90.2613 80.4194 90.3455 80.3899 90.4372C80.3604 90.5289 80.3513 90.626 80.3632 90.7216V91.8056H80.0815V90.6363C80.0815 90.2095 79.8639 89.979 79.4883 89.979C79.3921 89.9746 79.296 89.9912 79.2068 90.0277C79.1176 90.0642 79.0375 90.1198 78.9721 90.1906C78.9066 90.2613 78.8574 90.3455 78.8279 90.4372C78.7984 90.5289 78.7893 90.626 78.8012 90.7216V91.8056H78.5195V89.7443H78.7884V90.1199C78.8689 89.994 78.9811 89.8915 79.1136 89.8226C79.2462 89.7537 79.3945 89.7208 79.5438 89.7272C79.6946 89.7145 79.8457 89.7486 79.9763 89.825C80.1069 89.9014 80.2108 90.0163 80.2736 90.154C80.3589 90.0165 80.4795 89.9043 80.6229 89.8293C80.7662 89.7542 80.9271 89.719 81.0887 89.7272C81.2046 89.7184 81.3209 89.7357 81.4292 89.7778C81.5375 89.8199 81.6349 89.8858 81.7144 89.9706C81.7938 90.0553 81.8532 90.1569 81.8882 90.2676C81.9232 90.3784 81.933 90.4956 81.9167 90.6107Z" fill="#263238"/>
<path d="M84.2304 90.5261V91.8064H83.9615V91.4821C83.8852 91.5975 83.779 91.6902 83.6543 91.7503C83.5296 91.8104 83.391 91.8357 83.2531 91.8235C82.7879 91.8235 82.502 91.5802 82.502 91.226C82.502 90.8718 82.7068 90.6413 83.2958 90.6413H83.9487V90.5176C83.9487 90.1633 83.7524 89.9713 83.3683 89.9713C83.1177 89.9685 82.8742 90.0547 82.6812 90.2146L82.5574 90.0097C82.7986 89.8157 83.1018 89.7157 83.411 89.728C83.5199 89.7148 83.6304 89.7261 83.7344 89.7612C83.8384 89.7963 83.9332 89.8543 84.0118 89.9309C84.0904 90.0074 84.1509 90.1006 84.1887 90.2037C84.2265 90.3067 84.2408 90.4169 84.2304 90.5261ZM83.9487 91.1876V90.8505H83.3043C82.9074 90.8505 82.7751 91.0041 82.7751 91.2175C82.7751 91.4309 82.9671 91.6058 83.2958 91.6058C83.435 91.6151 83.5735 91.5794 83.6911 91.5042C83.8086 91.4289 83.8989 91.318 83.9487 91.1876Z" fill="#263238"/>
<path d="M84.9219 89.0968C84.9224 89.0704 84.9282 89.0444 84.9388 89.0203C84.9494 88.9962 84.9646 88.9744 84.9836 88.9562C85.0027 88.9379 85.0251 88.9236 85.0496 88.9141C85.0742 88.9045 85.1004 88.8999 85.1267 88.9004C85.1525 88.8999 85.1782 88.9044 85.2022 88.9137C85.2262 88.9231 85.2482 88.9371 85.2668 88.9549C85.2854 88.9727 85.3004 88.9941 85.3107 89.0177C85.3211 89.0413 85.3268 89.0667 85.3273 89.0925C85.3279 89.1192 85.3231 89.1457 85.3133 89.1706C85.3035 89.1954 85.2888 89.218 85.2701 89.2371C85.2514 89.2562 85.2291 89.2713 85.2045 89.2817C85.1799 89.292 85.1534 89.2973 85.1267 89.2973C85.1 89.2979 85.0735 89.2931 85.0487 89.2833C85.0238 89.2735 85.0012 89.2588 84.9821 89.2401C84.963 89.2214 84.9479 89.1991 84.9375 89.1745C84.9272 89.1499 84.9219 89.1235 84.9219 89.0968ZM84.9859 89.7455H85.2633V91.8068H84.9859V89.7455Z" fill="#263238"/>
<path d="M86.0352 88.9004H86.3126V91.8067H86.0352V88.9004Z" fill="#263238"/>
</g>
<path d="M127.33 98.9043H71.4902V108.464H127.33V98.9043Z" fill="white"/>
<g opacity="0.4">
<path d="M76.6893 103.076C76.6893 103.661 76.2625 104.015 75.5711 104.015H74.8371V104.869H74.5469V102.129H75.5711C76.2668 102.137 76.6893 102.492 76.6893 103.076ZM76.3991 103.076C76.3991 102.65 76.1131 102.389 75.5455 102.389H74.82V103.759H75.5455C76.1131 103.759 76.3991 103.507 76.3991 103.076Z" fill="#263238"/>
<path d="M78.7949 103.602V104.882H78.526V104.558C78.4496 104.674 78.3435 104.766 78.2188 104.826C78.0941 104.886 77.9554 104.912 77.8175 104.9C77.3523 104.9 77.0664 104.656 77.0664 104.298C77.0664 103.939 77.2713 103.705 77.8602 103.705H78.5132V103.577C78.5132 103.227 78.3126 103.035 77.9285 103.035C77.6791 103.031 77.4368 103.118 77.2457 103.278L77.1176 103.069C77.3608 102.879 77.6629 102.781 77.9712 102.791C78.0816 102.777 78.1939 102.788 78.2994 102.823C78.405 102.859 78.5011 102.918 78.5805 102.996C78.6598 103.074 78.7204 103.169 78.7575 103.274C78.7947 103.379 78.8074 103.491 78.7949 103.602ZM78.5174 104.259V103.922H77.8602C77.4633 103.922 77.3353 104.08 77.3353 104.294C77.3353 104.507 77.5231 104.678 77.8559 104.678C77.9965 104.688 78.1366 104.653 78.2557 104.578C78.3748 104.502 78.4666 104.391 78.5174 104.259Z" fill="#263238"/>
<path d="M79.2617 104.644L79.3855 104.426C79.6008 104.577 79.857 104.657 80.1195 104.657C80.5079 104.657 80.6701 104.525 80.6701 104.32C80.6701 103.782 79.3343 104.205 79.3343 103.394C79.3343 103.057 79.6245 102.805 80.1494 102.805C80.4055 102.802 80.6575 102.869 80.8792 102.997L80.7554 103.219C80.5759 103.1 80.3645 103.039 80.1494 103.044C79.7781 103.044 79.6117 103.189 79.6117 103.385C79.6117 103.94 80.9475 103.522 80.9475 104.311C80.9475 104.67 80.6359 104.9 80.0939 104.9C79.796 104.908 79.5038 104.818 79.2617 104.644Z" fill="#263238"/>
<path d="M81.1758 104.644L81.3038 104.427C81.5166 104.579 81.7721 104.659 82.0336 104.657C82.4262 104.657 82.5841 104.525 82.5841 104.32C82.5841 103.782 81.2526 104.205 81.2526 103.394C81.2526 103.057 81.5428 102.805 82.0635 102.805C82.3197 102.801 82.5719 102.868 82.7933 102.997L82.6738 103.219C82.4925 103.101 82.2798 103.04 82.0635 103.044C81.6922 103.044 81.53 103.189 81.53 103.385C81.53 103.94 82.8658 103.522 82.8658 104.311C82.8658 104.67 82.55 104.9 82.0123 104.9C81.7131 104.907 81.4197 104.818 81.1758 104.644Z" fill="#263238"/>
<path d="M86.3543 102.822L85.5776 104.879H85.3173L84.6856 103.194L84.0369 104.879H83.7766L82.9785 102.822H83.2431L83.8918 104.572L84.5533 102.822H84.7923L85.4496 104.572L86.1025 102.822H86.3543Z" fill="#263238"/>
<path d="M86.5104 103.851C86.5104 103.643 86.5719 103.44 86.6873 103.267C86.8027 103.095 86.9666 102.96 87.1585 102.881C87.3503 102.801 87.5614 102.78 87.765 102.821C87.9687 102.861 88.1558 102.961 88.3026 103.108C88.4494 103.255 88.5494 103.442 88.5899 103.646C88.6304 103.849 88.6096 104.061 88.5302 104.252C88.4507 104.444 88.3162 104.608 88.1435 104.724C87.9709 104.839 87.7679 104.901 87.5602 104.901C87.4211 104.905 87.2824 104.881 87.1529 104.83C87.0234 104.779 86.9057 104.702 86.8073 104.604C86.7088 104.505 86.6316 104.388 86.5806 104.258C86.5295 104.128 86.5056 103.99 86.5104 103.851ZM88.3242 103.851C88.3175 103.7 88.2667 103.555 88.1781 103.433C88.0895 103.311 87.9671 103.218 87.826 103.165C87.685 103.113 87.5315 103.102 87.3847 103.136C87.2379 103.17 87.1042 103.246 87.0004 103.355C86.8965 103.464 86.827 103.601 86.8005 103.75C86.774 103.898 86.7917 104.051 86.8513 104.189C86.911 104.327 87.01 104.445 87.1361 104.528C87.2621 104.61 87.4096 104.654 87.5602 104.653C87.6644 104.655 87.7679 104.635 87.864 104.595C87.9602 104.555 88.0469 104.495 88.1188 104.42C88.1906 104.344 88.246 104.255 88.2813 104.157C88.3167 104.059 88.3313 103.955 88.3242 103.851Z" fill="#263238"/>
<path d="M90.2089 102.805V103.074H90.1407C90.043 103.069 89.9456 103.086 89.8552 103.123C89.7648 103.16 89.6838 103.217 89.6178 103.289C89.5518 103.361 89.5025 103.447 89.4733 103.54C89.4442 103.634 89.436 103.732 89.4493 103.829V104.879H89.1719V102.822H89.4365V103.223C89.5084 103.084 89.6206 102.97 89.7583 102.895C89.8961 102.82 90.0531 102.789 90.2089 102.805Z" fill="#263238"/>
<path d="M92.5707 101.998V104.9H92.3061V104.495C92.2232 104.63 92.1061 104.74 91.9667 104.815C91.8273 104.89 91.6705 104.927 91.5123 104.921C91.2459 104.904 90.9961 104.787 90.8135 104.592C90.6309 104.397 90.5293 104.141 90.5293 103.874C90.5293 103.607 90.6309 103.35 90.8135 103.155C90.9961 102.961 91.2459 102.843 91.5123 102.826C91.6684 102.823 91.8227 102.86 91.9598 102.935C92.0969 103.01 92.2119 103.119 92.2933 103.253V101.998H92.5707ZM92.2975 103.872C92.2908 103.721 92.2401 103.576 92.1515 103.454C92.0629 103.332 91.9405 103.239 91.7994 103.186C91.6583 103.134 91.5049 103.123 91.3581 103.157C91.2113 103.191 91.0776 103.267 90.9737 103.376C90.8699 103.485 90.8004 103.622 90.7739 103.771C90.7474 103.919 90.7651 104.072 90.8247 104.21C90.8844 104.348 90.9834 104.466 91.1094 104.549C91.2355 104.631 91.383 104.675 91.5336 104.674C91.6397 104.676 91.7451 104.656 91.8429 104.615C91.9406 104.573 92.0285 104.512 92.1007 104.434C92.1728 104.356 92.2277 104.264 92.2616 104.163C92.2956 104.063 92.3078 103.956 92.2975 103.85V103.872Z" fill="#263238"/>
</g>
<path opacity="0.2" d="M127.33 118.215H71.4902V127.775H127.33V118.215Z" fill="black"/>
<g opacity="0.5">
<path d="M85.074 113.827H84.1607L83.9644 114.254H83.7852L84.532 112.619H84.7027L85.4496 114.254H85.2703L85.074 113.827ZM85.01 113.686L84.6174 112.807L84.2247 113.686H85.01Z" fill="black"/>
<path d="M85.6875 112.527H85.8539V114.26H85.6875V112.527Z" fill="black"/>
<path d="M86.9406 113.024V113.186H86.8979C86.8383 113.181 86.7784 113.189 86.7225 113.21C86.6666 113.232 86.6163 113.265 86.5752 113.309C86.5342 113.352 86.5035 113.405 86.4855 113.462C86.4675 113.519 86.4626 113.579 86.4711 113.638V114.266H86.3047V113.036H86.4669V113.275C86.5097 113.189 86.5784 113.119 86.6633 113.073C86.7483 113.028 86.8452 113.011 86.9406 113.024Z" fill="black"/>
<path d="M88.2968 113.698H87.2512C87.2544 113.758 87.2695 113.816 87.2956 113.87C87.3217 113.924 87.3582 113.972 87.4031 114.012C87.448 114.052 87.5003 114.082 87.557 114.102C87.6137 114.121 87.6737 114.129 87.7334 114.125C87.8044 114.127 87.875 114.114 87.9405 114.087C88.0061 114.06 88.065 114.019 88.1133 113.967L88.2029 114.073C88.1147 114.166 88.0011 114.231 87.8763 114.259C87.7516 114.287 87.6213 114.278 87.5018 114.232C87.3823 114.187 87.279 114.107 87.2048 114.003C87.1305 113.898 87.0888 113.775 87.0847 113.647C87.0806 113.566 87.0932 113.485 87.1217 113.408C87.1503 113.332 87.1941 113.263 87.2505 113.205C87.3069 113.146 87.3747 113.1 87.4497 113.069C87.5247 113.038 87.6053 113.022 87.6865 113.024C87.7677 113.022 87.8484 113.037 87.9235 113.068C87.9986 113.099 88.0664 113.145 88.1226 113.203C88.1788 113.262 88.2222 113.332 88.25 113.408C88.2778 113.484 88.2893 113.566 88.284 113.647C88.284 113.647 88.2968 113.681 88.2968 113.698ZM87.2683 113.574H88.1218C88.1218 113.461 88.0768 113.352 87.9968 113.272C87.9168 113.192 87.8082 113.147 87.695 113.147C87.5818 113.147 87.4733 113.192 87.3933 113.272C87.3132 113.352 87.2683 113.461 87.2683 113.574Z" fill="black"/>
<path d="M89.5299 113.523V114.283H89.3848V114.091C89.3395 114.161 89.2757 114.217 89.2003 114.254C89.125 114.29 89.0411 114.304 88.958 114.296C88.6806 114.296 88.5312 114.151 88.5312 113.937C88.5312 113.724 88.6507 113.587 89.005 113.587H89.3848V113.515C89.3848 113.306 89.2653 113.19 89.0348 113.19C88.8796 113.185 88.7276 113.236 88.6081 113.335L88.5355 113.212C88.677 113.099 88.8539 113.04 89.0348 113.045C89.1009 113.034 89.1687 113.038 89.2327 113.058C89.2967 113.078 89.3552 113.112 89.4034 113.159C89.4516 113.205 89.4882 113.263 89.5102 113.326C89.5322 113.389 89.5389 113.457 89.5299 113.523ZM89.3677 113.916V113.711H88.9794C88.7404 113.711 88.6635 113.805 88.6635 113.933C88.6635 114.061 88.7788 114.163 88.9751 114.163C89.0635 114.17 89.1517 114.147 89.2258 114.099C89.2999 114.05 89.3558 113.978 89.3848 113.894L89.3677 113.916Z" fill="black"/>
<path d="M91.0921 112.527V114.26H90.9342V114.017C90.8857 114.098 90.816 114.165 90.7326 114.21C90.6492 114.255 90.5552 114.277 90.4604 114.273C90.3035 114.26 90.1572 114.188 90.0506 114.073C89.944 113.957 89.8848 113.805 89.8848 113.648C89.8848 113.49 89.944 113.339 90.0506 113.223C90.1572 113.107 90.3035 113.035 90.4604 113.022C90.5529 113.02 90.6444 113.041 90.7265 113.083C90.8087 113.126 90.8786 113.189 90.9299 113.266V112.527H91.0921ZM90.9299 113.645C90.9257 113.556 90.8954 113.47 90.8428 113.398C90.7901 113.326 90.7174 113.27 90.6337 113.239C90.55 113.208 90.4589 113.202 90.3718 113.222C90.2846 113.242 90.2053 113.287 90.1435 113.351C90.0818 113.416 90.0404 113.497 90.0244 113.585C90.0085 113.673 90.0187 113.764 90.0538 113.846C90.0889 113.928 90.1473 113.998 90.2219 114.048C90.2964 114.097 90.3838 114.123 90.4732 114.123C90.5368 114.127 90.6004 114.117 90.6599 114.095C90.7194 114.072 90.7733 114.037 90.8182 113.992C90.863 113.946 90.8977 113.892 90.9199 113.832C90.9421 113.773 90.9513 113.709 90.947 113.645H90.9299Z" fill="black"/>
<path d="M92.6077 113.031L91.9931 114.41C91.8907 114.649 91.7584 114.726 91.5663 114.726C91.4561 114.729 91.3491 114.689 91.2676 114.615L91.3444 114.491C91.4044 114.551 91.4857 114.585 91.5706 114.585C91.6815 114.585 91.7541 114.534 91.8267 114.376L91.8779 114.26L91.3273 113.031H91.5194L91.9846 114.077L92.4455 113.031H92.6077Z" fill="black"/>
<path d="M94.3806 113.523V114.283H94.2227V114.091C94.1774 114.161 94.1136 114.217 94.0382 114.254C93.9629 114.29 93.879 114.304 93.7959 114.296C93.5185 114.296 93.3691 114.151 93.3691 113.937C93.3691 113.724 93.4886 113.587 93.8429 113.587H94.2312V113.515C94.2312 113.306 94.116 113.19 93.8855 113.19C93.7303 113.185 93.5783 113.236 93.4588 113.335L93.3819 113.212C93.5251 113.099 93.7033 113.04 93.8855 113.045C93.9516 113.034 94.0194 113.038 94.0834 113.058C94.1474 113.078 94.2059 113.112 94.2541 113.159C94.3023 113.205 94.3389 113.263 94.3609 113.326C94.3829 113.389 94.3896 113.457 94.3806 113.523ZM94.2142 113.916V113.711H93.8301C93.5911 113.711 93.5142 113.805 93.5142 113.933C93.5142 114.061 93.6295 114.163 93.8258 114.163C93.9109 114.167 93.9949 114.142 94.0649 114.094C94.135 114.045 94.1874 113.975 94.2142 113.894V113.916Z" fill="black"/>
<path d="M97.4946 113.547V114.26H97.3324V113.564C97.3324 113.304 97.2001 113.172 96.9782 113.172C96.921 113.167 96.8635 113.175 96.8097 113.195C96.7559 113.215 96.707 113.246 96.6664 113.287C96.6259 113.327 96.5946 113.376 96.5747 113.43C96.5549 113.484 96.5469 113.541 96.5514 113.598V114.243H96.3892V113.564C96.3892 113.304 96.2569 113.172 96.0307 113.172C95.9735 113.167 95.9161 113.175 95.8622 113.195C95.8084 113.215 95.7595 113.246 95.719 113.287C95.6784 113.327 95.6471 113.376 95.6273 113.43C95.6074 113.484 95.5995 113.541 95.6039 113.598V114.243H95.4375V113.014H95.5954V113.24C95.6424 113.163 95.7094 113.101 95.7891 113.06C95.8688 113.019 95.9582 113 96.0478 113.005C96.1373 112.998 96.2267 113.02 96.3033 113.066C96.3799 113.113 96.4398 113.183 96.4746 113.266C96.5242 113.182 96.5958 113.113 96.6816 113.068C96.7673 113.022 96.864 113 96.9611 113.005C97.0348 112.992 97.1107 112.997 97.182 113.02C97.2534 113.042 97.3181 113.082 97.3707 113.136C97.4232 113.189 97.462 113.254 97.4835 113.326C97.5051 113.398 97.5089 113.474 97.4946 113.547Z" fill="black"/>
<path d="M99.0036 113.698H97.9751C97.9839 113.818 98.0398 113.931 98.1309 114.011C98.2219 114.091 98.3407 114.131 98.4616 114.124C98.532 114.127 98.602 114.114 98.6669 114.087C98.7318 114.06 98.7899 114.019 98.8372 113.966L98.9311 114.073C98.8711 114.139 98.7978 114.19 98.716 114.225C98.6343 114.26 98.5461 114.276 98.4574 114.274C98.3728 114.279 98.288 114.267 98.2085 114.237C98.129 114.208 98.0565 114.162 97.9958 114.103C97.9351 114.044 97.8874 113.973 97.8559 113.894C97.8244 113.815 97.8098 113.731 97.8129 113.646C97.8129 113.488 97.8759 113.336 97.9879 113.224C98.1 113.112 98.2519 113.049 98.4104 113.049C98.5689 113.049 98.7208 113.112 98.8329 113.224C98.9449 113.336 99.0079 113.488 99.0079 113.646C99.0079 113.646 99.0036 113.68 99.0036 113.698ZM97.9751 113.574H98.85C98.85 113.458 98.8039 113.346 98.7219 113.264C98.6398 113.182 98.5286 113.136 98.4125 113.136C98.2965 113.136 98.1853 113.182 98.1032 113.264C98.0212 113.346 97.9751 113.458 97.9751 113.574Z" fill="black"/>
<path d="M101.377 113.547V114.26H101.211V113.564C101.211 113.304 101.083 113.172 100.861 113.172C100.804 113.166 100.746 113.174 100.692 113.193C100.637 113.213 100.588 113.244 100.548 113.285C100.507 113.326 100.476 113.375 100.456 113.429C100.436 113.483 100.429 113.541 100.434 113.598V114.243H100.268V113.564C100.268 113.304 100.14 113.172 99.9135 113.172C99.8562 113.166 99.7984 113.174 99.7442 113.193C99.69 113.213 99.6409 113.244 99.6001 113.285C99.5594 113.326 99.5281 113.375 99.5085 113.429C99.4889 113.483 99.4815 113.541 99.4868 113.598V114.243H99.3203V113.014H99.4782V113.24C99.5249 113.163 99.5918 113.101 99.6716 113.059C99.7513 113.018 99.8409 112.999 99.9306 113.005C100.02 112.998 100.109 113.02 100.186 113.066C100.263 113.113 100.323 113.183 100.357 113.266C100.407 113.182 100.479 113.113 100.564 113.068C100.65 113.022 100.747 113 100.844 113.005C100.918 112.992 100.993 112.997 101.065 113.02C101.136 113.042 101.201 113.082 101.253 113.136C101.306 113.189 101.345 113.254 101.366 113.326C101.388 113.398 101.392 113.474 101.377 113.547Z" fill="black"/>
<path d="M103.076 113.645C103.08 113.728 103.068 113.81 103.039 113.886C103.01 113.963 102.965 114.033 102.908 114.092C102.851 114.151 102.782 114.197 102.706 114.229C102.63 114.26 102.548 114.275 102.466 114.273C102.371 114.277 102.277 114.255 102.194 114.21C102.11 114.165 102.041 114.098 101.992 114.017V114.26H101.83V112.527H101.997V113.266C102.047 113.188 102.117 113.125 102.2 113.083C102.282 113.04 102.373 113.019 102.466 113.022C102.548 113.02 102.629 113.034 102.705 113.065C102.781 113.096 102.85 113.142 102.908 113.2C102.965 113.259 103.01 113.329 103.039 113.405C103.068 113.482 103.08 113.564 103.076 113.645ZM102.91 113.645C102.906 113.556 102.875 113.47 102.823 113.398C102.77 113.326 102.697 113.27 102.614 113.239C102.53 113.208 102.439 113.202 102.352 113.222C102.265 113.242 102.185 113.287 102.123 113.351C102.062 113.416 102.02 113.497 102.004 113.585C101.988 113.673 101.999 113.764 102.034 113.846C102.069 113.928 102.127 113.998 102.202 114.048C102.276 114.097 102.364 114.123 102.453 114.123C102.515 114.125 102.577 114.113 102.635 114.089C102.692 114.066 102.744 114.03 102.787 113.985C102.83 113.94 102.863 113.887 102.884 113.828C102.905 113.77 102.914 113.708 102.91 113.645Z" fill="black"/>
<path d="M104.488 113.697H103.468C103.472 113.757 103.487 113.816 103.513 113.87C103.539 113.924 103.575 113.972 103.62 114.012C103.665 114.051 103.717 114.082 103.774 114.101C103.831 114.12 103.891 114.128 103.951 114.124C104.022 114.124 104.092 114.108 104.156 114.078C104.22 114.048 104.277 114.004 104.322 113.949L104.416 114.056C104.328 114.149 104.214 114.213 104.089 114.241C103.964 114.269 103.834 114.26 103.715 114.215C103.595 114.169 103.492 114.089 103.418 113.985C103.343 113.881 103.302 113.757 103.298 113.629C103.294 113.548 103.306 113.467 103.335 113.391C103.363 113.315 103.407 113.246 103.463 113.187C103.52 113.129 103.588 113.082 103.663 113.051C103.738 113.02 103.818 113.005 103.899 113.006C103.98 113.004 104.061 113.019 104.136 113.05C104.211 113.081 104.278 113.127 104.334 113.186C104.39 113.245 104.433 113.315 104.46 113.391C104.488 113.467 104.499 113.548 104.493 113.629L104.488 113.697ZM103.46 113.574H104.313C104.313 113.46 104.268 113.352 104.188 113.272C104.108 113.192 104 113.147 103.887 113.147C103.773 113.147 103.665 113.192 103.585 113.272C103.505 113.352 103.46 113.46 103.46 113.574Z" fill="black"/>
<path d="M105.446 113.023V113.185H105.408C105.348 113.18 105.288 113.189 105.232 113.21C105.176 113.231 105.126 113.265 105.085 113.308C105.044 113.352 105.013 113.404 104.995 113.461C104.977 113.518 104.972 113.579 104.981 113.638V114.265H104.814V113.036H104.972V113.275C105.016 113.189 105.084 113.119 105.169 113.074C105.254 113.029 105.351 113.011 105.446 113.023Z" fill="black"/>
<path d="M106.524 113.046C106.524 112.875 106.387 112.76 106.148 112.76C106.064 112.755 105.98 112.77 105.902 112.802C105.825 112.835 105.755 112.884 105.7 112.948L105.576 112.854C105.649 112.772 105.739 112.707 105.841 112.665C105.942 112.623 106.051 112.604 106.161 112.611C106.489 112.611 106.699 112.768 106.699 113.037C106.699 113.434 106.272 113.464 106.272 113.788H106.097C106.097 113.387 106.524 113.349 106.524 113.046ZM106.063 114.151C106.068 114.123 106.083 114.097 106.105 114.079C106.128 114.06 106.155 114.05 106.184 114.05C106.213 114.05 106.241 114.06 106.263 114.079C106.286 114.097 106.301 114.123 106.306 114.151C106.309 114.169 106.309 114.188 106.304 114.205C106.3 114.223 106.291 114.239 106.28 114.253C106.268 114.267 106.253 114.278 106.237 114.286C106.22 114.294 106.203 114.298 106.184 114.298C106.166 114.298 106.148 114.294 106.132 114.286C106.115 114.278 106.101 114.267 106.089 114.253C106.077 114.239 106.069 114.223 106.065 114.205C106.06 114.188 106.059 114.169 106.063 114.151Z" fill="black"/>
<path d="M107.68 112.627H108.06V113.95H108.879V114.257H107.68V112.627Z" fill="black"/>
<path d="M108.966 113.632C108.958 113.494 108.991 113.357 109.061 113.237C109.132 113.118 109.237 113.023 109.362 112.964C109.487 112.905 109.628 112.885 109.764 112.907C109.901 112.929 110.028 112.991 110.129 113.086C110.23 113.18 110.301 113.303 110.331 113.438C110.361 113.574 110.35 113.715 110.299 113.844C110.249 113.972 110.16 114.083 110.046 114.161C109.931 114.239 109.796 114.281 109.658 114.281C109.569 114.287 109.48 114.275 109.396 114.245C109.312 114.215 109.236 114.168 109.171 114.107C109.106 114.046 109.055 113.973 109.019 113.891C108.984 113.809 108.966 113.721 108.966 113.632ZM109.978 113.632C109.973 113.571 109.95 113.511 109.912 113.462C109.874 113.413 109.822 113.376 109.763 113.356C109.705 113.335 109.641 113.332 109.581 113.348C109.521 113.363 109.466 113.395 109.424 113.441C109.381 113.486 109.353 113.543 109.343 113.604C109.333 113.666 109.34 113.729 109.365 113.786C109.39 113.843 109.431 113.891 109.483 113.926C109.535 113.96 109.595 113.978 109.658 113.978C109.702 113.979 109.746 113.97 109.787 113.953C109.828 113.936 109.865 113.91 109.895 113.877C109.925 113.844 109.948 113.806 109.962 113.764C109.977 113.721 109.982 113.677 109.978 113.632Z" fill="black"/>
<path d="M111.887 113V114.05C111.899 114.144 111.889 114.24 111.857 114.329C111.825 114.419 111.773 114.5 111.705 114.566C111.637 114.632 111.554 114.682 111.464 114.711C111.373 114.74 111.277 114.747 111.183 114.732C110.963 114.741 110.747 114.68 110.564 114.557L110.709 114.297C110.834 114.386 110.983 114.435 111.136 114.438C111.392 114.438 111.507 114.323 111.507 114.096V114.041C111.456 114.094 111.394 114.136 111.326 114.163C111.258 114.19 111.184 114.202 111.11 114.199C111.026 114.206 110.942 114.195 110.862 114.168C110.782 114.141 110.709 114.097 110.646 114.04C110.584 113.983 110.535 113.913 110.501 113.836C110.467 113.759 110.449 113.675 110.449 113.591C110.449 113.506 110.467 113.423 110.501 113.345C110.535 113.268 110.584 113.199 110.646 113.142C110.709 113.084 110.782 113.041 110.862 113.013C110.942 112.986 111.026 112.976 111.11 112.983C111.191 112.976 111.271 112.989 111.346 113.02C111.42 113.051 111.486 113.1 111.537 113.162V113H111.887ZM111.529 113.593C111.53 113.55 111.522 113.508 111.506 113.468C111.49 113.428 111.465 113.393 111.434 113.363C111.403 113.334 111.366 113.311 111.326 113.297C111.286 113.283 111.243 113.278 111.2 113.281C111.156 113.276 111.112 113.28 111.07 113.294C111.028 113.307 110.99 113.329 110.957 113.358C110.924 113.387 110.898 113.423 110.879 113.463C110.861 113.503 110.852 113.547 110.852 113.591C110.852 113.635 110.861 113.678 110.879 113.718C110.898 113.758 110.924 113.794 110.957 113.824C110.99 113.853 111.028 113.875 111.07 113.888C111.112 113.901 111.156 113.905 111.2 113.9C111.242 113.904 111.285 113.898 111.325 113.885C111.365 113.871 111.402 113.849 111.433 113.82C111.464 113.791 111.488 113.755 111.505 113.716C111.521 113.677 111.529 113.635 111.529 113.593Z" fill="black"/>
<path d="M112.857 112.626C112.858 112.597 112.864 112.569 112.876 112.543C112.888 112.517 112.905 112.494 112.926 112.474C112.947 112.455 112.972 112.441 112.999 112.431C113.026 112.422 113.055 112.419 113.084 112.421C113.112 112.418 113.14 112.421 113.167 112.429C113.193 112.438 113.218 112.452 113.239 112.47C113.261 112.488 113.278 112.511 113.29 112.536C113.302 112.562 113.309 112.589 113.31 112.617C113.31 112.677 113.286 112.735 113.244 112.777C113.201 112.82 113.144 112.844 113.084 112.844C113.024 112.844 112.966 112.82 112.924 112.777C112.881 112.735 112.857 112.677 112.857 112.617V112.626ZM112.9 113.001H113.263V114.282H112.9V113.001Z" fill="black"/>
<path d="M114.88 113.52V114.242H114.518V113.58C114.518 113.375 114.424 113.281 114.261 113.281C114.099 113.281 113.958 113.388 113.958 113.619V114.242H113.596V112.961H113.946V113.111C114.001 113.054 114.067 113.01 114.141 112.981C114.215 112.952 114.294 112.94 114.372 112.944C114.446 112.941 114.52 112.954 114.588 112.982C114.656 113.011 114.716 113.055 114.765 113.11C114.814 113.165 114.85 113.231 114.87 113.302C114.89 113.373 114.893 113.448 114.88 113.52Z" fill="black"/>
</g>
<path d="M127.33 117.631H71.4902V127.191H127.33V117.631Z" fill="#407BFF"/>
<path d="M92.1993 123.898L91.5164 122.912H91.3116H90.5007V123.906H90.0312V120.633H91.3116C92.1651 120.633 92.673 121.06 92.673 121.777C92.6838 122.004 92.6194 122.228 92.4898 122.415C92.3601 122.601 92.1725 122.74 91.956 122.809L92.7328 123.906L92.1993 123.898ZM92.1993 121.764C92.1993 121.294 91.8877 121.03 91.286 121.03H90.4922V122.502H91.286C91.8749 122.506 92.1865 122.233 92.1865 121.768L92.1993 121.764Z" fill="white"/>
<path d="M95.5794 122.808H93.5693C93.6009 123.019 93.7105 123.211 93.8764 123.345C94.0423 123.479 94.2525 123.547 94.4656 123.533C94.5995 123.538 94.733 123.514 94.8567 123.463C94.9805 123.411 95.0916 123.333 95.1825 123.235L95.4301 123.525C95.2474 123.71 95.0152 123.839 94.7612 123.896C94.5072 123.952 94.2422 123.935 93.9981 123.845C93.7539 123.755 93.5409 123.596 93.3846 123.388C93.2284 123.18 93.1354 122.931 93.1169 122.671C93.1081 122.504 93.1339 122.336 93.193 122.179C93.252 122.022 93.3429 121.879 93.4599 121.759C93.577 121.638 93.7177 121.544 93.8731 121.48C94.0285 121.417 94.1954 121.387 94.3631 121.391C94.53 121.386 94.696 121.417 94.8504 121.48C95.0048 121.544 95.1442 121.639 95.2596 121.76C95.375 121.88 95.4638 122.024 95.5204 122.181C95.5769 122.338 95.6 122.505 95.588 122.671C95.588 122.71 95.5837 122.765 95.5794 122.808ZM93.5693 122.484H95.1569C95.1366 122.287 95.0441 122.105 94.8975 121.973C94.7509 121.841 94.5605 121.768 94.3631 121.768C94.1657 121.768 93.9753 121.841 93.8287 121.973C93.6821 122.105 93.5897 122.287 93.5693 122.484Z" fill="white"/>
<path d="M98.5816 121.422V123.556C98.5816 124.431 98.1335 124.836 97.3012 124.836C96.8766 124.855 96.4587 124.725 96.1191 124.469L96.3324 124.124C96.6056 124.336 96.9427 124.449 97.2884 124.444C97.8731 124.444 98.142 124.175 98.142 123.612V123.415C98.0316 123.542 97.8941 123.642 97.7397 123.709C97.5853 123.775 97.418 123.806 97.25 123.799C96.932 123.799 96.6269 123.673 96.402 123.448C96.1771 123.223 96.0508 122.918 96.0508 122.6C96.0508 122.282 96.1771 121.977 96.402 121.752C96.6269 121.527 96.932 121.401 97.25 121.401C97.4257 121.396 97.6001 121.431 97.7594 121.505C97.9187 121.58 98.0585 121.69 98.1676 121.828V121.444L98.5816 121.422ZM98.1548 122.596C98.1642 122.425 98.1222 122.256 98.0343 122.11C97.9464 121.963 97.8166 121.847 97.6617 121.775C97.5068 121.703 97.3339 121.679 97.1654 121.706C96.9968 121.734 96.8404 121.811 96.7163 121.929C96.5922 122.046 96.5061 122.198 96.4692 122.364C96.4322 122.531 96.4462 122.705 96.5092 122.864C96.5722 123.023 96.6813 123.159 96.8225 123.255C96.9637 123.351 97.1305 123.402 97.3012 123.402C97.4104 123.409 97.5198 123.393 97.6225 123.355C97.7252 123.317 97.8189 123.259 97.8979 123.183C97.9768 123.107 98.0393 123.016 98.0813 122.915C98.1233 122.814 98.1439 122.705 98.142 122.596H98.1548Z" fill="white"/>
<path d="M99.3613 120.654C99.3619 120.615 99.3702 120.576 99.3857 120.54C99.4012 120.504 99.4237 120.471 99.4518 120.444C99.48 120.417 99.5132 120.395 99.5497 120.381C99.5861 120.366 99.6251 120.359 99.6643 120.36C99.7057 120.355 99.7476 120.358 99.7874 120.371C99.8272 120.383 99.8639 120.404 99.895 120.432C99.9262 120.459 99.9512 120.493 99.9683 120.531C99.9854 120.569 99.9942 120.61 99.9942 120.652C99.9942 120.694 99.9854 120.735 99.9683 120.773C99.9512 120.811 99.9262 120.845 99.895 120.872C99.8639 120.9 99.8272 120.921 99.7874 120.933C99.7476 120.945 99.7057 120.949 99.6643 120.944C99.6253 120.945 99.5864 120.939 99.55 120.925C99.5136 120.911 99.4803 120.89 99.4521 120.863C99.4239 120.836 99.4013 120.803 99.3858 120.767C99.3702 120.732 99.3619 120.693 99.3613 120.654ZM99.4424 121.422H99.8905V123.898H99.4424V121.422Z" fill="white"/>
<path d="M100.432 123.635L100.619 123.281C100.874 123.446 101.17 123.535 101.473 123.537C101.9 123.537 102.062 123.409 102.062 123.2C102.062 122.645 100.496 123.127 100.496 122.137C100.496 121.711 100.893 121.395 101.528 121.395C101.843 121.39 102.154 121.468 102.429 121.621L102.237 121.975C102.024 121.841 101.776 121.773 101.524 121.779C101.132 121.779 100.94 121.924 100.94 122.12C100.94 122.705 102.51 122.227 102.51 123.191C102.51 123.618 102.083 123.926 101.439 123.926C101.082 123.931 100.731 123.83 100.432 123.635Z" fill="white"/>
<path d="M104.481 123.763C104.325 123.882 104.134 123.943 103.939 123.938C103.833 123.95 103.727 123.938 103.626 123.904C103.526 123.869 103.435 123.812 103.36 123.738C103.284 123.663 103.227 123.573 103.191 123.473C103.155 123.373 103.142 123.267 103.153 123.161V121.8H102.727V121.433H103.153V120.891H103.58V121.433H104.318V121.8H103.606V123.144C103.596 123.199 103.598 123.255 103.614 123.309C103.629 123.363 103.657 123.412 103.694 123.454C103.732 123.495 103.778 123.527 103.83 123.547C103.882 123.568 103.938 123.576 103.994 123.571C104.12 123.572 104.243 123.532 104.344 123.456L104.481 123.763Z" fill="white"/>
<path d="M107.17 122.808H105.172C105.204 123.02 105.314 123.212 105.481 123.346C105.648 123.481 105.859 123.548 106.073 123.533C106.206 123.538 106.339 123.514 106.462 123.463C106.585 123.411 106.696 123.333 106.786 123.235L107.033 123.525C106.851 123.711 106.619 123.84 106.365 123.897C106.111 123.954 105.846 123.936 105.602 123.846C105.358 123.756 105.146 123.597 104.99 123.388C104.834 123.18 104.742 122.931 104.724 122.671C104.715 122.504 104.741 122.336 104.8 122.179C104.859 122.022 104.95 121.879 105.067 121.759C105.184 121.638 105.325 121.544 105.481 121.48C105.636 121.417 105.803 121.387 105.971 121.391C106.137 121.387 106.303 121.418 106.457 121.482C106.611 121.545 106.75 121.64 106.865 121.761C106.981 121.881 107.07 122.025 107.126 122.181C107.183 122.338 107.207 122.505 107.195 122.671C107.191 122.718 107.182 122.763 107.17 122.808ZM105.172 122.484H106.764C106.74 122.29 106.645 122.112 106.499 121.983C106.352 121.854 106.164 121.782 105.968 121.782C105.773 121.782 105.585 121.854 105.438 121.983C105.292 122.112 105.197 122.29 105.172 122.484Z" fill="white"/>
<path d="M109.136 121.395V121.822H109.034C108.923 121.814 108.812 121.831 108.708 121.873C108.605 121.914 108.512 121.978 108.437 122.06C108.362 122.142 108.306 122.24 108.274 122.347C108.243 122.453 108.235 122.566 108.253 122.675V123.909H107.805V121.434H108.231V121.86C108.322 121.704 108.455 121.577 108.615 121.495C108.776 121.412 108.957 121.378 109.136 121.395Z" fill="white"/>
<g opacity="0.6">
<path d="M89.6348 52.3261L89.8268 51.9249C90.158 52.2026 90.5769 52.3538 91.009 52.3517C91.6278 52.3517 91.8924 52.1127 91.8924 51.8012C91.8924 50.9476 89.7244 51.4768 89.7244 50.1495C89.7244 49.5947 90.1512 49.1253 91.0943 49.1253C91.5007 49.1187 91.9005 49.2282 92.2466 49.4411L92.0759 49.8679C91.7828 49.6802 91.4424 49.5796 91.0943 49.5777C90.4841 49.5777 90.2408 49.8337 90.2408 50.1453C90.2408 50.9988 92.4131 50.4696 92.4131 51.7884C92.4131 52.3346 91.9863 52.8041 91.0261 52.8041C90.5203 52.8147 90.0272 52.6453 89.6348 52.3261Z" fill="#263238"/>
<path d="M92.9863 49.1817C92.9869 49.1387 92.996 49.0963 93.013 49.0569C93.0301 49.0174 93.0549 48.9818 93.0858 48.952C93.1168 48.9222 93.1534 48.8989 93.1935 48.8834C93.2335 48.8679 93.2763 48.8605 93.3192 48.8616C93.3616 48.8599 93.4039 48.8666 93.4437 48.8814C93.4834 48.8962 93.5199 48.9187 93.5508 48.9477C93.5818 48.9767 93.6067 49.0116 93.6241 49.0503C93.6415 49.089 93.651 49.1307 93.6521 49.1731C93.6521 49.2614 93.617 49.3461 93.5546 49.4085C93.4922 49.4709 93.4075 49.506 93.3192 49.506C93.2309 49.506 93.1463 49.4709 93.0838 49.4085C93.0214 49.3461 92.9863 49.2614 92.9863 49.1731V49.1817ZM93.0717 50.0352H93.5667V52.7495H93.0717V50.0352Z" fill="#263238"/>
<path d="M97.0943 50.0231V52.3661C97.0943 53.3264 96.6078 53.7617 95.6902 53.7617C95.2297 53.7763 94.778 53.6332 94.4099 53.3562L94.6446 52.9764C94.9418 53.2115 95.3112 53.3367 95.6902 53.3306C96.3304 53.3306 96.6206 53.0319 96.6206 52.4173V52.2039C96.4998 52.3434 96.3493 52.4542 96.1802 52.528C96.0111 52.6018 95.8277 52.6369 95.6433 52.6307C95.4646 52.6409 95.2858 52.6145 95.1177 52.5532C94.9496 52.4918 94.7958 52.3968 94.6658 52.274C94.5357 52.1511 94.4321 52.003 94.3613 51.8387C94.2904 51.6743 94.2539 51.4973 94.2539 51.3184C94.2539 51.1395 94.2904 50.9624 94.3613 50.7981C94.4321 50.6338 94.5357 50.4857 94.6658 50.3628C94.7958 50.2399 94.9496 50.1449 95.1177 50.0836C95.2858 50.0222 95.4646 49.9958 95.6433 50.006C95.8319 49.9962 96.0202 50.0296 96.194 50.1035C96.3678 50.1775 96.5225 50.2901 96.6462 50.4328V50.006L97.0943 50.0231ZM96.6163 51.3034C96.6257 51.1169 96.5789 50.9318 96.4821 50.772C96.3853 50.6123 96.2428 50.4852 96.0731 50.4072C95.9033 50.3292 95.7141 50.3039 95.5298 50.3345C95.3455 50.3651 95.1746 50.4502 95.0392 50.5788C94.9037 50.7075 94.8099 50.8737 94.7699 51.0562C94.7299 51.2387 94.7454 51.4289 94.8146 51.6025C94.8837 51.776 95.0033 51.9248 95.1579 52.0298C95.3124 52.1347 95.4949 52.1909 95.6817 52.1911C95.8038 52.2019 95.9268 52.1869 96.0428 52.1473C96.1587 52.1077 96.2652 52.0442 96.3552 51.961C96.4452 51.8778 96.5168 51.7767 96.5655 51.6642C96.6141 51.5517 96.6387 51.4303 96.6376 51.3077L96.6163 51.3034Z" fill="#263238"/>
<path d="M100.61 51.1741V52.7361H100.115V51.2125C100.115 50.679 99.8506 50.4187 99.3854 50.4187C99.2672 50.411 99.1487 50.4294 99.0385 50.4726C98.9282 50.5158 98.8288 50.5827 98.7473 50.6687C98.6658 50.7546 98.6043 50.8575 98.5671 50.9699C98.5298 51.0823 98.5178 51.2016 98.5318 51.3192V52.719H98.041V50.0047H98.5147V50.4315C98.6312 50.2869 98.7809 50.1726 98.9511 50.0983C99.1212 50.0239 99.3068 49.9919 99.4921 50.0047C99.646 49.9944 99.8004 50.018 99.9442 50.0738C100.088 50.1297 100.218 50.2165 100.325 50.328C100.431 50.4395 100.512 50.5731 100.561 50.7193C100.611 50.8655 100.627 51.0207 100.61 51.1741Z" fill="#263238"/>
<path d="M105.43 50.0221V52.7364H104.965V52.3096C104.857 52.4493 104.717 52.5609 104.556 52.6351C104.396 52.7094 104.22 52.7441 104.043 52.7364C103.885 52.7527 103.724 52.7333 103.574 52.6794C103.424 52.6256 103.288 52.5388 103.176 52.4254C103.063 52.3119 102.978 52.1748 102.926 52.024C102.874 51.8733 102.856 51.7127 102.874 51.5542V49.9922H103.365V51.4987C103.365 52.0279 103.634 52.2968 104.099 52.2968C104.217 52.3053 104.336 52.2874 104.447 52.2445C104.557 52.2016 104.657 52.1346 104.739 52.0485C104.82 51.9623 104.882 51.8592 104.919 51.7464C104.956 51.6336 104.967 51.514 104.952 51.3963V49.9922L105.43 50.0221Z" fill="#263238"/>
<path d="M109.177 51.3794C109.187 51.5626 109.158 51.7458 109.093 51.9173C109.028 52.0889 108.928 52.2449 108.799 52.3754C108.67 52.506 108.515 52.6082 108.344 52.6755C108.174 52.7428 107.991 52.7738 107.807 52.7664C107.627 52.7734 107.448 52.7385 107.283 52.6645C107.119 52.5904 106.974 52.4792 106.86 52.3396V53.7394H106.369V50.035H106.839V50.4618C106.951 50.3132 107.098 50.1941 107.267 50.1146C107.436 50.0351 107.621 49.9975 107.807 50.0051C107.99 49.9972 108.172 50.0274 108.342 50.0937C108.512 50.1601 108.666 50.2611 108.795 50.3904C108.924 50.5196 109.025 50.6743 109.09 50.8446C109.156 51.0149 109.186 51.197 109.177 51.3794ZM108.682 51.3794C108.674 51.201 108.613 51.0289 108.508 50.8845C108.403 50.7402 108.258 50.6298 108.091 50.567C107.924 50.5042 107.742 50.4919 107.568 50.5315C107.393 50.571 107.235 50.6608 107.111 50.7896C106.987 50.9185 106.904 51.0807 106.872 51.2564C106.839 51.432 106.859 51.6133 106.929 51.7778C106.998 51.9423 107.115 52.0827 107.263 52.1818C107.412 52.2809 107.586 52.3343 107.765 52.3353C107.889 52.3379 108.013 52.3147 108.128 52.2671C108.243 52.2194 108.347 52.1484 108.433 52.0586C108.519 51.9688 108.586 51.862 108.629 51.7451C108.672 51.6282 108.69 51.5037 108.682 51.3794Z" fill="#263238"/>
</g>
<path d="M127.33 72.7812H71.4902V82.3411H127.33V72.7812Z" fill="white"/>
<g opacity="0.4">
<path d="M74.5469 76.0039H74.8371V78.492H76.3692V78.7438H74.5469V76.0039Z" fill="#263238"/>
<path d="M78.3531 77.4691V78.7494H78.0885V78.4293C78.0108 78.5435 77.9045 78.6351 77.7801 78.6951C77.6557 78.755 77.5177 78.7811 77.38 78.7707C76.9149 78.7707 76.6289 78.5275 76.6289 78.169C76.6289 77.8105 76.8295 77.5885 77.4227 77.5885H78.0757V77.4648C78.0757 77.1106 77.8751 76.9185 77.491 76.9185C77.2416 76.9152 76.9993 77.0015 76.8082 77.1618L76.6801 76.9526C76.9238 76.7639 77.2256 76.6658 77.5337 76.6752C77.6422 76.6621 77.7523 76.6734 77.856 76.7082C77.9596 76.7431 78.0541 76.8007 78.1327 76.8767C78.2112 76.9528 78.2718 77.0455 78.3099 77.148C78.348 77.2504 78.3628 77.3601 78.3531 77.4691ZM78.0757 78.1263V77.7891H77.4312C77.0301 77.7891 76.902 77.947 76.902 78.1604C76.902 78.3738 77.0941 78.5445 77.4227 78.5445C77.5618 78.5531 77.7001 78.5171 77.8174 78.442C77.9348 78.3668 78.0253 78.2562 78.0757 78.1263Z" fill="#263238"/>
<path d="M78.8223 78.527L78.946 78.3094C79.1613 78.4596 79.4176 78.5401 79.6801 78.5398C80.0727 78.5398 80.2306 78.4075 80.2306 78.2027C80.2306 77.6649 78.8991 78.0875 78.8991 77.2766C78.8991 76.9394 79.185 76.6876 79.71 76.6876C79.9661 76.6843 80.2184 76.7507 80.4398 76.8797L80.316 77.1016C80.1365 76.983 79.9251 76.922 79.71 76.9266C79.3387 76.9266 79.1765 77.0717 79.1765 77.268C79.1765 77.8228 80.508 77.4046 80.508 78.1941C80.508 78.5526 80.1965 78.7831 79.6545 78.7831C79.3567 78.7896 79.0649 78.6998 78.8223 78.527Z" fill="#263238"/>
<path d="M82.1244 78.6201C82.0032 78.7163 81.8524 78.7675 81.6977 78.7652C81.6165 78.7739 81.5344 78.7644 81.4574 78.7372C81.3804 78.7101 81.3105 78.666 81.2527 78.6083C81.195 78.5506 81.151 78.4807 81.1238 78.4037C81.0967 78.3267 81.0871 78.2446 81.0959 78.1634V76.9215H80.7246V76.6868H81.0959V76.2344H81.3733V76.6868H81.9964V76.9215H81.3733V78.1506C81.366 78.1998 81.37 78.2499 81.3849 78.2973C81.3998 78.3448 81.4252 78.3882 81.4593 78.4243C81.4934 78.4605 81.5353 78.4884 81.5817 78.5061C81.6282 78.5237 81.678 78.5306 81.7275 78.5262C81.8396 78.5295 81.949 78.4915 82.0348 78.4195L82.1244 78.6201Z" fill="#263238"/>
<path d="M85.9672 76.0039V78.7438H85.7282L83.9699 76.5203V78.7438H83.6797V76.0039H83.9187L85.6813 78.2274V76.0039H85.9672Z" fill="#263238"/>
<path d="M88.3733 77.4685V78.7489H88.1002V78.4288C88.0232 78.5436 87.9169 78.6358 87.7924 78.6958C87.6678 78.7558 87.5295 78.7815 87.3918 78.7702C86.9266 78.7702 86.6406 78.5269 86.6406 78.1685C86.6406 77.81 86.8455 77.588 87.4387 77.588H88.1002V77.4643C88.1002 77.11 87.8996 76.918 87.5155 76.918C87.2661 76.9147 87.0238 77.001 86.8327 77.1613L86.7046 76.9521C86.9478 76.7624 87.2499 76.6642 87.5582 76.6747C87.6664 76.6623 87.776 76.6741 87.8791 76.7092C87.9822 76.7444 88.0762 76.8021 88.1543 76.8781C88.2323 76.9541 88.2924 77.0465 88.3303 77.1486C88.3682 77.2508 88.3829 77.36 88.3733 77.4685ZM88.0959 78.1258V77.7886H87.4472C87.0503 77.7886 86.9223 77.9465 86.9223 78.1599C86.9223 78.3733 87.1143 78.544 87.443 78.544C87.5828 78.5535 87.722 78.518 87.8402 78.4428C87.9585 78.3675 88.0496 78.2565 88.1002 78.1258H88.0959Z" fill="#263238"/>
<path d="M92.528 77.5508V78.7458H92.2506V77.5807C92.2506 77.1539 92.0287 76.9235 91.6574 76.9235C91.5611 76.919 91.465 76.9356 91.3759 76.9721C91.2867 77.0087 91.2066 77.0643 91.1412 77.135C91.0757 77.2057 91.0265 77.2899 90.997 77.3816C90.9675 77.4733 90.9584 77.5704 90.9703 77.666V78.7458H90.6929V77.5807C90.6929 77.1539 90.4709 76.9235 90.0954 76.9235C89.9991 76.919 89.903 76.9356 89.8139 76.9721C89.7247 77.0087 89.6446 77.0643 89.5792 77.135C89.5137 77.2057 89.4645 77.2899 89.435 77.3816C89.4055 77.4733 89.3963 77.5704 89.4083 77.666V78.7458H89.1309V76.6887H89.3827V77.0643C89.4632 76.9385 89.5753 76.836 89.7079 76.7671C89.8405 76.6982 89.9888 76.6653 90.1381 76.6717C90.2894 76.6592 90.4408 76.6935 90.5721 76.7698C90.7033 76.8461 90.8081 76.9608 90.8721 77.0984C90.9564 76.9609 91.0762 76.8487 91.2189 76.7736C91.3616 76.6985 91.5219 76.6633 91.683 76.6717C91.7998 76.6602 91.9176 76.6754 92.0277 76.7161C92.1378 76.7568 92.2372 76.8218 92.3186 76.9065C92.3999 76.9911 92.461 77.093 92.4972 77.2046C92.5335 77.3162 92.544 77.4346 92.528 77.5508Z" fill="#263238"/>
<path d="M95.0835 77.8011H93.3764C93.3824 77.9015 93.4081 77.9997 93.4521 78.0901C93.4962 78.1805 93.5576 78.2613 93.6329 78.328C93.7083 78.3946 93.796 78.4456 93.8911 78.4783C93.9863 78.5109 94.0869 78.5244 94.1873 78.5181C94.3058 78.5219 94.4237 78.4998 94.5328 78.4534C94.6418 78.4069 94.7395 78.3372 94.8189 78.2492L94.9725 78.4284C94.8246 78.5829 94.6345 78.6903 94.4259 78.7374C94.2173 78.7844 93.9995 78.7689 93.7996 78.6929C93.5997 78.6169 93.4267 78.4836 93.3021 78.3099C93.1775 78.1361 93.1068 77.9294 93.099 77.7157C93.092 77.5798 93.1129 77.4439 93.1605 77.3164C93.2082 77.1889 93.2815 77.0726 93.3759 76.9745C93.4703 76.8765 93.5838 76.7989 93.7094 76.7466C93.8351 76.6942 93.9701 76.6682 94.1062 76.6701C94.2421 76.6675 94.377 76.6931 94.5025 76.7453C94.628 76.7975 94.7413 76.8752 94.8352 76.9735C94.9291 77.0718 95.0015 77.1886 95.0479 77.3163C95.0943 77.4441 95.1137 77.5801 95.1048 77.7157C95.0878 77.7413 95.0835 77.7712 95.0835 77.8011ZM93.3764 77.5962H94.836C94.836 77.4027 94.7591 77.217 94.6222 77.0802C94.4854 76.9433 94.2997 76.8664 94.1062 76.8664C93.9126 76.8664 93.727 76.9433 93.5901 77.0802C93.4533 77.217 93.3764 77.4027 93.3764 77.5962Z" fill="#263238"/>
</g>
<path d="M127.33 59.7207H71.4902V69.2805H127.33V59.7207Z" fill="white"/>
<g opacity="0.4">
<path d="M74.8371 63.1991V64.2745H76.254V64.5263H74.8371V65.6872H74.5469V62.9473H76.4247V63.1991H74.8371Z" fill="#263238"/>
<path d="M76.8653 62.9767C76.8644 62.9358 76.8758 62.8956 76.898 62.8613C76.9202 62.8269 76.9521 62.8 76.9898 62.784C77.0274 62.768 77.0689 62.7635 77.109 62.7713C77.1492 62.7791 77.186 62.7987 77.2149 62.8276C77.2438 62.8565 77.2634 62.8934 77.2712 62.9335C77.279 62.9736 77.2746 63.0152 77.2585 63.0528C77.2425 63.0904 77.2156 63.1223 77.1813 63.1445C77.1469 63.1667 77.1067 63.1781 77.0659 63.1772C77.0127 63.1772 76.9616 63.1561 76.924 63.1185C76.8864 63.0809 76.8653 63.0299 76.8653 62.9767ZM76.925 63.6296H77.2024V65.6867H76.925V63.6296Z" fill="#263238"/>
<path d="M79.0156 63.6121V63.8809H78.9473C78.8493 63.8762 78.7514 63.8931 78.6606 63.9306C78.5699 63.9681 78.4886 64.0252 78.4225 64.0978C78.3565 64.1704 78.3073 64.2567 78.2785 64.3506C78.2497 64.4444 78.242 64.5434 78.2559 64.6406V65.6905H77.9785V63.6334H78.2431V64.0175C78.3169 63.8807 78.4299 63.7691 78.5675 63.6969C78.7051 63.6247 78.8611 63.5951 79.0156 63.6121Z" fill="#263238"/>
<path d="M79.2441 65.4511L79.3679 65.2291C79.5812 65.3838 79.8385 65.466 80.102 65.4639C80.4946 65.4639 80.6525 65.3273 80.6525 65.1267C80.6525 64.589 79.321 65.0115 79.321 64.1963C79.321 63.8634 79.6069 63.6117 80.1318 63.6117C80.3883 63.6061 80.6411 63.6726 80.8616 63.8037L80.7379 64.0256C80.5583 63.9071 80.3469 63.846 80.1318 63.8506C79.7605 63.8506 79.5984 63.9958 79.5984 64.1921C79.5984 64.7469 80.9299 64.3286 80.9299 65.1182C80.9299 65.4724 80.6184 65.7029 80.0764 65.7029C79.7791 65.7106 79.4873 65.6223 79.2441 65.4511Z" fill="#263238"/>
<path d="M82.5522 65.5645C82.4296 65.6577 82.2794 65.7072 82.1254 65.7053C82.0445 65.7148 81.9624 65.7059 81.8854 65.6793C81.8084 65.6527 81.7383 65.609 81.6805 65.5516C81.6227 65.4942 81.5786 65.4245 81.5514 65.3477C81.5242 65.2708 81.5147 65.1889 81.5236 65.1079V63.8659H81.1523V63.6312H81.5236V63.166H81.801V63.6184H82.4241V63.8531H81.801V65.078C81.7939 65.1273 81.7979 65.1776 81.8128 65.2252C81.8276 65.2728 81.853 65.3164 81.887 65.3529C81.921 65.3893 81.9628 65.4177 82.0092 65.4359C82.0556 65.454 82.1056 65.4615 82.1553 65.4578C82.267 65.4593 82.3757 65.4215 82.4625 65.3511L82.5522 65.5645Z" fill="#263238"/>
<path d="M86.3949 62.9473V65.6872H86.156L84.3976 63.4637V65.6872H84.1074V62.9473H84.3464L86.109 65.1708V62.9473H86.3949Z" fill="#263238"/>
<path d="M88.7968 64.41V65.6904H88.5279V65.3703C88.4514 65.4843 88.3457 65.5757 88.2219 65.635C88.098 65.6943 87.9606 65.7193 87.8238 65.7074C87.3543 65.7074 87.0684 65.4684 87.0684 65.1099C87.0684 64.7514 87.2732 64.5295 87.8664 64.5295H88.5279V64.4015C88.5279 64.0515 88.3274 63.8595 87.9433 63.8595C87.6939 63.8562 87.4515 63.9425 87.2604 64.1027L87.1324 63.8936C87.3757 63.7042 87.6777 63.606 87.9859 63.6162C88.094 63.6036 88.2035 63.6154 88.3064 63.6506C88.4093 63.6858 88.5031 63.7435 88.5808 63.8196C88.6585 63.8957 88.7183 63.9882 88.7556 64.0904C88.793 64.1925 88.8071 64.3017 88.7968 64.41ZM88.5194 65.0673V64.7301H87.8707C87.4738 64.7301 87.3458 64.888 87.3458 65.0971C87.3458 65.3063 87.5378 65.4855 87.8664 65.4855C88.0068 65.4952 88.1467 65.4599 88.2657 65.3847C88.3846 65.3095 88.4765 65.1983 88.5279 65.0673H88.5194Z" fill="#263238"/>
<path d="M92.9499 64.4925V65.6875H92.6725V64.5224C92.6725 64.0956 92.4506 63.8652 92.0793 63.8652C91.983 63.8607 91.8869 63.8773 91.7978 63.9138C91.7086 63.9504 91.6285 64.006 91.563 64.0767C91.4976 64.1474 91.4484 64.2316 91.4189 64.3233C91.3894 64.4151 91.3802 64.5121 91.3921 64.6078V65.6875H91.1147V64.5224C91.1147 64.0956 90.8928 63.8652 90.5173 63.8652C90.421 63.8607 90.3249 63.8773 90.2357 63.9138C90.1466 63.9504 90.0665 64.006 90.001 64.0767C89.9356 64.1474 89.8864 64.2316 89.8569 64.3233C89.8273 64.4151 89.8182 64.5121 89.8301 64.6078V65.6875H89.5527V63.6304H89.8088V64.0188C89.8893 63.893 90.0015 63.7905 90.1341 63.7216C90.2666 63.6527 90.4149 63.6198 90.5642 63.6262C90.7155 63.6137 90.867 63.648 90.9982 63.7243C91.1295 63.8006 91.2342 63.9153 91.2983 64.0529C91.3818 63.9148 91.5015 63.802 91.6444 63.7268C91.7873 63.6516 91.9479 63.6168 92.1091 63.6262C92.2244 63.6158 92.3405 63.6313 92.4489 63.6716C92.5574 63.7118 92.6555 63.7758 92.7361 63.8588C92.8167 63.9419 92.8777 64.0419 92.9147 64.1515C92.9517 64.2611 92.9637 64.3776 92.9499 64.4925Z" fill="#263238"/>
<path d="M95.5054 64.7425H93.7983C93.8042 64.8429 93.83 64.9411 93.874 65.0315C93.918 65.1219 93.9795 65.2027 94.0548 65.2694C94.1301 65.336 94.2179 65.387 94.313 65.4197C94.4081 65.4523 94.5088 65.4658 94.6091 65.4595C94.728 65.4633 94.8463 65.4409 94.9555 65.3936C95.0647 65.3464 95.1621 65.2756 95.2408 65.1863L95.3944 65.3698C95.2465 65.5243 95.0564 65.6317 94.8478 65.6788C94.6392 65.7258 94.4213 65.7103 94.2215 65.6343C94.0216 65.5583 93.8486 65.425 93.724 65.2513C93.5994 65.0775 93.5287 64.8708 93.5209 64.6571C93.5138 64.5212 93.5348 64.3853 93.5824 64.2578C93.63 64.1303 93.7033 64.014 93.7978 63.9159C93.8922 63.8179 94.0057 63.7403 94.1313 63.688C94.2569 63.6356 94.392 63.6096 94.5281 63.6115C94.664 63.6089 94.7989 63.6345 94.9244 63.6867C95.0499 63.7389 95.1632 63.8167 95.2571 63.9149C95.3509 64.0132 95.4234 64.13 95.4698 64.2577C95.5162 64.3855 95.5356 64.5215 95.5267 64.6571C95.5096 64.6785 95.5054 64.7083 95.5054 64.7425ZM93.7983 64.5334H95.2578C95.2578 64.3398 95.181 64.1542 95.0441 64.0173C94.9072 63.8805 94.7216 63.8036 94.5281 63.8036C94.3345 63.8036 94.1489 63.8805 94.012 64.0173C93.8751 64.1542 93.7983 64.3398 93.7983 64.5334Z" fill="#263238"/>
</g>
<path d="M50.4816 140.956H50.0762C50.0762 140.355 50.5755 126.254 53.0295 123.885C55.5517 121.431 58.5178 123.851 58.5434 123.885L58.2874 124.193C58.1764 124.103 55.5688 121.986 53.3069 124.193C50.9724 126.416 50.4859 140.811 50.4816 140.956Z" fill="#407BFF"/>
<path d="M50.2752 143.784L49.874 143.746C49.874 143.575 51.4616 126.624 45.3203 119.573L45.6233 119.309C51.8799 126.491 50.2923 143.614 50.2752 143.784Z" fill="#407BFF"/>
<path d="M50.4727 141.977C50.4215 141.175 49.2393 122.345 53.9595 117.992L54.2326 118.291C49.6533 122.499 50.8611 141.764 50.8739 141.947L50.4727 141.977Z" fill="#407BFF"/>
<path d="M49.8747 141.961C49.8747 141.832 49.7295 129.157 46.3708 127.25C46.0853 127.061 45.7587 126.944 45.4185 126.909C45.0783 126.873 44.7345 126.92 44.4162 127.045C42.4487 127.86 41.4031 131.615 41.3903 131.654L41.002 131.547C41.0446 131.385 42.1116 127.565 44.2625 126.673C44.6372 126.523 45.0427 126.465 45.4446 126.504C45.8465 126.544 46.233 126.679 46.5714 126.9C50.1265 128.935 50.2758 141.41 50.2801 141.956L49.8747 141.961Z" fill="#407BFF"/>
<path d="M51.2564 141.972C51.2308 141.545 50.7144 131.968 53.433 128.413C54.1585 127.47 54.9608 127.022 55.8315 127.086C57.7648 127.218 59.2457 129.839 59.3268 129.95L58.9768 130.15C58.9768 130.125 57.5172 127.59 55.8016 127.487C55.0803 127.432 54.389 127.829 53.7531 128.661C51.1241 132.075 51.6533 141.853 51.6576 141.951L51.2564 141.972Z" fill="#407BFF"/>
<path d="M50.7139 143.297L50.3127 143.267C50.3127 143.036 52.0199 120.17 49.2031 116.354L49.5275 116.115C52.4381 120.05 50.7865 142.349 50.7139 143.297Z" fill="#407BFF"/>
<path d="M43.4815 128.948C43.4815 128.948 45.2227 129.593 44.7063 131.108C44.1899 132.623 38.6759 135.12 38.6759 135.12C38.6759 135.12 36.3671 133.007 38.4882 129.572C40.6092 126.136 43.4345 127.864 43.4815 128.948Z" fill="#407BFF"/>
<path opacity="0.2" d="M43.4815 128.948C43.4815 128.948 45.2227 129.593 44.7063 131.108C44.1899 132.623 38.6759 135.12 38.6759 135.12C38.6759 135.12 36.3671 133.007 38.4882 129.572C40.6092 126.136 43.4345 127.864 43.4815 128.948Z" fill="black"/>
<path d="M51.057 126.065C51.057 126.065 49.2005 125.988 49.0938 127.584C48.9871 129.18 53.1055 133.61 53.1055 133.61C53.1055 133.61 56.0503 132.543 55.4187 128.553C54.787 124.563 51.5179 125.079 51.057 126.065Z" fill="#407BFF"/>
<path opacity="0.2" d="M51.057 126.065C51.057 126.065 49.2005 125.988 49.0938 127.584C48.9871 129.18 53.1055 133.61 53.1055 133.61C53.1055 133.61 56.0503 132.543 55.4187 128.553C54.787 124.563 51.5179 125.079 51.057 126.065Z" fill="black"/>
<path d="M52.6275 118.407C52.6275 118.407 51.3898 118.274 51.488 117.523C51.5861 116.772 56.2977 114.83 59.0761 117.95C59.0761 117.95 57.2964 121.006 54.7272 121.049C52.158 121.091 52.6275 118.407 52.6275 118.407Z" fill="#407BFF"/>
<path opacity="0.2" d="M52.6275 118.407C52.6275 118.407 51.3898 118.274 51.488 117.523C51.5861 116.772 56.2977 114.83 59.0761 117.95C59.0761 117.95 57.2964 121.006 54.7272 121.049C52.158 121.091 52.6275 118.407 52.6275 118.407Z" fill="black"/>
<path d="M50.3237 116.578C50.3237 116.578 51.4419 117.12 51.7577 116.428C52.0735 115.737 49.0989 111.601 45.0829 112.792C45.0829 112.792 44.9762 116.326 47.1357 117.721C49.2952 119.117 50.3237 116.578 50.3237 116.578Z" fill="#407BFF"/>
<path opacity="0.2" d="M50.3237 116.578C50.3237 116.578 51.4419 117.12 51.7577 116.428C52.0735 115.737 49.0989 111.601 45.0829 112.792C45.0829 112.792 44.9762 116.326 47.1357 117.721C49.2952 119.117 50.3237 116.578 50.3237 116.578Z" fill="black"/>
<path d="M56.1778 128.342C56.1778 128.342 55.3243 127.651 56.2461 127.314C57.168 126.977 61.6875 127.075 61.7345 131.552C61.7345 131.552 56.468 132.427 55.8193 130.72C55.1706 129.012 56.1778 128.342 56.1778 128.342Z" fill="#407BFF"/>
<path opacity="0.2" d="M56.1778 128.342C56.1778 128.342 55.3243 127.651 56.2461 127.314C57.168 126.977 61.6875 127.075 61.7345 131.552C61.7345 131.552 56.468 132.427 55.8193 130.72C55.1706 129.012 56.1778 128.342 56.1778 128.342Z" fill="black"/>
<path d="M45.4238 118.298C45.4238 118.298 46.2774 117.606 45.3555 117.274C44.4337 116.941 39.9141 117.03 39.8672 121.507C39.8672 121.507 45.1336 122.386 45.7823 120.679C46.431 118.972 45.4238 118.298 45.4238 118.298Z" fill="#407BFF"/>
<path opacity="0.2" d="M45.4238 118.298C45.4238 118.298 46.2774 117.606 45.3555 117.274C44.4337 116.941 39.9141 117.03 39.8672 121.507C39.8672 121.507 45.1336 122.386 45.7823 120.679C46.431 118.972 45.4238 118.298 45.4238 118.298Z" fill="black"/>
<path d="M48.2234 121.903C48.2234 121.903 48.3002 121.049 47.6216 121.395C46.943 121.741 44.5915 124.267 47.0326 126.678C47.0326 126.678 50.3231 124.242 49.7299 122.974C49.1367 121.706 48.2234 121.903 48.2234 121.903Z" fill="#407BFF"/>
<path opacity="0.2" d="M48.2234 121.903C48.2234 121.903 48.3002 121.049 47.6216 121.395C46.943 121.741 44.5915 124.267 47.0326 126.678C47.0326 126.678 50.3231 124.242 49.7299 122.974C49.1367 121.706 48.2234 121.903 48.2234 121.903Z" fill="black"/>
<path d="M56.9455 123.1C56.9455 123.1 56.4334 122.43 57.1845 122.349C57.9356 122.268 61.2816 123.16 60.5006 126.506C60.5006 126.506 56.4206 126.198 56.2328 124.798C56.045 123.399 56.9455 123.1 56.9455 123.1Z" fill="#407BFF"/>
<path opacity="0.2" d="M56.9455 123.1C56.9455 123.1 56.4334 122.43 57.1845 122.349C57.9356 122.268 61.2816 123.16 60.5006 126.506C60.5006 126.506 56.4206 126.198 56.2328 124.798C56.045 123.399 56.9455 123.1 56.9455 123.1Z" fill="black"/>
<path d="M43.7853 154.372H56.977L58.731 141.543H42.0312L43.7853 154.372Z" fill="#263238"/>
<path opacity="0.2" d="M43.7853 154.372H56.977L58.731 141.543H42.0312L43.7853 154.372Z" fill="white"/>
<path d="M60.3867 140.502V141.723C60.3867 142.114 60.2311 142.49 59.9541 142.767C59.6772 143.044 59.3016 143.199 58.91 143.199H41.6895C41.2979 143.199 40.9223 143.044 40.6454 142.767C40.3685 142.49 40.2129 142.114 40.2129 141.723V140.502H60.3867Z" fill="#263238"/>
<path d="M170.307 18.9122H158.046C157.046 18.9122 156.086 19.3097 155.378 20.0172C154.671 20.7247 154.273 21.6843 154.273 22.6849V33.3543C154.273 33.8501 154.37 34.3412 154.559 34.7994C154.749 35.2576 155.027 35.674 155.377 36.0248C155.727 36.3756 156.143 36.6539 156.601 36.8437C157.059 37.0336 157.55 37.1313 158.046 37.1313H161.627L160.773 40.4986L164.187 37.1313H170.329C171.331 37.1313 172.291 36.7334 173 36.0251C173.708 35.3167 174.106 34.3561 174.106 33.3543V22.6849C174.106 22.1873 174.007 21.6946 173.816 21.2352C173.625 20.7758 173.345 20.3588 172.992 20.0081C172.639 19.6574 172.22 19.3801 171.759 19.192C171.298 19.0039 170.805 18.9088 170.307 18.9122Z" fill="#407BFF"/>
<path opacity="0.7" d="M170.307 18.9122H158.046C157.046 18.9122 156.086 19.3097 155.378 20.0172C154.671 20.7247 154.273 21.6843 154.273 22.6849V33.3543C154.273 33.8501 154.37 34.3412 154.559 34.7994C154.749 35.2576 155.027 35.674 155.377 36.0248C155.727 36.3756 156.143 36.6539 156.601 36.8437C157.059 37.0336 157.55 37.1313 158.046 37.1313H161.627L160.773 40.4986L164.187 37.1313H170.329C171.331 37.1313 172.291 36.7334 173 36.0251C173.708 35.3167 174.106 34.3561 174.106 33.3543V22.6849C174.106 22.1873 174.007 21.6946 173.816 21.2352C173.625 20.7758 173.345 20.3588 172.992 20.0081C172.639 19.6574 172.22 19.3801 171.759 19.192C171.298 19.0039 170.805 18.9088 170.307 18.9122Z" fill="white"/>
<path d="M164.18 32.7339C166.809 32.7339 168.939 30.6034 168.939 27.9754C168.939 25.3473 166.809 23.2168 164.18 23.2168C161.552 23.2168 159.422 25.3473 159.422 27.9754C159.422 30.6034 161.552 32.7339 164.18 32.7339Z" fill="white"/>
<path d="M164.18 21.8906C162.976 21.8906 161.799 22.2476 160.798 22.9163C159.798 23.585 159.018 24.5355 158.557 25.6475C158.096 26.7596 157.976 27.9832 158.211 29.1638C158.446 30.3443 159.025 31.4287 159.876 32.2798C160.727 33.1309 161.812 33.7106 162.992 33.9454C164.173 34.1802 165.397 34.0597 166.509 33.5991C167.621 33.1384 168.571 32.3584 169.24 31.3576C169.909 30.3568 170.265 29.1801 170.265 27.9765C170.266 27.1771 170.109 26.3855 169.803 25.6469C169.498 24.9082 169.049 24.2371 168.484 23.6719C167.919 23.1066 167.248 22.6584 166.509 22.3527C165.771 22.0471 164.979 21.8901 164.18 21.8906ZM167.632 26.1584L163.966 30.4774C163.914 30.5398 163.849 30.5898 163.775 30.6238C163.701 30.6577 163.621 30.6748 163.539 30.6737C163.458 30.6742 163.378 30.6569 163.304 30.6229C163.231 30.589 163.165 30.5393 163.113 30.4774L160.727 27.6649C160.677 27.6093 160.638 27.5441 160.613 27.4732C160.589 27.4024 160.578 27.3272 160.583 27.2523C160.588 27.1774 160.608 27.1043 160.642 27.0373C160.676 26.9703 160.723 26.9109 160.78 26.8624C160.838 26.814 160.904 26.7776 160.976 26.7554C161.048 26.7332 161.123 26.7256 161.198 26.7332C161.272 26.7408 161.345 26.7634 161.411 26.7995C161.476 26.8357 161.534 26.8847 161.581 26.9437L163.539 29.2525L166.779 25.4371C166.876 25.3298 167.011 25.2644 167.156 25.2548C167.3 25.2452 167.443 25.2921 167.554 25.3856C167.664 25.4791 167.734 25.612 167.749 25.7561C167.764 25.9003 167.722 26.0445 167.632 26.1584Z" fill="#407BFF"/>
<path opacity="0.2" d="M157.067 109.494L158.906 99.4857L158.552 94.1895C158.552 94.1895 156.03 103.374 157.067 109.494Z" fill="black"/>
<path d="M168.183 84.7392C168.183 84.7392 160.753 83.8003 149.495 86.8731C149.495 86.8731 147.685 66.7548 147.898 63.9893C148.112 61.2238 165.281 62.0346 165.281 62.0346C165.281 62.0346 165.708 70.0879 166.826 74.9446C167.944 79.8014 168.764 83.8045 168.183 84.7392Z" fill="#407BFF"/>
<path opacity="0.2" d="M168.183 84.7392C168.183 84.7392 160.753 83.8003 149.495 86.8731C149.495 86.8731 147.685 66.7548 147.898 63.9893C148.112 61.2238 165.281 62.0346 165.281 62.0346C165.281 62.0346 165.708 70.0879 166.826 74.9446C167.944 79.8014 168.764 83.8045 168.183 84.7392Z" fill="black"/>
<path d="M144.064 151.344L147.095 152.201L147.816 147.486L148.204 144.963L145.174 144.105L144.658 147.486L144.064 151.344Z" fill="#E4897B"/>
<path d="M161.484 151.589L164.608 152.003L164.638 147.484L164.66 144.675L161.531 144.266L161.51 147.484L161.484 151.589Z" fill="#E4897B"/>
<path opacity="0.2" d="M161.533 144.266L161.512 147.484H164.64L164.661 144.675L161.533 144.266Z" fill="black"/>
<path opacity="0.2" d="M144.658 147.486H147.816L148.205 144.963L145.175 144.105L144.658 147.486Z" fill="black"/>
<path d="M130.612 65.6416L127.604 64.7539L128.154 68.1895C128.154 68.1895 130.885 68.8168 131.142 67.3957L130.612 65.6416Z" fill="#E4897B"/>
<path d="M124.6 65.552L126.076 68.3431L128.155 68.1895L127.604 64.7539L124.6 65.552Z" fill="#E4897B"/>
<path d="M134.765 66.5194L129.823 65.4141L129.375 67.8125L133.86 68.9051L134.765 66.5194Z" fill="#E4897B"/>
<path d="M149.715 64.3532L149.425 64.6989C148.801 65.4287 147.291 67.1913 145.716 68.7106C144.436 69.9483 143.155 71.028 142.302 71.2457C139.882 71.8688 131.086 69.2782 131.086 69.2782L131.995 65.7104C131.995 65.7104 140.189 66.7987 140.825 66.7987C141.307 66.7987 146.292 59.5776 147.5 58.9844L149.715 64.3532Z" fill="#407BFF"/>
<path opacity="0.2" d="M149.425 64.6998C148.802 65.4296 147.292 67.1921 145.717 68.7115C146.033 66.2106 146.95 63.9145 148.158 62.4635C148.271 62.3234 148.4 62.1973 148.542 62.0879L149.425 64.6998Z" fill="black"/>
<path d="M144.103 150.871L147.543 150.781C147.605 150.779 147.666 150.799 147.716 150.836C147.765 150.873 147.801 150.926 147.816 150.986L148.542 153.756C148.559 153.822 148.561 153.892 148.548 153.959C148.535 154.026 148.507 154.09 148.466 154.145C148.425 154.2 148.372 154.245 148.312 154.276C148.251 154.308 148.184 154.326 148.115 154.328C146.873 154.328 145.077 154.328 143.519 154.358C141.692 154.409 140.531 154.319 138.397 154.358C137.117 154.392 136.69 153.103 137.237 152.971C139.682 152.365 141.282 152.484 143.365 151.119C143.585 150.972 143.84 150.887 144.103 150.871Z" fill="#263238"/>
<path d="M143.804 151.315C143.3 151.426 142.404 151.575 142.045 151.281C141.993 151.238 141.952 151.183 141.925 151.12C141.898 151.058 141.887 150.99 141.892 150.922C141.891 150.882 141.902 150.842 141.922 150.807C141.943 150.771 141.972 150.742 142.007 150.722C142.387 150.496 143.671 151.106 143.821 151.174C143.834 151.181 143.845 151.192 143.852 151.205C143.86 151.217 143.864 151.232 143.863 151.247C143.863 151.263 143.856 151.279 143.845 151.291C143.835 151.304 143.82 151.312 143.804 151.315ZM142.097 150.841H142.071C142.057 150.85 142.045 150.861 142.037 150.876C142.028 150.89 142.024 150.906 142.024 150.922C142.02 150.967 142.027 151.011 142.045 151.052C142.062 151.093 142.088 151.129 142.122 151.157C142.323 151.324 142.843 151.341 143.535 151.204C143.035 150.995 142.34 150.752 142.105 150.841H142.097Z" fill="#407BFF"/>
<path d="M143.804 151.314H143.753C143.365 151.152 142.588 150.495 142.631 150.14C142.631 150.055 142.699 149.948 142.904 149.923C142.979 149.913 143.055 149.918 143.129 149.938C143.202 149.958 143.27 149.992 143.331 150.038C143.757 150.358 143.855 151.199 143.864 151.233C143.865 151.246 143.863 151.259 143.858 151.271C143.853 151.283 143.844 151.293 143.834 151.301L143.804 151.314ZM142.848 150.089C142.784 150.111 142.78 150.145 142.78 150.158C142.754 150.371 143.284 150.892 143.68 151.114C143.635 150.755 143.476 150.42 143.228 150.158C143.186 150.122 143.137 150.096 143.084 150.081C143.031 150.067 142.975 150.064 142.921 150.072C142.896 150.074 142.871 150.08 142.848 150.089Z" fill="#407BFF"/>
<path d="M161.61 150.871L165.05 150.781C165.112 150.779 165.174 150.798 165.224 150.836C165.274 150.873 165.311 150.926 165.327 150.986L166.048 153.756C166.066 153.822 166.069 153.892 166.056 153.96C166.044 154.027 166.016 154.091 165.974 154.146C165.933 154.201 165.88 154.246 165.819 154.278C165.758 154.309 165.69 154.326 165.621 154.328C164.379 154.328 162.583 154.328 161.021 154.358C159.198 154.409 158.033 154.319 155.899 154.358C154.619 154.392 154.192 153.103 154.739 152.971C157.184 152.365 158.78 152.484 160.863 151.119C161.085 150.971 161.343 150.885 161.61 150.871Z" fill="#263238"/>
<path d="M161.313 151.315C160.81 151.426 159.909 151.575 159.555 151.281C159.503 151.238 159.462 151.183 159.435 151.12C159.408 151.058 159.397 150.99 159.401 150.922C159.401 150.882 159.412 150.842 159.432 150.807C159.452 150.771 159.481 150.742 159.517 150.722C159.892 150.496 161.181 151.106 161.326 151.174C161.34 151.18 161.352 151.19 161.36 151.203C161.368 151.216 161.371 151.232 161.369 151.247C161.368 151.263 161.362 151.277 161.352 151.29C161.342 151.302 161.329 151.311 161.313 151.315ZM159.606 150.841H159.581C159.567 150.849 159.555 150.861 159.548 150.876C159.54 150.89 159.537 150.906 159.538 150.922C159.534 150.967 159.54 151.011 159.558 151.052C159.575 151.093 159.602 151.129 159.636 151.157C159.837 151.324 160.353 151.341 161.049 151.204C160.541 150.995 159.845 150.752 159.611 150.841H159.606Z" fill="#407BFF"/>
<path d="M161.316 151.313H161.261C160.877 151.15 160.096 150.493 160.143 150.139C160.143 150.054 160.207 149.947 160.412 149.921C160.487 149.911 160.563 149.916 160.637 149.936C160.71 149.955 160.778 149.99 160.838 150.037C161.137 150.369 161.323 150.787 161.372 151.231C161.374 151.245 161.372 151.258 161.367 151.27C161.362 151.282 161.353 151.292 161.342 151.3L161.316 151.313ZM160.356 150.088C160.296 150.109 160.292 150.143 160.292 150.156C160.262 150.369 160.796 150.89 161.193 151.112C161.144 150.754 160.986 150.421 160.74 150.156C160.698 150.121 160.649 150.095 160.596 150.08C160.543 150.066 160.487 150.062 160.433 150.071L160.356 150.088Z" fill="#407BFF"/>
<path d="M167.931 82.9043C169.587 90.0784 166.744 146.52 166.744 146.52H161.256L158.909 99.4846L150.267 146.52L144.398 146.093C148.239 109.655 151.624 87.9019 151.624 87.9019V85.1534L167.931 82.9043Z" fill="#263238"/>
<path opacity="0.4" d="M144.398 146.093L150.267 146.52L157.069 109.493L158.909 99.4846L161.256 146.52H166.744C166.744 146.52 169.587 90.0784 167.931 82.9043L151.615 85.1534V87.9019C151.615 87.9019 148.235 109.655 144.398 146.093Z" fill="white"/>
<path d="M164.973 56.3352C164.804 59.7654 164.891 63.2033 165.233 66.6205C165.463 69.0105 165.779 71.2681 166.116 73.3039C166.906 78.0795 167.802 81.6602 167.93 82.9106L151.614 85.1597C145.665 68.5154 147.906 58.8447 147.906 58.8447C149.126 58.3409 150.376 57.9133 151.649 57.5643C151.917 57.4918 152.191 57.4235 152.472 57.3595C154.764 56.9085 157.079 56.5894 159.407 56.4035C159.834 56.3651 160.299 56.3352 160.735 56.3139C162.962 56.2029 164.973 56.3352 164.973 56.3352Z" fill="#263238"/>
<path d="M156.241 48.8438C156.36 51.127 156.603 55.4119 158.503 56.5001C158.503 56.5001 157.32 58.7493 154.764 58.9797C152.831 59.1504 152.959 57.2427 152.959 57.2427C154.077 56.4105 153.812 54.9979 152.959 53.4017L156.241 48.8438Z" fill="#E4897B"/>
<path opacity="0.2" d="M154.9 50.7051L152.971 53.4023C153.174 53.7712 153.345 54.1567 153.483 54.5546C154.379 54.1961 155.408 52.8475 155.258 51.8702C155.211 51.4631 155.09 51.0681 154.9 50.7051Z" fill="black"/>
<path d="M147.919 44.247C147.548 45.4335 147.753 47.8661 149.405 47.0766C151.056 46.287 148.56 42.2113 147.919 44.247Z" fill="#263238"/>
<path d="M156.456 45.852C156.639 48.8949 156.882 50.666 155.555 52.3902C153.536 54.9807 149.627 54.0162 148.535 51.08C147.553 48.434 147.421 43.9016 150.242 42.3652C150.867 42.025 151.568 41.849 152.28 41.8536C152.992 41.8583 153.691 42.0434 154.312 42.3918C154.933 42.7401 155.455 43.2403 155.83 43.8454C156.205 44.4506 156.42 45.141 156.456 45.852Z" fill="#E4897B"/>
<path d="M154.32 44.1974V40.7831C154.32 40.7831 157.939 40.5143 157.777 42.3665C159.783 43.3609 158.836 46.4806 156.143 48.0085C154.666 46.8263 154.837 43.984 154.837 43.984C154.679 44.0651 154.5 44.1333 154.32 44.1974Z" fill="#263238"/>
<path d="M157.927 48.2253C157.857 48.5976 157.714 48.9521 157.505 49.268C157.296 49.5839 157.026 49.8548 156.711 50.0647C155.857 50.6238 155.119 49.9367 155.089 48.9765C155.063 48.1229 155.469 46.7743 156.45 46.6036C156.665 46.5701 156.885 46.5904 157.09 46.6626C157.295 46.7348 157.479 46.8567 157.625 47.0174C157.771 47.1781 157.875 47.3725 157.928 47.5833C157.981 47.7941 157.98 48.0147 157.927 48.2253Z" fill="#E4897B"/>
<path d="M151.961 47.2091C151.991 47.4567 151.884 47.6701 151.722 47.6871C151.56 47.7042 151.406 47.5207 151.376 47.2604C151.346 47 151.453 46.7994 151.611 46.7824C151.769 46.7653 151.931 46.9445 151.961 47.2091Z" fill="#263238"/>
<path d="M149.168 47.5196C149.198 47.7671 149.091 47.9805 148.929 47.9976C148.767 48.0147 148.613 47.8312 148.583 47.5708C148.553 47.3105 148.66 47.1099 148.822 47.0928C148.984 47.0758 149.129 47.2721 149.168 47.5196Z" fill="#263238"/>
<path d="M150.069 47.543C149.853 48.3061 149.533 49.0357 149.117 49.711C149.301 49.8056 149.503 49.8602 149.71 49.8712C149.917 49.8823 150.123 49.8495 150.316 49.775L150.069 47.543Z" fill="#DE5753"/>
<path d="M151.756 50.5678C151.651 50.5947 151.544 50.6146 151.436 50.6276C151.417 50.6276 151.398 50.6199 151.385 50.6063C151.371 50.5927 151.363 50.5743 151.363 50.555C151.363 50.5358 151.371 50.5173 151.385 50.5037C151.398 50.4901 151.417 50.4825 151.436 50.4825C151.742 50.4546 152.038 50.3552 152.299 50.1921C152.56 50.029 152.779 49.8068 152.938 49.5436C152.942 49.5349 152.947 49.5271 152.954 49.5207C152.961 49.5142 152.969 49.5093 152.978 49.5061C152.986 49.5029 152.996 49.5015 153.005 49.5021C153.014 49.5027 153.024 49.5051 153.032 49.5094C153.041 49.5135 153.049 49.5193 153.055 49.5265C153.062 49.5337 153.067 49.5421 153.07 49.5513C153.073 49.5604 153.074 49.5701 153.074 49.5798C153.073 49.5895 153.07 49.5989 153.066 49.6076C152.927 49.85 152.738 50.0606 152.512 50.2259C152.287 50.3913 152.029 50.5077 151.756 50.5678Z" fill="#263238"/>
<path d="M152.711 46.2167C152.685 46.2227 152.658 46.222 152.633 46.2145C152.607 46.207 152.584 46.1931 152.566 46.1741C152.442 46.0386 152.289 45.9338 152.117 45.8679C151.946 45.802 151.762 45.7767 151.58 45.7942C151.561 45.7986 151.541 45.799 151.522 45.7955C151.503 45.7919 151.485 45.7845 151.469 45.7737C151.453 45.7629 151.44 45.7489 151.429 45.7326C151.419 45.7163 151.412 45.6981 151.409 45.679C151.405 45.6602 151.405 45.6409 151.409 45.6221C151.413 45.6034 151.42 45.5855 151.431 45.5696C151.442 45.5538 151.456 45.5402 151.472 45.5297C151.488 45.5191 151.505 45.5119 151.524 45.5083C151.755 45.4809 151.988 45.5087 152.206 45.5896C152.423 45.6705 152.618 45.8021 152.775 45.9735C152.789 45.9866 152.8 46.0025 152.807 46.0201C152.815 46.0377 152.819 46.0567 152.819 46.0759C152.819 46.0951 152.815 46.1141 152.807 46.1317C152.8 46.1493 152.789 46.1652 152.775 46.1783C152.756 46.1957 152.735 46.2088 152.711 46.2167Z" fill="#263238"/>
<path d="M147.851 46.6986C147.823 46.7091 147.793 46.7091 147.765 46.6986C147.729 46.686 147.699 46.6596 147.683 46.6252C147.666 46.5909 147.663 46.5513 147.676 46.5151C147.746 46.2954 147.869 46.096 148.033 45.934C148.197 45.772 148.398 45.6522 148.619 45.5847C148.656 45.5751 148.696 45.5807 148.729 45.6003C148.762 45.6199 148.786 45.6519 148.796 45.6892C148.806 45.7266 148.8 45.7662 148.78 45.7995C148.761 45.8327 148.729 45.8567 148.691 45.8663C148.517 45.9201 148.358 46.016 148.229 46.1455C148.101 46.275 148.006 46.4341 147.953 46.6089C147.945 46.6313 147.931 46.6513 147.913 46.6669C147.895 46.6826 147.874 46.6935 147.851 46.6986Z" fill="#263238"/>
<path d="M155.923 45.46C155.923 45.46 153.789 44.679 152.816 43.4414C152.816 43.4414 150.879 43.9492 150.482 44.7217C150.301 44.5666 150.184 44.3499 150.153 44.1135C150.122 43.877 150.18 43.6376 150.315 43.4414C150.315 43.4414 148.864 43.7486 148.578 44.7217C148.343 44.6094 148.149 44.4245 148.026 44.194C147.903 43.9635 147.857 43.6997 147.896 43.4414C147.896 43.4414 147.251 43.6846 147.042 44.7217C147.042 44.7217 145.442 41.3843 150.729 40.4283C150.329 40.2925 149.91 40.2219 149.487 40.2192C149.487 40.2192 153.179 38.7297 156.102 40.0912C159.026 41.4526 158.518 44.0901 155.923 45.46Z" fill="#263238"/>
<path d="M169.19 85.7817L164.068 86.4645C164.068 86.4645 161.956 71.7023 161.025 66.9352V56.7608L163.701 56.0566L165.775 56.7608C166.344 58.8078 166.782 60.889 167.086 62.9918C167.337 64.5879 167.564 66.295 167.764 68.0235C168.042 70.3793 168.272 72.7778 168.468 75.0226C168.776 78.646 168.981 81.8511 169.091 83.81C169.155 85.0391 169.19 85.7817 169.19 85.7817Z" fill="#407BFF"/>
<path d="M161.029 66.9264C161.029 66.9264 161.456 59.7438 163.705 56.0393C163.705 56.0393 163.65 54.9809 163.201 54.8102C162.753 54.6395 161.029 55.6638 161.029 55.6638C161.029 55.6638 159.958 54.9297 159.723 55.2711C159.488 55.6125 158.917 57.883 161.029 66.9264Z" fill="#407BFF"/>
<path opacity="0.7" d="M161.029 66.9264C161.029 66.9264 161.456 59.7438 163.705 56.0393C163.705 56.0393 163.65 54.9809 163.201 54.8102C162.753 54.6395 161.029 55.6638 161.029 55.6638C161.029 55.6638 159.958 54.9297 159.723 55.2711C159.488 55.6125 158.917 57.883 161.029 66.9264Z" fill="white"/>
<path d="M149.388 87.7504L149.973 88.1772C149.973 88.1772 149.119 83.4186 149.469 71.3835C149.469 70.8031 149.508 70.244 149.529 69.7105C149.956 59.5276 151.544 57.6754 151.663 57.5645L150.186 58.068L147.511 58.9899C146.704 67.6748 149.388 87.7504 149.388 87.7504Z" fill="#407BFF"/>
<path d="M149.619 67.9551C149.619 67.9551 148.142 60.973 148.582 58.566C149.021 56.159 150.596 57.2302 150.596 57.2302C150.596 57.2302 152.043 56.0608 152.474 57.3497C152.474 57.3497 150.485 58.7495 149.619 67.9551Z" fill="#407BFF"/>
<path opacity="0.7" d="M149.619 67.9551C149.619 67.9551 148.142 60.973 148.582 58.566C149.021 56.159 150.596 57.2302 150.596 57.2302C150.596 57.2302 152.043 56.0608 152.474 57.3497C152.474 57.3497 150.485 58.7495 149.619 67.9551Z" fill="white"/>
<path opacity="0.2" d="M167.757 68.0063C165.571 66.7815 165.281 63.5849 165.281 63.5849C165.414 63.5337 166.224 63.2563 167.078 62.9746C167.33 64.5708 167.556 66.2779 167.757 68.0063Z" fill="black"/>
<path opacity="0.2" d="M169.083 83.7952C167.708 83.7013 166.522 83.6116 166.522 83.6116L166.262 78.0251C166.69 77.7571 167.204 77.6624 167.7 77.7605C168.038 76.8681 168.293 75.9467 168.464 75.0078C168.763 78.6312 168.972 81.8405 169.083 83.7952Z" fill="black"/>
<path d="M169.553 75.002L166.877 79.2996L168.994 80.5159L171.507 76.645L169.553 75.002Z" fill="#E4897B"/>
<path d="M165.662 56.6914C167.463 56.8877 175.119 67.395 175.456 70.5617C175.793 73.7284 170.958 79.1954 170.958 79.1954L167.731 77.2962C167.731 77.2962 171.009 72.256 171.18 70.8946C171.35 69.5331 165.184 64.032 165.184 64.032C164.717 62.7647 164.461 61.4299 164.424 60.08C164.339 57.7669 165.662 56.6914 165.662 56.6914Z" fill="#407BFF"/>
<path d="M166.258 78.0273C166.258 78.0273 169.01 78.6163 170.12 80.349C170.12 80.349 168.968 83.9553 168.144 84.3479C167.32 84.7405 165.28 84.7405 165.28 84.7405C165.28 84.7405 165.148 80.7288 166.258 78.0273Z" fill="#407BFF"/>
</svg>
