<svg width="184" height="136" viewBox="0 0 184 136" fill="none" xmlns="http://www.w3.org/2000/svg">
<path d="M183.046 119.234H0.953125V119.325H183.046V119.234Z" fill="#EBEBEB"/>
<path d="M164.8 125.094H144.686V125.185H164.8V125.094Z" fill="#EBEBEB"/>
<path d="M121.317 123.186H118.152V123.277H121.317V123.186Z" fill="#EBEBEB"/>
<path d="M143.59 121.715H136.602V121.806H143.59V121.715Z" fill="#EBEBEB"/>
<path d="M35.7878 122.326H20.0586V122.417H35.7878V122.326Z" fill="#EBEBEB"/>
<path d="M96.0236 124.68H79.373V124.771H96.0236V124.68Z" fill="#EBEBEB"/>
<path d="M86.2244 123.139H52.1074V123.23H86.2244V123.139Z" fill="#EBEBEB"/>
<path d="M89.3489 100.912C89.3489 101.186 89.295 101.457 89.1903 101.709C89.0855 101.962 88.932 102.191 88.7385 102.384C88.5451 102.577 88.3154 102.73 88.0627 102.835C87.8099 102.939 87.5391 102.992 87.2658 102.992H16.945C16.3941 102.991 15.8661 102.771 15.4769 102.382C15.0877 101.992 14.8691 101.463 14.8691 100.912V2.06129C14.8739 1.51357 15.0946 0.989851 15.4833 0.603901C15.872 0.21795 16.3973 0.000938285 16.945 0H87.2658C87.8173 0 88.3462 0.21909 88.7362 0.609073C89.1262 0.999055 89.3453 1.52799 89.3453 2.0795M89.2542 2.0795C89.2561 1.81698 89.2061 1.55667 89.1071 1.31353C89.0081 1.07039 88.862 0.849222 88.6772 0.662741C88.4924 0.47626 88.2726 0.328143 88.0304 0.226907C87.7881 0.12567 87.5283 0.0733105 87.2658 0.0728376H16.945C16.4183 0.0738023 15.9134 0.283725 15.5413 0.656529C15.1692 1.02933 14.9602 1.53455 14.9602 2.06129V100.912C14.9602 101.439 15.1692 101.944 15.5413 102.317C15.9134 102.69 16.4183 102.9 16.945 102.901H87.2658C87.7928 102.9 88.298 102.69 88.6707 102.317C89.0434 101.945 89.2533 101.439 89.2542 100.912" fill="#EBEBEB"/>
<path d="M166.043 102.992H95.7182C95.1669 102.991 94.6386 102.772 94.2488 102.382C93.859 101.992 93.6396 101.464 93.6387 100.912V2.06129C93.6444 1.51324 93.8659 0.989522 94.2552 0.603673C94.6445 0.217823 95.1701 0.000928052 95.7182 0H166.043C166.59 0.00189541 167.114 0.219331 167.502 0.605179C167.89 0.991026 168.11 1.5142 168.115 2.06129V100.912C168.115 101.463 167.897 101.99 167.508 102.38C167.12 102.77 166.593 102.99 166.043 102.992ZM95.7182 0.0728376C95.1911 0.0738003 94.6859 0.283607 94.3132 0.656306C93.9405 1.02901 93.7307 1.53422 93.7297 2.06129V100.912C93.7307 101.439 93.9405 101.945 94.3132 102.317C94.6859 102.69 95.1911 102.9 95.7182 102.901H166.043C166.57 102.9 167.075 102.69 167.448 102.317C167.82 101.945 168.03 101.439 168.031 100.912V2.06129C168.03 1.53422 167.82 1.02901 167.448 0.656306C167.075 0.283607 166.57 0.0738003 166.043 0.0728376H95.7182Z" fill="#EBEBEB"/>
<path d="M124.597 25.4199H100.434V53.4368H124.597V25.4199Z" fill="#E6E6E6"/>
<path d="M126.285 25.4199H100.799V53.4368H126.285V25.4199Z" fill="#F0F0F0"/>
<path d="M124.148 51.3072V27.5586H102.935V51.3072H124.148Z" fill="white"/>
<path d="M118.702 44.7951H113.196C111.864 44.7931 110.587 44.2629 109.646 43.3207C108.704 42.3785 108.175 41.1013 108.174 39.7693V34.2664C108.174 34.2124 108.195 34.1605 108.234 34.1222C108.272 34.084 108.324 34.0625 108.378 34.0625H113.884C115.217 34.0635 116.495 34.5933 117.437 35.5356C118.379 36.4779 118.909 37.7557 118.91 39.0883V44.5948C118.91 44.6216 118.904 44.648 118.893 44.6725C118.882 44.6971 118.867 44.7193 118.848 44.7379C118.828 44.7565 118.806 44.7711 118.781 44.781C118.756 44.7908 118.729 44.7956 118.702 44.7951ZM108.582 34.4704V39.7693C108.584 40.9925 109.07 42.165 109.935 43.0299C110.8 43.8949 111.973 44.3816 113.196 44.3835H118.499V39.0883C118.498 37.8648 118.011 36.6917 117.146 35.8266C116.281 34.9614 115.108 34.475 113.884 34.474L108.582 34.4704Z" fill="#F0F0F0"/>
<path d="M159.513 35.9521H131.846L134.297 15.6523H157.062L159.513 35.9521Z" fill="#EBEBEB"/>
<path d="M136.427 35.9492H135.982V43.7246H136.427V35.9492Z" fill="#E0E0E0"/>
<path d="M136.204 44.2568C136.497 44.2568 136.735 44.0187 136.735 43.7251C136.735 43.4314 136.497 43.1934 136.204 43.1934C135.91 43.1934 135.672 43.4314 135.672 43.7251C135.672 44.0187 135.91 44.2568 136.204 44.2568Z" fill="#E0E0E0"/>
<path d="M153.441 35.9521H148.685L147.676 15.6523H152.064L153.441 35.9521Z" fill="#F5F5F5"/>
<path d="M147.065 35.9492H144.297V119.231H147.065V35.9492Z" fill="#F0F0F0"/>
<path d="M150.059 119.235H141.301C141.301 118.741 141.497 118.266 141.847 117.916C142.196 117.565 142.671 117.368 143.165 117.367H148.195C148.69 117.368 149.164 117.565 149.514 117.916C149.863 118.266 150.059 118.741 150.059 119.235Z" fill="#F0F0F0"/>
<path d="M147.065 35.9492H144.297V37.639H147.065V35.9492Z" fill="#E0E0E0"/>
<path d="M142.469 79.877C142.247 79.877 142.025 79.877 141.799 79.8988C140.396 79.9964 139.032 80.4036 137.805 81.091C136.579 81.7785 135.519 82.7293 134.704 83.8749C133.888 85.0205 133.337 86.3326 133.089 87.7168C132.841 89.1011 132.902 90.523 133.269 91.8805C134.308 95.9333 134.81 100.105 134.763 104.288V116.474C134.762 116.684 134.803 116.892 134.883 117.086C134.964 117.281 135.081 117.457 135.23 117.606C135.378 117.754 135.555 117.872 135.749 117.952C135.943 118.032 136.151 118.073 136.361 118.073H162.583V79.877H142.469Z" fill="#F0F0F0"/>
<path d="M172.121 89.3995C172.12 88.043 171.83 86.7021 171.27 85.4667C170.71 84.2313 169.892 83.1298 168.871 82.236C167.851 81.3421 166.652 80.6764 165.353 80.2834C164.055 79.8905 162.687 79.7794 161.343 79.9575C159.998 80.1356 158.707 80.5988 157.555 81.3162C156.404 82.0336 155.419 82.9885 154.667 84.1172C153.914 85.2459 153.411 86.5223 153.192 87.861C152.972 89.1996 153.041 90.5697 153.394 91.8796C154.433 95.9323 154.935 100.104 154.887 104.287V116.473C154.887 116.683 154.928 116.891 155.008 117.085C155.088 117.28 155.206 117.456 155.355 117.605C155.503 117.753 155.68 117.871 155.874 117.951C156.068 118.031 156.276 118.072 156.486 118.072H168.701C169.125 118.072 169.532 117.903 169.831 117.604C170.131 117.304 170.3 116.897 170.3 116.473V103.574C170.258 99.6495 170.748 95.7378 171.756 91.9452C171.993 91.1171 172.116 90.2607 172.121 89.3995Z" fill="#F5F5F5"/>
<path d="M157.757 94.8809H114.324V118.072H157.757V94.8809Z" fill="#F0F0F0"/>
<path d="M130.545 64.4972H98.4963C97.5727 64.4805 96.6561 64.6605 95.8074 65.0253C94.9586 65.3902 94.1973 65.9314 93.5738 66.613C92.9503 67.2947 92.4791 68.1013 92.1913 68.9791C91.9035 69.8569 91.8057 70.7859 91.9046 71.7044L94.3446 100.111H140.8L138.36 71.7044C138.164 69.7553 137.26 67.9458 135.82 66.6178C134.38 65.2898 132.503 64.5354 130.545 64.4972Z" fill="#E0E0E0"/>
<path d="M139.97 64.4973H107.229C106.35 64.4802 105.477 64.6508 104.668 64.9976C103.86 65.3445 103.134 65.8598 102.54 66.509C101.947 67.1582 101.498 67.9266 101.225 68.7628C100.951 69.599 100.859 70.4839 100.954 71.3585L103.427 100.129H149.905L147.432 71.3585C147.246 69.4986 146.383 67.7719 145.008 66.5067C143.632 65.2416 141.839 64.5264 139.97 64.4973Z" fill="#F5F5F5"/>
<path d="M115.039 92.7656H157.022C157.655 92.7656 158.262 93.0169 158.709 93.4643C159.156 93.9117 159.408 94.5184 159.408 95.151V99.8236C159.408 100.456 159.156 101.063 158.709 101.51C158.262 101.958 157.655 102.209 157.022 102.209H115.039C114.846 102.209 114.66 102.132 114.524 101.996C114.387 101.859 114.311 101.674 114.311 101.481V93.4685C114.317 93.2798 114.397 93.101 114.533 92.9699C114.669 92.8387 114.85 92.7655 115.039 92.7656Z" fill="#E0E0E0"/>
<path d="M90.9247 79.877C90.7013 79.877 90.4791 79.8842 90.2582 79.8988C88.8558 79.9978 87.4926 80.4058 86.2664 81.0936C85.0403 81.7815 83.9815 82.732 83.1659 83.8772C82.3503 85.0224 81.7982 86.3339 81.5492 87.7175C81.3001 89.1012 81.3603 90.5228 81.7253 91.8805C82.766 95.9329 83.268 100.105 83.2185 104.288V116.474C83.2185 116.898 83.3869 117.305 83.6867 117.605C83.9866 117.904 84.3932 118.073 84.8173 118.073H111.039V79.877H90.9247Z" fill="#F0F0F0"/>
<path d="M120.566 89.4014C120.562 88.0472 120.269 86.7095 119.707 85.4775C119.145 84.2454 118.326 83.1473 117.307 82.2564C116.287 81.3655 115.089 80.7022 113.792 80.3109C112.496 79.9195 111.131 79.809 109.788 79.9867C108.446 80.1644 107.157 80.6263 106.007 81.3415C104.857 82.0568 103.873 83.0089 103.12 84.1345C102.367 85.2601 101.863 86.5333 101.641 87.8692C101.419 89.205 101.484 90.5729 101.832 91.8815C102.873 95.9339 103.375 100.106 103.325 104.289V116.475C103.325 116.685 103.367 116.893 103.447 117.088C103.528 117.282 103.646 117.458 103.795 117.607C103.944 117.755 104.12 117.873 104.315 117.953C104.509 118.033 104.717 118.074 104.928 118.074H117.139C117.349 118.074 117.557 118.033 117.751 117.953C117.945 117.873 118.122 117.755 118.27 117.607C118.419 117.458 118.537 117.282 118.617 117.087C118.697 116.893 118.738 116.685 118.738 116.475V103.576C118.703 99.6504 119.201 95.7387 120.216 91.9471C120.446 91.118 120.564 90.2618 120.566 89.4014Z" fill="#F5F5F5"/>
<path d="M157.751 119.234H91.6071C91.299 119.234 91.0035 119.112 90.7856 118.894C90.5677 118.676 90.4453 118.38 90.4453 118.072H158.912C158.912 118.38 158.79 118.676 158.572 118.894C158.354 119.112 158.059 119.234 157.751 119.234Z" fill="#E0E0E0"/>
<path d="M25.7291 12.6836H17.7461V119.234H25.7291V12.6836Z" fill="#E6E6E6"/>
<path d="M25.7247 119.234L95.7832 119.234L95.7832 12.6844L25.7247 12.6844L25.7247 119.234Z" fill="#F5F5F5"/>
<path d="M94.4766 119.234V14.2539L27.0365 14.2539V119.234H94.4766Z" fill="#E6E6E6"/>
<path d="M32.6816 119.234L32.6816 14.2539H27.0368L27.0368 119.234H32.6816Z" fill="#E0E0E0"/>
<path d="M95.1855 100.519V98.9531H27.0354V100.519H95.1855Z" fill="#F5F5F5"/>
<path d="M95.1855 78.5211V76.9551H27.0354V78.5211H95.1855Z" fill="#F5F5F5"/>
<path d="M95.1855 56.5286V54.959L27.0354 54.959V56.5286L95.1855 56.5286Z" fill="#F5F5F5"/>
<path d="M95.1855 34.5289V32.9629L27.0354 32.9629V34.5289L95.1855 34.5289Z" fill="#F5F5F5"/>
<path d="M33.0444 32.9648H43.1797V18.0223H33.0444V32.9648Z" fill="#FAFAFA"/>
<path d="M44.2581 18.0195H42.3133C42.0076 18.0195 41.7598 18.2674 41.7598 18.5731V32.4085C41.7598 32.7143 42.0076 32.9621 42.3133 32.9621H44.2581C44.5638 32.9621 44.8116 32.7143 44.8116 32.4085V18.5731C44.8116 18.2674 44.5638 18.0195 44.2581 18.0195Z" fill="#F0F0F0"/>
<path d="M29.6284 32.9648H39.7637V18.0223H29.6284V32.9648Z" fill="#FAFAFA"/>
<path d="M40.8499 18.0195H38.9051C38.5994 18.0195 38.3516 18.2674 38.3516 18.5731V32.4085C38.3516 32.7143 38.5994 32.9621 38.9051 32.9621H40.8499C41.1556 32.9621 41.4034 32.7143 41.4034 32.4085V18.5731C41.4034 18.2674 41.1556 18.0195 40.8499 18.0195Z" fill="#E6E6E6"/>
<path d="M27.0371 18.0195H35.7849L35.0893 32.9657H27.0371V18.0195Z" fill="#FAFAFA"/>
<path d="M36.912 18.0195H34.8689C34.7202 18.0342 34.5826 18.1048 34.4839 18.217C34.3852 18.3292 34.3328 18.4747 34.3372 18.6241L33.6963 32.3612C33.6866 32.4324 33.6914 32.5048 33.7103 32.5742C33.7293 32.6435 33.762 32.7083 33.8065 32.7647C33.851 32.8211 33.9064 32.868 33.9695 32.9025C34.0325 32.9371 34.1018 32.9586 34.1733 32.9657H36.2164C36.3645 32.9494 36.5011 32.8784 36.5994 32.7665C36.6978 32.6547 36.7508 32.5101 36.7481 32.3612L37.3891 18.6241C37.3993 18.5528 37.3949 18.4802 37.3761 18.4106C37.3574 18.3411 37.3247 18.2761 37.2801 18.2196C37.2355 18.163 37.1799 18.1161 37.1166 18.0818C37.0533 18.0474 36.9837 18.0262 36.912 18.0195Z" fill="#F0F0F0"/>
<path d="M79.9153 32.9629H87.5996V20.3475H79.9153V32.9629Z" fill="#FAFAFA"/>
<path d="M88.3993 20.3516H86.968C86.7246 20.3516 86.5273 20.5489 86.5273 20.7922V32.5263C86.5273 32.7697 86.7246 32.967 86.968 32.967H88.3993C88.6426 32.967 88.8399 32.7697 88.8399 32.5263V20.7922C88.8399 20.5489 88.6426 20.3516 88.3993 20.3516Z" fill="#F0F0F0"/>
<path d="M77.3274 32.9629H85.0117V20.3475H77.3274V32.9629Z" fill="#FAFAFA"/>
<path d="M85.8114 20.3516H84.3801C84.1367 20.3516 83.9395 20.5489 83.9395 20.7922V32.5263C83.9395 32.7697 84.1367 32.967 84.3801 32.967H85.8114C86.0547 32.967 86.252 32.7697 86.252 32.5263V20.7922C86.252 20.5489 86.0547 20.3516 85.8114 20.3516Z" fill="#E6E6E6"/>
<path d="M75.3613 20.3516H81.9932L81.4651 32.967H75.3613V20.3516Z" fill="#FAFAFA"/>
<path d="M82.8485 20.3516H81.3007C81.0895 20.3516 80.911 20.581 80.8965 20.8614L80.4121 32.4571C80.4121 32.7375 80.5614 32.967 80.7763 32.967H82.3277C82.539 32.967 82.7174 32.7375 82.7283 32.4571L83.2163 20.8614C83.2236 20.581 83.0597 20.3516 82.8485 20.3516Z" fill="#F0F0F0"/>
<path d="M70.0071 32.9629H77.6914V20.3475H70.0071V32.9629Z" fill="#FAFAFA"/>
<path d="M78.4891 20.3516H77.0579C76.8145 20.3516 76.6172 20.5489 76.6172 20.7922V32.5263C76.6172 32.7697 76.8145 32.967 77.0579 32.967H78.4891C78.7325 32.967 78.9298 32.7697 78.9298 32.5263V20.7922C78.9298 20.5489 78.7325 20.3516 78.4891 20.3516Z" fill="#F0F0F0"/>
<path d="M67.4211 32.9629H75.1055V20.3475H67.4211V32.9629Z" fill="#FAFAFA"/>
<path d="M75.9032 20.3516H74.4719C74.2285 20.3516 74.0312 20.5489 74.0312 20.7922V32.5263C74.0312 32.7697 74.2285 32.967 74.4719 32.967H75.9032C76.1465 32.967 76.3438 32.7697 76.3438 32.5263V20.7922C76.3438 20.5489 76.1465 20.3516 75.9032 20.3516Z" fill="#E6E6E6"/>
<path d="M65.4531 20.3516H72.0813L71.5569 32.967H65.4531V20.3516Z" fill="#FAFAFA"/>
<path d="M72.9408 20.3516H71.3894C71.1782 20.3516 70.9997 20.581 70.9888 20.8614L70.5117 32.4571C70.5117 32.7375 70.6647 32.967 70.8759 32.967H72.4237C72.6349 32.967 72.8134 32.7375 72.8279 32.4571L73.3123 20.8614C73.3123 20.581 73.1521 20.3516 72.9408 20.3516Z" fill="#F0F0F0"/>
<path d="M55.5295 32.9648H60.8867V19.4062H55.5295V32.9648Z" fill="#FAFAFA"/>
<path d="M61.3716 19.4043H60.523C60.3118 19.4043 60.1406 19.5755 60.1406 19.7867V32.5806C60.1406 32.7918 60.3118 32.963 60.523 32.963H61.3716C61.5828 32.963 61.754 32.7918 61.754 32.5806V19.7867C61.754 19.5755 61.5828 19.4043 61.3716 19.4043Z" fill="#F0F0F0"/>
<path d="M51.0692 32.9648H56.9727V18.0223H51.0692V32.9648Z" fill="#FAFAFA"/>
<path d="M57.5052 18.0195H56.5728C56.3395 18.0195 56.1504 18.2087 56.1504 18.442V32.5396C56.1504 32.773 56.3395 32.9621 56.5728 32.9621H57.5052C57.7385 32.9621 57.9276 32.773 57.9276 32.5396V18.442C57.9276 18.2087 57.7385 18.0195 57.5052 18.0195Z" fill="#F5F5F5"/>
<path d="M49.5566 18.0195H54.6516L54.2474 32.9657H49.5566V18.0195Z" fill="#FAFAFA"/>
<path d="M55.3102 18.0195H54.123C53.9627 18.0195 53.8207 18.289 53.8134 18.6241L53.4492 32.3612C53.4492 32.6926 53.5621 32.9657 53.726 32.9657H54.9169C55.0771 32.9657 55.2155 32.6926 55.2265 32.3612L55.5906 18.6241C55.5797 18.289 55.4705 18.0195 55.3102 18.0195Z" fill="#F0F0F0"/>
<path d="M60.0268 54.9629H70.1621V40.0203H60.0268V54.9629Z" fill="#FAFAFA"/>
<path d="M71.2464 40.0156H69.3016C68.9959 40.0156 68.748 40.2635 68.748 40.5692V54.4046C68.748 54.7104 68.9959 54.9582 69.3016 54.9582H71.2464C71.5521 54.9582 71.7999 54.7104 71.7999 54.4046V40.5692C71.7999 40.2635 71.5521 40.0156 71.2464 40.0156Z" fill="#F0F0F0"/>
<path d="M56.6186 54.9629H66.7539V40.0203H56.6186V54.9629Z" fill="#FAFAFA"/>
<path d="M67.8323 40.0156H65.8875C65.5818 40.0156 65.334 40.2635 65.334 40.5692V54.4046C65.334 54.7104 65.5818 54.9582 65.8875 54.9582H67.8323C68.138 54.9582 68.3859 54.7104 68.3859 54.4046V40.5692C68.3859 40.2635 68.138 40.0156 67.8323 40.0156Z" fill="#E6E6E6"/>
<path d="M54.0215 40.0156H62.7656L62.07 54.9618H54.0215V40.0156Z" fill="#FAFAFA"/>
<path d="M63.8986 40.0156H61.8555C61.7068 40.0303 61.5692 40.1009 61.4705 40.2131C61.3718 40.3253 61.3194 40.4708 61.3238 40.6202L60.6792 54.3573C60.669 54.4286 60.6734 54.5012 60.6921 54.5707C60.7109 54.6403 60.7435 54.7053 60.7881 54.7618C60.8328 54.8183 60.8884 54.8652 60.9517 54.8996C61.0149 54.934 61.0845 54.9552 61.1562 54.9618H63.1993C63.3474 54.9455 63.484 54.8745 63.5824 54.7626C63.6807 54.6508 63.7338 54.5062 63.731 54.3573L64.3684 40.6202C64.3791 40.5494 64.3753 40.4771 64.3572 40.4078C64.3392 40.3385 64.3072 40.2736 64.2632 40.2171C64.2193 40.1605 64.1643 40.1135 64.1016 40.0789C64.0389 40.0442 63.9698 40.0227 63.8986 40.0156Z" fill="#F0F0F0"/>
<path d="M75.5641 54.959H81.7734V42.3436H75.5641V54.959Z" fill="#FAFAFA"/>
<path d="M82.3776 42.3477H81.3032C81.084 42.3477 80.9062 42.5254 80.9062 42.7446V54.5661C80.9062 54.7853 81.084 54.9631 81.3032 54.9631H82.3776C82.5968 54.9631 82.7745 54.7853 82.7745 54.5661V42.7446C82.7745 42.5254 82.5968 42.3477 82.3776 42.3477Z" fill="#F0F0F0"/>
<path d="M73.4742 54.959H79.6836V42.3436H73.4742V54.959Z" fill="#FAFAFA"/>
<path d="M80.2877 42.3477H79.2134C78.9941 42.3477 78.8164 42.5254 78.8164 42.7446V54.5661C78.8164 54.7853 78.9941 54.9631 79.2134 54.9631H80.2877C80.507 54.9631 80.6847 54.7853 80.6847 54.5661V42.7446C80.6847 42.5254 80.507 42.3477 80.2877 42.3477Z" fill="#E6E6E6"/>
<path d="M71.8828 42.3477H77.2436L76.8175 54.9631H71.8828V42.3477Z" fill="#FAFAFA"/>
<path d="M77.9339 42.3477H76.6811C76.51 42.3477 76.3643 42.5771 76.357 42.8575L75.9746 54.4532C75.9746 54.7336 76.0948 54.9631 76.266 54.9631H77.5188C77.6899 54.9631 77.8356 54.7336 77.8429 54.4532L78.2362 42.8575C78.2362 42.5771 78.1051 42.3477 77.9339 42.3477Z" fill="#F0F0F0"/>
<path d="M85.926 54.9629H91.0684V44.5144H85.926V54.9629Z" fill="#FAFAFA"/>
<path d="M91.5657 44.5098H90.6735C90.4924 44.5098 90.3457 44.6565 90.3457 44.8375V54.6305C90.3457 54.8115 90.4924 54.9583 90.6735 54.9583H91.5657C91.7467 54.9583 91.8935 54.8115 91.8935 54.6305V44.8375C91.8935 44.6565 91.7467 44.5098 91.5657 44.5098Z" fill="#F0F0F0"/>
<path d="M84.1917 54.9629H89.334V44.5144H84.1917V54.9629Z" fill="#FAFAFA"/>
<path d="M89.8372 44.5098H88.945C88.7639 44.5098 88.6172 44.6565 88.6172 44.8375V54.6305C88.6172 54.8115 88.7639 54.9583 88.945 54.9583H89.8372C90.0182 54.9583 90.165 54.8115 90.165 54.6305V44.8375C90.165 44.6565 90.0182 44.5098 89.8372 44.5098Z" fill="#E6E6E6"/>
<path d="M82.873 44.5098H87.3125L86.9592 54.9619H82.873V44.5098Z" fill="#FAFAFA"/>
<path d="M87.8874 44.5098H86.8495C86.7075 44.5098 86.5873 44.6991 86.58 44.9322L86.2559 54.5395C86.2559 54.7725 86.3542 54.9619 86.4962 54.9619H87.5342C87.6725 54.9619 87.7964 54.7725 87.8037 54.5395L88.1278 44.9322C88.1351 44.6991 88.0258 44.5098 87.8874 44.5098Z" fill="#F0F0F0"/>
<path d="M43.7805 54.959H51.4648V42.3436H43.7805V54.959Z" fill="#FAFAFA"/>
<path d="M52.2664 42.3477H50.8352C50.5918 42.3477 50.3945 42.545 50.3945 42.7883V54.5224C50.3945 54.7658 50.5918 54.9631 50.8352 54.9631H52.2664C52.5098 54.9631 52.7071 54.7658 52.7071 54.5224V42.7883C52.7071 42.545 52.5098 42.3477 52.2664 42.3477Z" fill="#F0F0F0"/>
<path d="M41.1985 54.959H48.8828V42.3436H41.1985V54.959Z" fill="#FAFAFA"/>
<path d="M49.6766 42.3477H48.2454C48.002 42.3477 47.8047 42.545 47.8047 42.7883V54.5224C47.8047 54.7658 48.002 54.9631 48.2454 54.9631H49.6766C49.92 54.9631 50.1173 54.7658 50.1173 54.5224V42.7883C50.1173 42.545 49.92 42.3477 49.6766 42.3477Z" fill="#E6E6E6"/>
<path d="M39.2305 42.3477H45.8623L45.3342 54.9631H39.2305V42.3477Z" fill="#FAFAFA"/>
<path d="M46.7165 42.3477H45.1687C45.0501 42.3673 44.9429 42.4304 44.8682 42.5246C44.7935 42.6188 44.7565 42.7375 44.7645 42.8575L44.291 54.4532C44.291 54.7336 44.4403 54.9631 44.6552 54.9631H46.203C46.3216 54.9434 46.4288 54.8804 46.5035 54.7861C46.5782 54.6919 46.6152 54.5732 46.6072 54.4532L47.0916 42.8575C47.0916 42.5771 46.9277 42.3477 46.7165 42.3477Z" fill="#F0F0F0"/>
<path d="M33.0081 54.9629H38.3652V41.4042H33.0081V54.9629Z" fill="#FAFAFA"/>
<path d="M38.8462 41.4004H37.9976C37.7864 41.4004 37.6152 41.5716 37.6152 41.7828V54.5767C37.6152 54.7878 37.7864 54.9591 37.9976 54.9591H38.8462C39.0574 54.9591 39.2286 54.7878 39.2286 54.5767V41.7828C39.2286 41.5716 39.0574 41.4004 38.8462 41.4004Z" fill="#F0F0F0"/>
<path d="M28.5477 54.9629H34.4512V40.0203H28.5477V54.9629Z" fill="#FAFAFA"/>
<path d="M34.9798 40.0156H34.0475C33.8141 40.0156 33.625 40.2048 33.625 40.4381V54.5357C33.625 54.7691 33.8141 54.9582 34.0475 54.9582H34.9798C35.2131 54.9582 35.4022 54.7691 35.4022 54.5357V40.4381C35.4022 40.2048 35.2131 40.0156 34.9798 40.0156Z" fill="#F5F5F5"/>
<path d="M27.0371 40.0156H32.1321L31.7278 54.9618H27.0371V40.0156Z" fill="#FAFAFA"/>
<path d="M32.7904 40.0156H31.5995C31.4356 40.0156 31.2973 40.2851 31.29 40.6202L30.9258 54.3573C30.9258 54.6887 31.0423 54.9618 31.2062 54.9618H32.3825C32.5464 54.9618 32.6848 54.6887 32.6921 54.3573L33.0563 40.6202C33.0745 40.2851 32.9507 40.0156 32.7904 40.0156Z" fill="#F0F0F0"/>
<path d="M33.0444 76.9609H43.1797V62.0184H33.0444V76.9609Z" fill="#FAFAFA"/>
<path d="M44.2581 62.0137H42.3133C42.0076 62.0137 41.7598 62.2615 41.7598 62.5672V76.4027C41.7598 76.7084 42.0076 76.9562 42.3133 76.9562H44.2581C44.5638 76.9562 44.8116 76.7084 44.8116 76.4027V62.5672C44.8116 62.2615 44.5638 62.0137 44.2581 62.0137Z" fill="#F0F0F0"/>
<path d="M29.6284 76.9609H39.7637V62.0184H29.6284V76.9609Z" fill="#FAFAFA"/>
<path d="M40.8499 62.0137H38.9051C38.5994 62.0137 38.3516 62.2615 38.3516 62.5672V76.4027C38.3516 76.7084 38.5994 76.9562 38.9051 76.9562H40.8499C41.1556 76.9562 41.4034 76.7084 41.4034 76.4027V62.5672C41.4034 62.2615 41.1556 62.0137 40.8499 62.0137Z" fill="#E6E6E6"/>
<path d="M27.0371 62.0137H35.7849L35.0893 76.9599H27.0371V62.0137Z" fill="#FAFAFA"/>
<path d="M36.912 62.0137H34.8689C34.7202 62.0284 34.5826 62.0989 34.4839 62.2112C34.3852 62.3234 34.3328 62.4689 34.3372 62.6182L33.6963 76.3553C33.6866 76.4265 33.6914 76.499 33.7103 76.5683C33.7293 76.6376 33.762 76.7024 33.8065 76.7588C33.851 76.8153 33.9064 76.8621 33.9695 76.8967C34.0325 76.9312 34.1018 76.9527 34.1733 76.9599H36.2164C36.3645 76.9436 36.5011 76.8725 36.5994 76.7607C36.6978 76.6488 36.7508 76.5043 36.7481 76.3553L37.3891 62.6182C37.3993 62.5469 37.3949 62.4743 37.3761 62.4048C37.3574 62.3352 37.3247 62.2702 37.2801 62.2137C37.2355 62.1572 37.1799 62.1103 37.1166 62.0759C37.0533 62.0415 36.9837 62.0203 36.912 62.0137Z" fill="#F0F0F0"/>
<path d="M79.9153 76.9551H87.5996V64.3397H79.9153V76.9551Z" fill="#FAFAFA"/>
<path d="M88.3993 64.3457H86.968C86.7246 64.3457 86.5273 64.543 86.5273 64.7864V76.5205C86.5273 76.7638 86.7246 76.9611 86.968 76.9611H88.3993C88.6426 76.9611 88.8399 76.7638 88.8399 76.5205V64.7864C88.8399 64.543 88.6426 64.3457 88.3993 64.3457Z" fill="#F0F0F0"/>
<path d="M77.3274 76.9551H85.0117V64.3397H77.3274V76.9551Z" fill="#FAFAFA"/>
<path d="M85.8114 64.3457H84.3801C84.1367 64.3457 83.9395 64.543 83.9395 64.7864V76.5205C83.9395 76.7638 84.1367 76.9611 84.3801 76.9611H85.8114C86.0547 76.9611 86.252 76.7638 86.252 76.5205V64.7864C86.252 64.543 86.0547 64.3457 85.8114 64.3457Z" fill="#E6E6E6"/>
<path d="M75.3613 64.3457H81.9932L81.4651 76.9611H75.3613V64.3457Z" fill="#FAFAFA"/>
<path d="M82.8485 64.3457H81.3007C81.0895 64.3457 80.911 64.5751 80.8965 64.8556L80.4121 76.4513C80.4121 76.7317 80.5614 76.9611 80.7763 76.9611H82.3277C82.539 76.9611 82.7174 76.7317 82.7283 76.4513L83.2163 64.8556C83.2236 64.5751 83.0597 64.3457 82.8485 64.3457Z" fill="#F0F0F0"/>
<path d="M70.0071 76.9551H77.6914V64.3397H70.0071V76.9551Z" fill="#FAFAFA"/>
<path d="M78.4891 64.3457H77.0579C76.8145 64.3457 76.6172 64.543 76.6172 64.7864V76.5205C76.6172 76.7638 76.8145 76.9611 77.0579 76.9611H78.4891C78.7325 76.9611 78.9298 76.7638 78.9298 76.5205V64.7864C78.9298 64.543 78.7325 64.3457 78.4891 64.3457Z" fill="#F0F0F0"/>
<path d="M67.4211 76.9551H75.1055V64.3397H67.4211V76.9551Z" fill="#FAFAFA"/>
<path d="M75.9032 64.3457H74.4719C74.2285 64.3457 74.0312 64.543 74.0312 64.7864V76.5205C74.0312 76.7638 74.2285 76.9611 74.4719 76.9611H75.9032C76.1465 76.9611 76.3438 76.7638 76.3438 76.5205V64.7864C76.3438 64.543 76.1465 64.3457 75.9032 64.3457Z" fill="#E6E6E6"/>
<path d="M65.4531 64.3457H72.0813L71.5569 76.9611H65.4531V64.3457Z" fill="#FAFAFA"/>
<path d="M72.9408 64.3457H71.3894C71.1782 64.3457 70.9997 64.5751 70.9888 64.8556L70.5117 76.4513C70.5117 76.7317 70.6647 76.9611 70.8759 76.9611H72.4237C72.6349 76.9611 72.8134 76.7317 72.8279 76.4513L73.3123 64.8556C73.3123 64.5751 73.1521 64.3457 72.9408 64.3457Z" fill="#F0F0F0"/>
<path d="M55.5295 76.9609H60.8867V63.4023H55.5295V76.9609Z" fill="#FAFAFA"/>
<path d="M61.3716 63.3965H60.523C60.3118 63.3965 60.1406 63.5677 60.1406 63.7789V76.5728C60.1406 76.7839 60.3118 76.9551 60.523 76.9551H61.3716C61.5828 76.9551 61.754 76.7839 61.754 76.5728V63.7789C61.754 63.5677 61.5828 63.3965 61.3716 63.3965Z" fill="#F0F0F0"/>
<path d="M51.0692 76.9609H56.9727V62.0184H51.0692V76.9609Z" fill="#FAFAFA"/>
<path d="M57.5052 62.0137H56.5728C56.3395 62.0137 56.1504 62.2028 56.1504 62.4361V76.5338C56.1504 76.7671 56.3395 76.9562 56.5728 76.9562H57.5052C57.7385 76.9562 57.9276 76.7671 57.9276 76.5338V62.4361C57.9276 62.2028 57.7385 62.0137 57.5052 62.0137Z" fill="#F5F5F5"/>
<path d="M49.5566 62.0137H54.6516L54.2474 76.9599H49.5566V62.0137Z" fill="#FAFAFA"/>
<path d="M55.3102 62.0137H54.123C53.9627 62.0137 53.8207 62.2832 53.8134 62.6182L53.4492 76.3553C53.4492 76.6867 53.5621 76.9599 53.726 76.9599H54.9169C55.0771 76.9599 55.2155 76.6867 55.2265 76.3553L55.5906 62.6182C55.5797 62.2759 55.4705 62.0137 55.3102 62.0137Z" fill="#F0F0F0"/>
<path d="M30.8816 119.234H37.375V104.292H30.8816V119.234Z" fill="#FAFAFA"/>
<path d="M37.9838 104.287H36.9094C36.666 104.287 36.4688 104.484 36.4688 104.728V118.789C36.4688 119.032 36.666 119.23 36.9094 119.23H37.9838C38.2271 119.23 38.4244 119.032 38.4244 118.789V104.728C38.4244 104.484 38.2271 104.287 37.9838 104.287Z" fill="#F0F0F0"/>
<path d="M28.6999 119.234H35.1934V104.292H28.6999V119.234Z" fill="#FAFAFA"/>
<path d="M35.7982 104.287H34.7239C34.4805 104.287 34.2832 104.484 34.2832 104.728V118.789C34.2832 119.032 34.4805 119.23 34.7239 119.23H35.7982C36.0416 119.23 36.2389 119.032 36.2389 118.789V104.728C36.2389 104.484 36.0416 104.287 35.7982 104.287Z" fill="#E6E6E6"/>
<path d="M27.0371 104.293H32.6383L32.194 119.236H27.0371V104.293Z" fill="#FAFAFA"/>
<path d="M33.366 104.287H32.0549C31.8765 104.287 31.7235 104.56 31.7126 104.892L31.3047 118.629C31.3047 118.964 31.4322 119.233 31.6106 119.233H32.918C33.0965 119.233 33.2494 118.964 33.2604 118.629L33.6683 104.884C33.6792 104.56 33.5408 104.287 33.366 104.287Z" fill="#F0F0F0"/>
<path d="M85.2122 119.234H91.9824V106.619H85.2122V119.234Z" fill="#FAFAFA"/>
<path d="M92.6575 106.619H91.4484C91.2191 106.619 91.0332 106.805 91.0332 107.034V118.819C91.0332 119.049 91.2191 119.235 91.4484 119.235H92.6575C92.8868 119.235 93.0726 119.049 93.0726 118.819V107.034C93.0726 106.805 92.8868 106.619 92.6575 106.619Z" fill="#F0F0F0"/>
<path d="M82.9309 119.234H89.7012V106.619H82.9309V119.234Z" fill="#FAFAFA"/>
<path d="M90.3782 106.619H89.1691C88.9398 106.619 88.7539 106.805 88.7539 107.034V118.819C88.7539 119.049 88.9398 119.235 89.1691 119.235H90.3782C90.6075 119.235 90.7934 119.049 90.7934 118.819V107.034C90.7934 106.805 90.6075 106.619 90.3782 106.619Z" fill="#E6E6E6"/>
<path d="M81.1973 106.619H87.0388L86.5727 119.235H81.1973V106.619Z" fill="#FAFAFA"/>
<path d="M87.7971 106.619H86.4314C86.2457 106.619 86.0673 106.849 86.0673 107.129L85.6484 118.725C85.6484 119.005 85.7795 119.235 85.9653 119.235H87.331C87.5167 119.235 87.677 119.005 87.6952 118.725L88.1213 107.129C88.1249 106.849 87.9938 106.619 87.7971 106.619Z" fill="#F0F0F0"/>
<path d="M76.4778 119.234H83.248V106.619H76.4778V119.234Z" fill="#FAFAFA"/>
<path d="M83.9251 106.619H82.716C82.4867 106.619 82.3008 106.805 82.3008 107.034V118.819C82.3008 119.049 82.4867 119.235 82.716 119.235H83.9251C84.1543 119.235 84.3402 119.049 84.3402 118.819V107.034C84.3402 106.805 84.1543 106.619 83.9251 106.619Z" fill="#F0F0F0"/>
<path d="M74.1985 119.234H80.9688V106.619H74.1985V119.234Z" fill="#FAFAFA"/>
<path d="M81.6458 106.619H80.4367C80.2074 106.619 80.0215 106.805 80.0215 107.034V118.819C80.0215 119.049 80.2074 119.235 80.4367 119.235H81.6458C81.8751 119.235 82.0609 119.049 82.0609 118.819V107.034C82.0609 106.805 81.8751 106.619 81.6458 106.619Z" fill="#E6E6E6"/>
<path d="M72.4648 106.619H78.3064L77.8439 119.235H72.4648V106.619Z" fill="#FAFAFA"/>
<path d="M79.0647 106.619H77.699C77.5133 106.619 77.353 106.849 77.3348 107.129L76.916 118.725C76.916 119.005 77.0471 119.235 77.2329 119.235H78.5986C78.7843 119.235 78.9627 119.005 78.9627 118.725L79.3888 107.129C79.3925 106.849 79.2541 106.619 79.0647 106.619Z" fill="#F0F0F0"/>
<path d="M69.5243 119.234H74.2441V105.676H69.5243V119.234Z" fill="#FAFAFA"/>
<path d="M73.9462 105.676H74.6491C74.7457 105.676 74.8383 105.714 74.9066 105.782C74.9749 105.851 75.0133 105.943 75.0133 106.04V118.881C75.0133 118.978 74.9749 119.07 74.9066 119.139C74.8383 119.207 74.7457 119.245 74.6491 119.245H73.9462C73.8496 119.245 73.757 119.207 73.6887 119.139C73.6204 119.07 73.582 118.978 73.582 118.881V106.033C73.5839 105.937 73.6232 105.847 73.6912 105.78C73.7593 105.713 73.8509 105.676 73.9462 105.676Z" fill="#F0F0F0"/>
<path d="M65.5963 119.234H70.7969V104.292H65.5963V119.234Z" fill="#FAFAFA"/>
<path d="M71.2374 104.287H70.4653C70.2461 104.287 70.0684 104.465 70.0684 104.684V118.833C70.0684 119.052 70.2461 119.23 70.4653 119.23H71.2374C71.4566 119.23 71.6344 119.052 71.6344 118.833V104.684C71.6344 104.465 71.4566 104.287 71.2374 104.287Z" fill="#F5F5F5"/>
<path d="M64.2637 104.293H68.7541L68.3972 119.236H64.2637V104.293Z" fill="#FAFAFA"/>
<path d="M69.3334 104.287H68.2845C68.1425 104.287 68.0186 104.56 68.0114 104.892L67.6836 118.629C67.6836 118.964 67.7856 119.233 67.9276 119.233H68.9765C69.1185 119.233 69.2423 118.964 69.2496 118.629L69.5774 104.892C69.5846 104.56 69.4754 104.287 69.3334 104.287Z" fill="#F0F0F0"/>
<path d="M60.0268 98.957H70.1621V84.0145H60.0268V98.957Z" fill="#FAFAFA"/>
<path d="M71.2464 84.0098H69.3016C68.9959 84.0098 68.748 84.2576 68.748 84.5633V98.3988C68.748 98.7045 68.9959 98.9523 69.3016 98.9523H71.2464C71.5521 98.9523 71.7999 98.7045 71.7999 98.3988V84.5633C71.7999 84.2576 71.5521 84.0098 71.2464 84.0098Z" fill="#F0F0F0"/>
<path d="M56.6186 98.957H66.7539V84.0145H56.6186V98.957Z" fill="#FAFAFA"/>
<path d="M67.8323 84.0098H65.8875C65.5818 84.0098 65.334 84.2576 65.334 84.5633V98.3988C65.334 98.7045 65.5818 98.9523 65.8875 98.9523H67.8323C68.138 98.9523 68.3859 98.7045 68.3859 98.3988V84.5633C68.3859 84.2576 68.138 84.0098 67.8323 84.0098Z" fill="#E6E6E6"/>
<path d="M54.0215 84.0098H62.7656L62.07 98.956H54.0215V84.0098Z" fill="#FAFAFA"/>
<path d="M63.8986 84.0098H61.8555C61.7071 84.0253 61.57 84.0961 61.4715 84.2081C61.373 84.3202 61.3202 84.4652 61.3238 84.6143L60.6792 98.3514C60.669 98.4227 60.6734 98.4953 60.6921 98.5649C60.7109 98.6344 60.7435 98.6994 60.7881 98.7559C60.8328 98.8125 60.8884 98.8594 60.9517 98.8937C61.0149 98.9281 61.0845 98.9493 61.1562 98.956H63.1993C63.3474 98.9397 63.484 98.8686 63.5824 98.7568C63.6807 98.6449 63.7338 98.5003 63.731 98.3514L64.3684 84.6143C64.3786 84.5436 64.3744 84.4715 64.3561 84.4024C64.3378 84.3333 64.3058 84.2686 64.2619 84.2122C64.2181 84.1558 64.1633 84.1088 64.1009 84.074C64.0384 84.0392 63.9696 84.0174 63.8986 84.0098Z" fill="#F0F0F0"/>
<path d="M75.5641 98.9531H81.7734V86.3377H75.5641V98.9531Z" fill="#FAFAFA"/>
<path d="M82.3776 86.3398H81.3032C81.084 86.3398 80.9062 86.5176 80.9062 86.7368V98.5583C80.9062 98.7775 81.084 98.9553 81.3032 98.9553H82.3776C82.5968 98.9553 82.7745 98.7775 82.7745 98.5583V86.7368C82.7745 86.5176 82.5968 86.3398 82.3776 86.3398Z" fill="#F0F0F0"/>
<path d="M73.4742 98.9531H79.6836V86.3377H73.4742V98.9531Z" fill="#FAFAFA"/>
<path d="M80.2877 86.3398H79.2134C78.9941 86.3398 78.8164 86.5176 78.8164 86.7368V98.5583C78.8164 98.7775 78.9941 98.9553 79.2134 98.9553H80.2877C80.507 98.9553 80.6847 98.7775 80.6847 98.5583V86.7368C80.6847 86.5176 80.507 86.3398 80.2877 86.3398Z" fill="#E6E6E6"/>
<path d="M71.8828 86.3398H77.2436L76.8175 98.9553H71.8828V86.3398Z" fill="#FAFAFA"/>
<path d="M77.9339 86.3398H76.6811C76.51 86.3398 76.3643 86.5693 76.357 86.8497L75.9746 98.4454C75.9746 98.7258 76.0948 98.9553 76.266 98.9553H77.5188C77.6899 98.9553 77.8356 98.7258 77.8429 98.4454L78.2362 86.8497C78.2362 86.5693 78.1051 86.3398 77.9339 86.3398Z" fill="#F0F0F0"/>
<path d="M85.926 98.957H91.0684V88.5085H85.926V98.957Z" fill="#FAFAFA"/>
<path d="M91.5657 88.5039H90.6735C90.4924 88.5039 90.3457 88.6507 90.3457 88.8317V98.6246C90.3457 98.8057 90.4924 98.9524 90.6735 98.9524H91.5657C91.7467 98.9524 91.8935 98.8057 91.8935 98.6246V88.8317C91.8935 88.6507 91.7467 88.5039 91.5657 88.5039Z" fill="#F0F0F0"/>
<path d="M84.1917 98.957H89.334V88.5085H84.1917V98.957Z" fill="#FAFAFA"/>
<path d="M89.8372 88.5039H88.945C88.7639 88.5039 88.6172 88.6507 88.6172 88.8317V98.6246C88.6172 98.8057 88.7639 98.9524 88.945 98.9524H89.8372C90.0182 98.9524 90.165 98.8057 90.165 98.6246V88.8317C90.165 88.6507 90.0182 88.5039 89.8372 88.5039Z" fill="#E6E6E6"/>
<path d="M82.873 88.5039H87.3125L86.9592 98.9561H82.873V88.5039Z" fill="#FAFAFA"/>
<path d="M87.8874 88.4961H86.8495C86.7075 88.4961 86.5873 88.6855 86.58 88.9186L86.2559 98.5258C86.2559 98.7589 86.3542 98.9482 86.4962 98.9482H87.5342C87.6725 98.9482 87.7964 98.7589 87.8037 98.5258L88.1278 88.9186C88.1351 88.6928 88.0258 88.4961 87.8874 88.4961Z" fill="#F0F0F0"/>
<path d="M43.7805 98.9531H51.4648V86.3377H43.7805V98.9531Z" fill="#FAFAFA"/>
<path d="M52.2664 86.3398H50.8352C50.5918 86.3398 50.3945 86.5371 50.3945 86.7805V98.5146C50.3945 98.758 50.5918 98.9553 50.8352 98.9553H52.2664C52.5098 98.9553 52.7071 98.758 52.7071 98.5146V86.7805C52.7071 86.5371 52.5098 86.3398 52.2664 86.3398Z" fill="#F0F0F0"/>
<path d="M41.1985 98.9531H48.8828V86.3377H41.1985V98.9531Z" fill="#FAFAFA"/>
<path d="M49.6766 86.3398H48.2454C48.002 86.3398 47.8047 86.5371 47.8047 86.7805V98.5146C47.8047 98.758 48.002 98.9553 48.2454 98.9553H49.6766C49.92 98.9553 50.1173 98.758 50.1173 98.5146V86.7805C50.1173 86.5371 49.92 86.3398 49.6766 86.3398Z" fill="#E6E6E6"/>
<path d="M39.2305 86.3398H45.8623L45.3342 98.9553H39.2305V86.3398Z" fill="#FAFAFA"/>
<path d="M46.7165 86.3398H45.1687C45.0501 86.3595 44.9429 86.4225 44.8682 86.5168C44.7935 86.611 44.7565 86.7297 44.7645 86.8497L44.291 98.4454C44.291 98.7258 44.4403 98.9553 44.6552 98.9553H46.203C46.3216 98.9356 46.4288 98.8726 46.5035 98.7783C46.5782 98.6841 46.6152 98.5654 46.6072 98.4454L47.0916 86.8497C47.0916 86.5693 46.9277 86.3398 46.7165 86.3398Z" fill="#F0F0F0"/>
<path d="M33.0081 98.957H38.3652V85.3984H33.0081V98.957Z" fill="#FAFAFA"/>
<path d="M38.8462 85.3945H37.9976C37.7864 85.3945 37.6152 85.5657 37.6152 85.7769V98.5708C37.6152 98.782 37.7864 98.9532 37.9976 98.9532H38.8462C39.0574 98.9532 39.2286 98.782 39.2286 98.5708V85.7769C39.2286 85.5657 39.0574 85.3945 38.8462 85.3945Z" fill="#F0F0F0"/>
<path d="M28.5477 98.957H34.4512V84.0145H28.5477V98.957Z" fill="#FAFAFA"/>
<path d="M34.9798 84.0098H34.0475C33.8141 84.0098 33.625 84.1989 33.625 84.4322V98.5299C33.625 98.7632 33.8141 98.9523 34.0475 98.9523H34.9798C35.2131 98.9523 35.4022 98.7632 35.4022 98.5299V84.4322C35.4022 84.1989 35.2131 84.0098 34.9798 84.0098Z" fill="#F5F5F5"/>
<path d="M27.0371 84.0098H32.1321L31.7278 98.956H27.0371V84.0098Z" fill="#FAFAFA"/>
<path d="M32.7904 84.0098H31.5995C31.4356 84.0098 31.2973 84.2829 31.29 84.6143L30.9258 98.3514C30.9258 98.6828 31.0423 98.956 31.2062 98.956H32.3825C32.5464 98.956 32.6848 98.6828 32.6921 98.3514L33.0563 84.6143C33.0745 84.2829 32.9507 84.0098 32.7904 84.0098Z" fill="#F0F0F0"/>
<path d="M57.1626 119.234H64.6758V103.094H57.1626V119.234Z" fill="#FAFAFA"/>
<path d="M65.3913 103.094H64.1203C63.8468 103.094 63.625 103.316 63.625 103.589V118.739C63.625 119.013 63.8468 119.234 64.1203 119.234H65.3913C65.6648 119.234 65.8866 119.013 65.8866 118.739V103.589C65.8866 103.316 65.6648 103.094 65.3913 103.094Z" fill="#F0F0F0"/>
<path d="M54.6333 119.234H62.1465V103.094H54.6333V119.234Z" fill="#FAFAFA"/>
<path d="M62.862 103.094H61.591C61.3175 103.094 61.0957 103.316 61.0957 103.589V118.739C61.0957 119.013 61.3175 119.234 61.591 119.234H62.862C63.1356 119.234 63.3573 119.013 63.3573 118.739V103.589C63.3573 103.316 63.1356 103.094 62.862 103.094Z" fill="#E6E6E6"/>
<path d="M52.707 103.094H59.1895L58.676 119.234H52.707V103.094Z" fill="#FAFAFA"/>
<path d="M60.0319 103.094H58.5169C58.3093 103.094 58.1309 103.385 58.1199 103.746L57.6465 118.583C57.6465 118.947 57.7922 119.234 58.0107 119.234H59.5257C59.7333 119.234 59.8899 118.943 59.919 118.583L60.3925 103.746C60.3961 103.385 60.2359 103.094 60.0319 103.094Z" fill="#F0F0F0"/>
<path d="M45.9577 119.234H52.4512V105.184H45.9577V119.234Z" fill="#FAFAFA"/>
<path d="M53.0728 105.184H51.9766C51.7393 105.184 51.5469 105.376 51.5469 105.613V118.804C51.5469 119.042 51.7393 119.234 51.9766 119.234H53.0728C53.3102 119.234 53.5026 119.042 53.5026 118.804V105.613C53.5026 105.376 53.3102 105.184 53.0728 105.184Z" fill="#F0F0F0"/>
<path d="M43.7741 119.234H50.2676V105.184H43.7741V119.234Z" fill="#FAFAFA"/>
<path d="M50.8873 105.184H49.7911C49.5537 105.184 49.3613 105.376 49.3613 105.613V118.804C49.3613 119.042 49.5537 119.234 49.7911 119.234H50.8873C51.1246 119.234 51.317 119.042 51.317 118.804V105.613C51.317 105.376 51.1246 105.184 50.8873 105.184Z" fill="#E6E6E6"/>
<path d="M42.1133 105.184H47.7145L47.2702 119.234H42.1133V105.184Z" fill="#FAFAFA"/>
<path d="M48.4385 105.184H47.1311C46.9526 105.184 46.7997 105.439 46.7887 105.752L46.3809 118.666C46.3809 118.979 46.5047 119.234 46.6831 119.234H47.9942C48.1727 119.234 48.3256 118.979 48.3329 118.666L48.7444 105.752C48.7554 105.439 48.617 105.184 48.4385 105.184Z" fill="#F0F0F0"/>
<path d="M92.0008 135.681C130.999 135.681 162.613 133.835 162.613 131.558C162.613 129.281 130.999 127.436 92.0008 127.436C53.0028 127.436 21.3887 129.281 21.3887 131.558C21.3887 133.835 53.0028 135.681 92.0008 135.681Z" fill="#F5F5F5"/>
<path d="M84.7649 130.604C84.8016 130.717 84.8106 130.836 84.7908 130.953C84.7711 131.069 84.7233 131.179 84.6516 131.273C84.58 131.367 84.4865 131.442 84.3793 131.492C84.2722 131.541 84.1545 131.564 84.0365 131.558H33.3053C31.7211 131.558 31.7211 121.241 33.3053 121.241H84.0511C84.1687 121.235 84.2859 121.258 84.3926 121.308C84.4994 121.357 84.5926 121.432 84.6642 121.526C84.7358 121.619 84.7837 121.728 84.8038 121.844C84.8238 121.96 84.8155 122.08 84.7794 122.192C84.1458 124.158 84.1458 128.641 84.7649 130.604Z" fill="#407BFF"/>
<path opacity="0.8" d="M84.6923 122.447H53.9076C52.6949 122.447 52.6949 130.354 53.9076 130.354H84.6923C84.1715 128.369 84.1715 124.428 84.6923 122.447Z" fill="white"/>
<path opacity="0.2" d="M52.3741 130.604C52.4109 130.717 52.4198 130.836 52.4001 130.953C52.3804 131.069 52.3326 131.179 52.2609 131.273C52.1892 131.367 52.0958 131.442 51.9886 131.492C51.8814 131.541 51.7638 131.564 51.6458 131.558H33.3053C31.7211 131.558 31.7211 121.241 33.3053 121.241H51.6603C51.7779 121.235 51.8951 121.258 52.0019 121.308C52.1087 121.357 52.2019 121.432 52.2735 121.526C52.3451 121.619 52.393 121.728 52.413 121.844C52.4331 121.96 52.4247 122.08 52.3887 122.192C51.755 124.158 51.755 128.641 52.3741 130.604Z" fill="black"/>
<path d="M41.128 121.242H36.9362C35.352 121.242 35.352 131.56 36.9362 131.56H41.128C39.5583 131.56 39.5583 121.242 41.128 121.242Z" fill="#407BFF"/>
<path d="M44.43 121.242H42.7839C41.1997 121.242 41.1997 131.56 42.7839 131.56H44.43C42.8348 131.56 42.8348 121.242 44.43 121.242Z" fill="#407BFF"/>
<path d="M30.3477 120.385C30.1729 120.807 30.6027 121.241 31.1854 121.241H76.8106C78.6716 121.241 78.6716 111.965 76.8106 111.965H31.1817C30.599 111.965 30.1693 112.395 30.3441 112.821C31.0725 114.587 31.0725 118.619 30.3477 120.385Z" fill="#263238"/>
<path opacity="0.2" d="M30.3477 120.385C30.1729 120.807 30.6027 121.241 31.1854 121.241H53.5573C55.4183 121.241 55.4183 111.965 53.5573 111.965H31.1817C30.599 111.965 30.1693 112.395 30.3441 112.821C31.0725 114.587 31.0725 118.619 30.3477 120.385Z" fill="black"/>
<path opacity="0.8" d="M30.4277 113.047H52.6431C54.0671 113.047 54.0671 120.156 52.6431 120.156H30.4277C31.0396 118.36 31.0396 114.831 30.4277 113.047Z" fill="white"/>
<path opacity="0.2" d="M60.0217 114.035C59.8833 113.623 60.2839 113.223 60.8374 113.223H73.6095C74.9642 113.223 74.9642 119.982 73.6095 119.982H60.8374C60.2839 119.982 59.8833 119.585 60.0217 119.173C60.4587 117.488 60.4587 115.72 60.0217 114.035Z" fill="white"/>
<path d="M152.359 116.245C152.399 116.368 152.411 116.499 152.393 116.628C152.374 116.756 152.327 116.878 152.254 116.986C152.182 117.093 152.085 117.182 151.973 117.246C151.86 117.31 151.734 117.348 151.605 117.356H97.9967C96.3214 117.356 96.3214 105.338 97.9967 105.338H151.605C151.732 105.347 151.856 105.384 151.967 105.447C152.077 105.51 152.173 105.598 152.245 105.703C152.318 105.808 152.365 105.927 152.385 106.054C152.405 106.18 152.396 106.308 152.359 106.43C151.707 108.743 151.707 113.962 152.359 116.245Z" fill="#407BFF"/>
<path opacity="0.5" d="M152.359 116.245C152.399 116.368 152.411 116.499 152.393 116.628C152.374 116.756 152.327 116.878 152.254 116.986C152.182 117.093 152.085 117.182 151.973 117.246C151.86 117.31 151.734 117.348 151.605 117.356H97.9967C96.3214 117.356 96.3214 105.338 97.9967 105.338H151.605C151.732 105.347 151.856 105.384 151.967 105.447C152.077 105.51 152.173 105.598 152.245 105.703C152.318 105.808 152.365 105.927 152.385 106.054C152.405 106.18 152.396 106.308 152.359 106.43C151.707 108.743 151.707 113.962 152.359 116.245Z" fill="white"/>
<path opacity="0.8" d="M152.284 106.75H119.758C118.476 106.75 118.476 115.949 119.758 115.949H152.284C151.727 113.644 151.727 109.059 152.284 106.75Z" fill="white"/>
<path opacity="0.6" d="M118.14 116.245C118.18 116.368 118.192 116.499 118.174 116.628C118.155 116.756 118.108 116.878 118.035 116.986C117.963 117.093 117.866 117.182 117.754 117.246C117.641 117.31 117.515 117.348 117.386 117.356H97.9967C96.3214 117.356 96.3214 105.338 97.9967 105.338H117.386C117.513 105.347 117.637 105.384 117.748 105.447C117.859 105.51 117.954 105.598 118.026 105.703C118.099 105.808 118.146 105.927 118.166 106.054C118.186 106.18 118.177 106.308 118.14 106.43C117.495 108.743 117.495 113.962 118.14 116.245Z" fill="#407BFF"/>
<path opacity="0.5" d="M110.272 106.236C110.31 106.142 110.325 106.04 110.317 105.939C110.308 105.838 110.276 105.741 110.223 105.654C110.17 105.568 110.097 105.495 110.011 105.442C109.924 105.388 109.827 105.356 109.726 105.348H102.333C100.657 105.348 100.657 117.366 102.333 117.366H109.726C109.827 117.357 109.925 117.324 110.011 117.27C110.097 117.217 110.17 117.144 110.223 117.057C110.276 116.97 110.308 116.872 110.317 116.771C110.325 116.67 110.31 116.568 110.272 116.474C109.525 114.241 109.525 108.461 110.272 106.236Z" fill="white"/>
<path d="M148.511 130.238C148.555 130.398 148.559 130.565 148.524 130.727C148.49 130.889 148.417 131.04 148.313 131.168C148.208 131.296 148.074 131.398 147.923 131.464C147.771 131.53 147.606 131.559 147.441 131.549H91.742C89.3639 131.549 89.3602 117.346 91.742 117.346H147.463C147.628 117.335 147.793 117.365 147.944 117.431C148.096 117.497 148.23 117.598 148.334 117.726C148.439 117.855 148.512 118.006 148.546 118.168C148.581 118.329 148.576 118.497 148.533 118.657C147.583 121.363 147.586 127.536 148.511 130.238Z" fill="#407BFF"/>
<path opacity="0.2" d="M148.511 130.238C148.555 130.398 148.559 130.565 148.524 130.727C148.49 130.889 148.417 131.04 148.313 131.168C148.208 131.296 148.074 131.398 147.923 131.464C147.771 131.53 147.606 131.559 147.441 131.549H91.742C89.3639 131.549 89.3602 117.346 91.742 117.346H147.463C147.628 117.335 147.793 117.365 147.944 117.431C148.096 117.497 148.23 117.598 148.334 117.726C148.439 117.855 148.512 118.006 148.546 118.168C148.581 118.329 148.576 118.497 148.533 118.657C147.583 121.363 147.586 127.536 148.511 130.238Z" fill="white"/>
<path opacity="0.8" d="M148.403 119.006H114.727C112.906 119.006 112.906 129.888 114.727 129.888H148.407C147.628 127.16 147.628 121.737 148.403 119.006Z" fill="white"/>
<path opacity="0.6" d="M112.424 130.244C112.468 130.403 112.473 130.571 112.439 130.733C112.405 130.895 112.333 131.046 112.228 131.174C112.124 131.303 111.99 131.404 111.839 131.47C111.687 131.536 111.522 131.565 111.357 131.555H91.742C89.3639 131.555 89.3602 117.352 91.742 117.352H111.357C111.522 117.341 111.687 117.37 111.839 117.437C111.991 117.503 112.124 117.604 112.229 117.732C112.334 117.86 112.406 118.012 112.441 118.174C112.475 118.335 112.471 118.503 112.428 118.663C111.499 121.369 111.499 127.538 112.424 130.244Z" fill="#407BFF"/>
<path opacity="0.5" d="M100.676 117.849C100.707 117.796 100.722 117.737 100.721 117.677C100.72 117.617 100.702 117.558 100.67 117.507C100.637 117.456 100.592 117.415 100.538 117.389C100.484 117.362 100.423 117.351 100.363 117.357H97.0309C94.6564 117.357 94.6564 131.56 97.0309 131.56H100.378C100.438 131.566 100.498 131.555 100.552 131.528C100.606 131.502 100.652 131.461 100.684 131.41C100.717 131.359 100.734 131.3 100.736 131.24C100.737 131.18 100.721 131.12 100.691 131.068C99.2451 128.872 99.2451 120.041 100.676 117.849Z" fill="white"/>
<path opacity="0.5" d="M105.876 117.846C105.906 117.794 105.921 117.734 105.919 117.674C105.918 117.614 105.9 117.555 105.868 117.504C105.836 117.453 105.791 117.412 105.737 117.385C105.683 117.358 105.622 117.346 105.562 117.351H102.23C99.8556 117.351 99.8556 131.554 102.23 131.554H105.562C105.622 131.559 105.682 131.547 105.735 131.52C105.789 131.493 105.834 131.452 105.866 131.402C105.898 131.351 105.915 131.293 105.916 131.233C105.917 131.173 105.902 131.114 105.872 131.062C104.444 128.87 104.444 120.035 105.876 117.846Z" fill="white"/>
<path d="M147.965 97.7909C147.9 96.7794 147.662 95.7866 147.262 94.8556L147.589 94.6953C148.006 95.6658 148.252 96.7006 148.318 97.7545L147.965 97.7909Z" fill="#407BFF"/>
<path d="M145.681 93.2793H136.635V93.6435H145.681V93.2793Z" fill="#407BFF"/>
<path d="M86.7236 104.353C86.5379 104.848 86.9931 105.347 87.6086 105.347H145.682C147.645 105.347 147.645 94.5527 145.682 94.5527H87.6086C86.9931 94.5527 86.5379 95.0553 86.7236 95.5506C87.4884 97.601 87.4884 102.295 86.7236 104.353Z" fill="#407BFF"/>
<path opacity="0.2" d="M86.7236 104.353C86.5379 104.848 86.9931 105.347 87.6086 105.347H121.114C123.08 105.347 123.08 94.5527 121.114 94.5527H87.6086C86.9931 94.5527 86.5379 95.0553 86.7236 95.5506C87.4884 97.601 87.4884 102.295 86.7236 104.353Z" fill="black"/>
<path opacity="0.8" d="M86.8105 95.8164H120.141C121.649 95.8164 121.649 104.087 120.141 104.087H86.8105C87.4552 102.011 87.4552 97.8923 86.8105 95.8164Z" fill="white"/>
<path opacity="0.2" d="M127.943 96.9611C127.797 96.484 128.22 96.0215 128.802 96.0215H142.299C143.73 96.0215 143.73 103.884 142.299 103.884H128.802C128.22 103.884 127.797 103.422 127.943 102.941C128.42 101.43 128.42 98.4761 127.943 96.9611Z" fill="white"/>
<path d="M81.2912 15.6591C79.6487 17.4181 75.639 15.6591 75.0271 20.5028C74.3643 25.7252 76.8772 28.2345 73.6323 29.6075C68.5337 31.7379 64.8918 40.2526 71.9716 43.4465C79.0514 46.6405 94.1287 43.2936 92.4316 36.7856C90.7345 30.2776 91.0696 26.785 93.0726 23.7186C95.7129 19.6652 95.1484 14.4573 92.9961 12.5708C89.6456 9.62091 85.0168 11.6531 81.2912 15.6591Z" fill="#263238"/>
<path d="M90.054 36.6115C90.0262 36.6126 89.999 36.603 89.9781 36.5847C89.9571 36.5665 89.9439 36.5409 89.9411 36.5132C89.9385 36.4986 89.939 36.4835 89.9424 36.4691C89.9458 36.4546 89.9521 36.441 89.961 36.4291C89.9699 36.4171 89.9811 36.4071 89.9939 36.3997C90.0068 36.3922 90.021 36.3875 90.0358 36.3857C91.4416 36.1927 92.2792 35.8467 92.6725 35.2932C93.1605 34.6049 92.9493 33.5815 92.6725 32.285C92.2428 30.1763 91.6491 27.2884 93.5429 23.6392C95.8409 19.2143 94.9997 14.3634 92.8473 12.7755C92.8233 12.758 92.8072 12.7318 92.8024 12.7025C92.7977 12.6731 92.8046 12.6431 92.8218 12.6189C92.84 12.5947 92.8669 12.5785 92.8968 12.5737C92.9267 12.569 92.9573 12.576 92.9821 12.5934C95.2255 14.2359 96.0922 19.218 93.7432 23.7448C91.8895 27.3211 92.4722 30.1654 92.8947 32.2413C93.1714 33.5888 93.39 34.6558 92.8437 35.4243C92.4139 36.0325 91.529 36.4076 90.0577 36.6115H90.054Z" fill="#263238"/>
<path d="M71.692 30.302C71.4619 30.301 71.2321 30.2864 71.0037 30.2583C70.9888 30.2565 70.9744 30.2517 70.9614 30.2443C70.9484 30.2369 70.937 30.227 70.9278 30.2151C70.9187 30.2033 70.912 30.1897 70.9081 30.1752C70.9042 30.1607 70.9033 30.1456 70.9054 30.1308C70.9071 30.1159 70.9119 30.1015 70.9193 30.0885C70.9267 30.0755 70.9366 30.0641 70.9485 30.0549C70.9603 30.0458 70.9739 30.0391 70.9884 30.0352C71.0029 30.0314 71.018 30.0304 71.0328 30.0325C72.0671 30.1599 72.8173 30.007 73.3235 29.5627C74.2704 28.7287 74.285 26.9842 74.2959 24.963C74.2959 22.6759 74.3287 20.0865 75.8109 18.3202C75.8205 18.3088 75.8322 18.2993 75.8455 18.2923C75.8587 18.2854 75.8732 18.2811 75.888 18.2798C75.9029 18.2784 75.9179 18.28 75.9322 18.2844C75.9465 18.2889 75.9597 18.2961 75.9712 18.3057C75.9827 18.3152 75.9921 18.327 75.9991 18.3402C76.006 18.3534 76.0103 18.3679 76.0117 18.3828C76.013 18.3976 76.0114 18.4126 76.007 18.4269C76.0025 18.4412 75.9953 18.4544 75.9857 18.4659C74.5545 20.1703 74.529 22.716 74.529 24.9666C74.529 27.0389 74.5035 28.8307 73.4801 29.7338C72.9756 30.1391 72.338 30.3417 71.692 30.302Z" fill="#263238"/>
<path d="M107.437 94.5457C105.008 94.5165 104.054 94.3636 102.936 94.3818C101.818 94.4 101.552 94.5967 100.387 94.5457C99.6001 94.5129 99.5965 93.5769 99.8988 92.936C100.136 92.4334 100.427 91.9272 100.696 91.3008L103.777 91.5266C104.193 92.6993 106.254 93.2018 108.06 93.617C108.778 93.7882 108.41 94.5566 107.437 94.5457Z" fill="#407BFF"/>
<path d="M91.3739 49.8053C91.3739 49.8053 99.5244 56.8158 107.762 64.2525C111.244 67.4027 103.942 91.4208 103.942 91.4208C103.789 91.9343 101.072 91.2023 100.664 90.7981C100.664 90.7981 100.249 72.1554 102.015 68.4006C83.7478 63.7827 80.8926 54.8128 80.8926 54.8128L82.2037 49.248L91.3739 49.8053Z" fill="#263238"/>
<path opacity="0.2" d="M82.0977 57.023C83.1202 58.4522 84.3318 59.7361 85.6995 60.8396C87.5204 58.7091 87.0105 55.2676 87.0105 55.2676L82.0977 57.023Z" fill="black"/>
<path d="M104.574 90.3836C104.523 90.7478 104.436 91.3924 104.389 91.8695C104.381 91.9468 104.345 92.0183 104.287 92.0697C104.228 92.1211 104.153 92.1485 104.075 92.1463C102.857 92.0507 101.65 91.841 100.47 91.5199C100.413 91.5042 100.363 91.4705 100.327 91.4239C100.291 91.3773 100.271 91.3202 100.27 91.2613L100.244 89.932C100.244 89.8888 100.253 89.846 100.27 89.8064C100.287 89.7668 100.313 89.7313 100.345 89.7022C100.377 89.673 100.414 89.6508 100.455 89.6371C100.496 89.6234 100.54 89.6184 100.583 89.6225L104.341 90.0777C104.377 90.0817 104.412 90.0929 104.443 90.1106C104.474 90.1283 104.501 90.1522 104.523 90.1808C104.545 90.2094 104.561 90.2421 104.57 90.277C104.578 90.3118 104.58 90.3481 104.574 90.3836Z" fill="#263238"/>
<path opacity="0.3" d="M104.574 90.3836C104.523 90.7478 104.436 91.3924 104.389 91.8695C104.381 91.9468 104.345 92.0183 104.287 92.0697C104.228 92.1211 104.153 92.1485 104.075 92.1463C102.857 92.0507 101.65 91.841 100.47 91.5199C100.413 91.5042 100.363 91.4705 100.327 91.4239C100.291 91.3773 100.271 91.3202 100.27 91.2613L100.244 89.932C100.244 89.8888 100.253 89.846 100.27 89.8064C100.287 89.7668 100.313 89.7313 100.345 89.7022C100.377 89.673 100.414 89.6508 100.455 89.6371C100.496 89.6234 100.54 89.6184 100.583 89.6225L104.341 90.0777C104.377 90.0817 104.412 90.0929 104.443 90.1106C104.474 90.1283 104.501 90.1522 104.523 90.1808C104.545 90.2094 104.561 90.2421 104.57 90.277C104.578 90.3118 104.58 90.3481 104.574 90.3836Z" fill="white"/>
<path d="M71.776 111.966C69.3068 111.966 68.4983 111.037 67.118 110.782C65.9526 110.564 65.6431 110.666 64.7035 110.502C63.9168 110.364 63.8549 109.825 64.3393 109.027C64.6553 108.476 64.9233 107.898 65.1405 107.301L68.8843 107.548C69.274 108.55 70.1735 110.586 71.5465 110.826C72.8394 111.077 72.7593 111.966 71.776 111.966Z" fill="#407BFF"/>
<path d="M90.8075 49.7826C90.8075 49.7826 82.1945 65.0967 78.7274 74.5692C75.0856 84.5187 69.2877 100.791 68.8689 107.546C68.2498 107.841 66.2176 107.728 65.1251 107.299C65.1251 107.299 64.1126 83.9907 71.1232 74.6529C72.7948 54.6554 75.5699 51.4579 78.5198 49.0215L90.8075 49.7826Z" fill="#263238"/>
<path d="M69.3218 106.166C69.2771 106.627 69.2649 107.09 69.2854 107.553C69.2904 107.634 69.2633 107.713 69.2101 107.774C69.1569 107.835 69.0818 107.872 69.0013 107.877C67.6065 108.005 65.6617 107.557 65.0462 107.404C64.989 107.39 64.9381 107.357 64.9013 107.311C64.8644 107.265 64.8437 107.208 64.8423 107.149L64.795 105.845C64.7943 105.802 64.8026 105.76 64.8193 105.72C64.836 105.681 64.8607 105.645 64.8919 105.616C64.923 105.586 64.9599 105.564 65.0003 105.549C65.0407 105.535 65.0836 105.529 65.1264 105.532L69.0741 105.871C69.1099 105.873 69.1448 105.883 69.1767 105.9C69.2086 105.916 69.2369 105.939 69.26 105.966C69.283 105.994 69.3004 106.025 69.311 106.06C69.3216 106.094 69.3253 106.13 69.3218 106.166Z" fill="#263238"/>
<path opacity="0.3" d="M69.3218 106.166C69.2771 106.627 69.2649 107.09 69.2854 107.553C69.2904 107.634 69.2633 107.713 69.2101 107.774C69.1569 107.835 69.0818 107.872 69.0013 107.877C67.6065 108.005 65.6617 107.557 65.0462 107.404C64.989 107.39 64.9381 107.357 64.9013 107.311C64.8644 107.265 64.8437 107.208 64.8423 107.149L64.795 105.845C64.7943 105.802 64.8026 105.76 64.8193 105.72C64.836 105.681 64.8607 105.645 64.8919 105.616C64.923 105.586 64.9599 105.564 65.0003 105.549C65.0407 105.535 65.0836 105.529 65.1264 105.532L69.0741 105.871C69.1099 105.873 69.1448 105.883 69.1767 105.9C69.2086 105.916 69.2369 105.939 69.26 105.966C69.283 105.994 69.3004 106.025 69.311 106.06C69.3216 106.094 69.3253 106.13 69.3218 106.166Z" fill="white"/>
<path d="M93.093 34.7606C93.4572 35.449 93.8505 36.2174 94.2512 36.9458C94.6518 37.6741 95.056 38.4025 95.4639 39.1127C96.287 40.5439 97.1464 41.946 98.0678 43.268L97.5725 42.8274C97.938 43.0843 98.3409 43.2833 98.7671 43.4174C99.2826 43.5903 99.8112 43.7218 100.348 43.8107C100.908 43.9127 101.491 43.9818 102.085 44.0365C102.678 44.0911 103.301 44.1239 103.869 44.1603H103.946C104.182 44.1739 104.407 44.2694 104.581 44.4305C104.754 44.5916 104.867 44.8081 104.898 45.043C104.929 45.2778 104.878 45.5163 104.753 45.7174C104.628 45.9185 104.436 46.0698 104.212 46.1451C103.561 46.3616 102.895 46.5296 102.22 46.6477C101.541 46.7684 100.854 46.8426 100.166 46.8698C99.4346 46.8979 98.7027 46.854 97.9804 46.7387C97.1652 46.6159 96.377 46.3548 95.6496 45.9667C95.4984 45.8841 95.3638 45.7742 95.2527 45.6425L95.1543 45.526C94.5753 44.834 94.0108 44.1275 93.4936 43.4028C92.9765 42.6781 92.4703 41.946 92.0005 41.2177C91.5307 40.4893 91.0754 39.7136 90.6457 38.9452C90.216 38.1767 89.8081 37.4156 89.4184 36.5743C89.2138 36.0963 89.1995 35.5581 89.3785 35.0699C89.5575 34.5817 89.9162 34.1803 90.3813 33.9477C90.8464 33.7152 91.3827 33.6691 91.8807 33.8188C92.3786 33.9686 92.8006 34.3029 93.0603 34.7534L93.093 34.7606Z" fill="#FFB573"/>
<path d="M91.082 31.8203C93.4601 32.6033 93.8461 33.6704 95.1499 37.6109C94.2832 39.9744 90.7797 41.1726 90.7797 41.1726C90.7797 41.1726 86.6425 34.4352 91.082 31.8203Z" fill="#407BFF"/>
<path d="M94.3377 36.9491C94.203 38.2529 93.8679 39.808 93.165 42.8635C92.6188 45.4565 92.6115 50.5114 91.7374 50.7773C90.0585 51.6076 85.8558 51.2871 78.5211 49.0219C78.7542 45.2343 79.1948 42.6632 77.9348 33.9737C77.8555 33.5182 77.8787 33.0507 78.0029 32.6052C78.127 32.1598 78.3489 31.7477 78.6524 31.3988C78.9559 31.05 79.3334 30.7732 79.7573 30.5886C80.1813 30.404 80.6411 30.3163 81.1032 30.3318C81.6349 30.3318 82.1957 30.3755 82.7675 30.4265C84.7847 30.5479 86.7905 30.8144 88.7693 31.2241C89.4139 31.3698 90.0804 31.5409 90.7141 31.7157C91.8301 32.0345 92.8011 32.7302 93.4618 33.6844C94.1225 34.6386 94.432 35.7923 94.3377 36.9491Z" fill="#407BFF"/>
<path d="M68.6617 52.0116L69.39 51.3451C69.5256 51.2212 69.6294 51.0666 69.6928 50.8942C69.7562 50.7218 69.7772 50.5368 69.7542 50.3545L69.5539 48.6174C69.5156 48.276 69.3965 47.9486 69.2065 47.6623C69.0165 47.3761 68.7611 47.1392 68.4613 46.9713L68.0972 46.7637C66.797 47.787 66.1451 49.8483 66.1451 49.8483L65.8938 50.4165C65.8386 50.5313 65.8067 50.656 65.8001 50.7833C65.7935 50.9106 65.8123 51.0379 65.8553 51.1579C65.8983 51.2778 65.9648 51.388 66.0508 51.4821C66.1368 51.5761 66.2407 51.6521 66.3564 51.7057L67.4744 52.2155C67.671 52.2993 67.8875 52.3247 68.0981 52.2885C68.3087 52.2523 68.5043 52.1562 68.6617 52.0116Z" fill="#FFB573"/>
<path d="M106.89 43.2647L105.958 42.9005C105.785 42.8353 105.6 42.8125 105.416 42.8341C105.233 42.8556 105.058 42.9209 104.905 43.0243L103.449 44.0003C103.163 44.1927 102.927 44.4508 102.762 44.7531C102.596 45.0554 102.506 45.393 102.498 45.7375V46.1709C104.002 46.8556 106.14 46.4841 106.14 46.4841L106.759 46.4477C106.886 46.4435 107.012 46.414 107.128 46.3611C107.244 46.3082 107.348 46.2329 107.435 46.1394C107.521 46.046 107.589 45.9363 107.633 45.8166C107.677 45.697 107.697 45.5699 107.691 45.4425L107.633 44.2152C107.616 44.0013 107.537 43.7971 107.405 43.6281C107.273 43.4591 107.094 43.3327 106.89 43.2647Z" fill="#FFB573"/>
<path d="M80.1044 35.1463L79.6382 35.3611L79.1284 35.5942C78.7897 35.7581 78.4546 35.9293 78.1196 36.1041C77.4458 36.4683 76.7903 36.8324 76.1457 37.2148C75.5011 37.5972 74.8783 38.0233 74.2737 38.4567C73.6692 38.8901 73.1084 39.3635 72.5621 39.8479L72.8024 39.542C72.6249 39.8032 72.469 40.0784 72.3363 40.365C72.176 40.6965 72.0267 41.057 71.881 41.4248C71.5897 42.1532 71.3056 42.9326 71.0434 43.7156C70.7812 44.4986 70.5153 45.2925 70.2568 46.0864L69.4701 48.4791C69.3939 48.7141 69.2349 48.9135 69.0227 49.0401C68.8105 49.1667 68.5595 49.2119 68.3165 49.1674C68.0734 49.1229 67.8548 48.9917 67.7013 48.7981C67.5477 48.6045 67.4697 48.3617 67.4817 48.1149C67.5217 47.2372 67.6019 46.385 67.7002 45.5256C67.7985 44.6661 67.9223 43.8103 68.0644 42.9508C68.2064 42.0913 68.3921 41.2282 68.6289 40.3541C68.7454 39.9171 68.8729 39.4801 69.0331 39.0212C69.2024 38.5161 69.4194 38.0283 69.6814 37.5645C69.7273 37.4885 69.7797 37.4166 69.838 37.3496L69.9254 37.2585C70.5253 36.5971 71.1676 35.9755 71.8483 35.3975C72.5191 34.8274 73.2219 34.296 73.9533 33.8061C74.675 33.3168 75.4227 32.867 76.193 32.4586C76.579 32.2546 76.9687 32.0616 77.3657 31.8722C77.566 31.7812 77.7627 31.6865 77.9702 31.5991C78.1778 31.5117 78.3672 31.4352 78.6258 31.3369C79.1217 31.1386 79.6757 31.1432 80.1684 31.3496C80.661 31.5561 81.0527 31.9478 81.2591 32.4405C81.4655 32.9331 81.4701 33.4871 81.2718 33.983C81.0735 34.479 80.6882 34.8771 80.1991 35.0916L80.1044 35.1463Z" fill="#FFB573"/>
<path d="M83.6225 31.2786C81.8379 30.0003 80.7527 29.8619 76.4334 31.7375C75.9199 34.4543 77.6025 38.4421 77.6025 38.4421C77.6025 38.4421 83.3493 35.4485 83.6225 31.2786Z" fill="#407BFF"/>
<path d="M84.0882 23.7109C84.3541 25.7103 84.5253 29.334 83.0977 30.4557C83.0977 30.4557 84.9623 30.4229 88.5277 33.34C89.8642 31.8833 89.0994 31.2532 89.0994 31.2532C86.9762 30.4484 87.1256 28.8423 87.5881 27.3747L84.0882 23.7109Z" fill="#FFB573"/>
<path d="M87.7758 32.7492C86.4756 32.7492 85.8164 34.6393 85.8164 34.6393C85.8164 34.6393 82.6917 32.1483 82.2656 30.3965C82.6804 30.2292 83.0864 30.0408 83.482 29.832C83.482 29.832 87.1275 31.9115 87.7758 32.7492Z" fill="white"/>
<path d="M89.0211 32.7032C89.0211 32.7032 90.0044 33.0674 90.3285 34.5242C90.995 31.7491 89.6949 31.312 89.6949 31.312C89.3691 31.0677 88.964 30.9535 88.5586 30.9915C88.8244 31.1771 89.0165 31.4503 89.101 31.7633C89.1856 32.0763 89.1573 32.409 89.0211 32.7032Z" fill="white"/>
<path opacity="0.2" d="M85.5161 25.2051L87.5847 27.3902C87.472 27.7318 87.3904 28.0828 87.3407 28.4391C86.5249 28.2096 85.4469 27.1498 85.4105 26.2539C85.3808 25.9008 85.4166 25.5452 85.5161 25.2051Z" fill="black"/>
<path d="M81.846 20.8019C82.5744 23.9121 82.8402 25.2413 84.7085 26.6617C87.5164 28.7958 91.1619 27.4119 91.3586 24.1925C91.5334 21.279 90.2879 16.6902 86.9883 15.8162C86.2891 15.606 85.5465 15.5863 84.8372 15.7591C84.1278 15.9319 83.4775 16.291 82.9533 16.7992C82.4291 17.3074 82.0501 17.9463 81.8555 18.65C81.6608 19.3537 81.6575 20.0966 81.846 20.8019Z" fill="#FFB573"/>
<path d="M82.4532 23.0366C83.5968 22.4758 84.8095 19.7189 83.1816 18.4151C84.5254 18.6664 86.066 18.3058 87.4899 17.206C89.3473 15.7493 92.0823 19.3656 91.1828 17.2424C89.8863 14.1832 85.9785 13.4185 82.4423 15.9605C78.906 18.5025 79.1573 21.5944 82.4532 23.0366Z" fill="#263238"/>
<path d="M81.486 22.4153C81.4736 22.414 81.4619 22.4088 81.4527 22.4005C81.4435 22.3921 81.4372 22.381 81.4347 22.3687C81.4323 22.3565 81.4338 22.3438 81.4391 22.3325C81.4444 22.3212 81.4532 22.3119 81.4642 22.306C82.3747 21.9127 86.2387 21.0896 86.4026 21.0569C86.41 21.0547 86.4178 21.0541 86.4255 21.0552C86.4331 21.0563 86.4405 21.059 86.447 21.0631C86.4535 21.0673 86.4591 21.0727 86.4634 21.0792C86.4677 21.0856 86.4705 21.0929 86.4718 21.1006C86.474 21.115 86.4707 21.1297 86.4627 21.1419C86.4546 21.154 86.4422 21.1627 86.428 21.1661C86.388 21.1661 82.422 22.022 81.5079 22.4116L81.486 22.4153Z" fill="white"/>
<path opacity="0.2" d="M86.1724 21.1231C85.7819 20.9514 85.3395 20.941 84.9414 21.094C85.3459 21.1835 85.764 21.1934 86.1724 21.1231Z" fill="black"/>
<path opacity="0.2" d="M86.1394 21.3998C85.95 21.3598 85.7541 21.3616 85.5654 21.405C85.3768 21.4484 85.1998 21.5324 85.0469 21.6511C85.4247 21.6451 85.797 21.5594 86.1394 21.3998Z" fill="black"/>
<path d="M86.8514 21.0769C86.9024 21.3428 87.0808 21.5394 87.252 21.5176C87.4232 21.4957 87.5178 21.2663 87.4669 21.0004C87.4159 20.7346 87.2338 20.5416 87.0662 20.5598C86.8987 20.578 86.8004 20.8147 86.8514 21.0769Z" fill="#263238"/>
<path d="M90.047 20.7336C90.098 20.9958 90.2801 21.1925 90.4476 21.1743C90.6151 21.1561 90.7134 20.9194 90.6625 20.6571C90.6115 20.3949 90.433 20.1946 90.2619 20.2165C90.0907 20.2383 89.996 20.4678 90.047 20.7336Z" fill="#263238"/>
<path d="M90.1777 20.2407L90.7677 19.9785C90.7677 19.9785 90.5419 20.5139 90.1777 20.2407Z" fill="#263238"/>
<path d="M89.4492 21.2383C89.7645 21.8324 90.1536 22.3843 90.6073 22.8808C90.4832 22.985 90.3374 23.0604 90.1806 23.1013C90.0237 23.1422 89.8598 23.1478 89.7005 23.1175L89.4492 21.2383Z" fill="#ED893E"/>
<path d="M88.3019 24.2936C88.4485 24.3061 88.5959 24.3061 88.7425 24.2936C88.7525 24.2923 88.7621 24.289 88.7708 24.2838C88.7794 24.2786 88.7868 24.2717 88.7927 24.2635C88.7985 24.2553 88.8025 24.2459 88.8046 24.2361C88.8066 24.2262 88.8066 24.216 88.8045 24.2062C88.8009 24.1853 88.7895 24.1665 88.7726 24.1536C88.7557 24.1408 88.7345 24.1349 88.7134 24.137C88.3838 24.1769 88.0494 24.1431 87.7345 24.0379C87.4195 23.9327 87.1319 23.7588 86.8925 23.5288C86.8854 23.5215 86.8769 23.5158 86.8675 23.5118C86.8581 23.5079 86.848 23.5059 86.8379 23.5059C86.8277 23.5059 86.8176 23.5079 86.8082 23.5118C86.7988 23.5158 86.7903 23.5215 86.7832 23.5288C86.7694 23.5436 86.7617 23.5632 86.7617 23.5834C86.7617 23.6037 86.7694 23.6232 86.7832 23.6381C87.1928 24.034 87.7328 24.2671 88.3019 24.2936Z" fill="#263238"/>
<path d="M81.1067 23.5877C81.2822 23.8381 81.5078 24.0493 81.7692 24.2079C82.0306 24.3665 82.3222 24.4691 82.6253 24.5091C83.3828 24.571 83.5467 23.6897 83.1607 22.9067C82.8147 22.2038 82.0026 21.3188 81.3397 21.6247C80.6769 21.9306 80.615 22.9431 81.1067 23.5877Z" fill="#FFB573"/>
<path d="M85.8268 19.0706C85.8471 19.0706 85.8671 19.066 85.8854 19.0572C85.9037 19.0483 85.9198 19.0355 85.9324 19.0196C86.0495 18.8696 86.2019 18.7508 86.376 18.674C86.5501 18.5971 86.7405 18.5644 86.9302 18.5789C86.95 18.582 86.9701 18.581 86.9894 18.5759C87.0087 18.5709 87.0267 18.562 87.0424 18.5497C87.0581 18.5374 87.0712 18.522 87.0807 18.5045C87.0902 18.487 87.096 18.4677 87.0978 18.4478C87.0994 18.406 87.0859 18.365 87.0599 18.3322C87.0338 18.2995 86.9969 18.2772 86.9557 18.2694C86.7161 18.2481 86.475 18.2866 86.2538 18.3813C86.0326 18.4759 85.8384 18.6239 85.6884 18.812C85.6708 18.8368 85.6604 18.8661 85.6585 18.8965C85.6566 18.9269 85.6632 18.9572 85.6776 18.9841C85.692 19.0109 85.7135 19.0333 85.7399 19.0485C85.7662 19.0638 85.7963 19.0714 85.8268 19.0706Z" fill="#263238"/>
<path d="M90.6366 18.9372C90.656 18.9393 90.6758 18.9375 90.6945 18.9319C90.7133 18.9263 90.7307 18.9169 90.7458 18.9044C90.7603 18.8901 90.7719 18.8731 90.7798 18.8544C90.7877 18.8356 90.7917 18.8155 90.7917 18.7951C90.7917 18.7748 90.7877 18.7546 90.7798 18.7359C90.7719 18.7171 90.7603 18.7001 90.7458 18.6859C90.5885 18.4882 90.3877 18.3296 90.159 18.2222C89.9304 18.1148 89.68 18.0616 89.4275 18.0667C89.4073 18.0684 89.3878 18.0743 89.3701 18.0841C89.3524 18.0938 89.3371 18.1073 89.325 18.1235C89.3129 18.1397 89.3045 18.1583 89.3001 18.178C89.2958 18.1977 89.2958 18.2182 89.3 18.2379C89.3063 18.2791 89.3276 18.3164 89.36 18.3427C89.3923 18.369 89.4332 18.3822 89.4748 18.3799C89.675 18.3778 89.8731 18.4217 90.0537 18.5082C90.2343 18.5947 90.3926 18.7215 90.5164 18.8789C90.5309 18.8969 90.5492 18.9114 90.5699 18.9215C90.5907 18.9315 90.6135 18.9369 90.6366 18.9372Z" fill="#263238"/>
<path d="M87.8374 22.7276C87.0689 22.7276 86.4025 21.9118 86.3296 20.8666C86.2855 20.3743 86.399 19.8807 86.6538 19.4572C86.7543 19.2776 86.8964 19.1248 87.0681 19.0114C87.2398 18.8979 87.4361 18.8273 87.6407 18.8053C88.4455 18.7506 89.1521 19.5846 89.2285 20.6663C89.305 21.7479 88.7114 22.6693 87.9138 22.7239L87.8374 22.7276ZM87.7172 18.9364H87.6516C87.4642 18.9579 87.2847 19.0235 87.1276 19.128C86.9706 19.2325 86.8406 19.3728 86.7484 19.5373C86.5066 19.9402 86.3995 20.4096 86.4425 20.8775C86.5117 21.8936 87.1709 22.6766 87.8993 22.6292C88.6276 22.5819 89.1776 21.7078 89.1084 20.6918C89.0392 19.6757 88.4273 18.9364 87.7172 18.9364Z" fill="white"/>
<path d="M91.2427 22.5325C90.4743 22.5325 89.8042 21.7204 89.7313 20.6752C89.689 20.183 89.8024 19.69 90.0555 19.2658C90.1568 19.0861 90.2996 18.9333 90.4719 18.8199C90.6441 18.7065 90.841 18.6359 91.0461 18.6139C91.8436 18.5592 92.5574 19.3932 92.6303 20.4712C92.6726 20.9634 92.5592 21.4564 92.3061 21.8806C92.2052 22.0606 92.0626 22.2138 91.8902 22.3272C91.7179 22.4407 91.5208 22.5111 91.3155 22.5325H91.2427ZM91.1225 18.7268H91.0533C90.866 18.7482 90.6864 18.8139 90.5293 18.9184C90.3723 19.0229 90.2424 19.1631 90.1502 19.3277C89.9116 19.7318 89.8047 20.2002 89.8442 20.6679C89.9134 21.6512 90.5325 22.4196 91.2427 22.4196H91.3083C91.4959 22.399 91.6759 22.3337 91.833 22.2291C91.9902 22.1245 92.1199 21.9838 92.2114 21.8187C92.4513 21.4164 92.5584 20.9487 92.5174 20.4821C92.4482 19.4952 91.8291 18.7268 91.1225 18.7268Z" fill="white"/>
<path d="M89.8133 20.8223C89.8036 20.8218 89.7942 20.8189 89.7859 20.8138C89.7777 20.8087 89.7708 20.8016 89.766 20.7932C89.6276 20.5747 89.2233 20.8114 89.2197 20.8114C89.2135 20.8154 89.2066 20.818 89.1994 20.8193C89.1921 20.8205 89.1847 20.8202 89.1776 20.8185C89.1704 20.8168 89.1637 20.8137 89.1578 20.8094C89.1519 20.805 89.1469 20.7995 89.1432 20.7932C89.134 20.7826 89.1289 20.769 89.1289 20.755C89.1289 20.7409 89.134 20.7273 89.1432 20.7167C89.1651 20.7167 89.6458 20.4181 89.8424 20.7167C89.847 20.7227 89.8501 20.7296 89.8517 20.737C89.8532 20.7443 89.8531 20.7519 89.8514 20.7592C89.8496 20.7665 89.8463 20.7734 89.8416 20.7792C89.8369 20.7851 89.831 20.7899 89.8242 20.7932C89.8245 20.7985 89.8236 20.8039 89.8217 20.8089C89.8198 20.8139 89.817 20.8184 89.8133 20.8223Z" fill="white"/>
<path d="M86.9922 20.5867L87.5785 20.3281C87.5785 20.3281 87.3564 20.8635 86.9922 20.5867Z" fill="#263238"/>
</svg>
