<svg width="180" height="39" viewBox="0 0 180 39" fill="none" xmlns="http://www.w3.org/2000/svg">
<path fill-rule="evenodd" clip-rule="evenodd" d="M103.926 10.4131C99.1769 12.0475 100.203 18.8089 104.322 19.4551C105.635 19.6611 119.275 19.6122 120.096 19.3392C124.793 17.7776 123.762 11.0082 119.687 10.2729C118.339 10.0292 104.814 10.1074 103.926 10.4131H103.926Z" fill="white"/>
<path fill-rule="evenodd" clip-rule="evenodd" d="M100.756 31.2182C100.919 32.9359 102.4 35.0921 104.561 35.3294C106.074 35.4966 119.45 35.4677 120.304 35.1305C121.849 34.5207 123.427 32.5381 123.234 30.2689C123.069 28.3392 121.343 26.3161 119.438 26.0946C117.889 25.9143 104.542 25.9426 103.64 26.3063C102.119 26.9189 100.539 28.9157 100.757 31.2179L100.756 31.2182Z" fill="white"/>
<path fill-rule="evenodd" clip-rule="evenodd" d="M100.211 22.5392C100.19 22.5136 100.161 22.4812 100.145 22.465C100.13 22.4495 100.099 22.4128 100.079 22.3939L99.7329 22.107C97.0136 20.0664 95.6817 16.7582 96.4988 13.2369C97.7556 7.82644 102.555 7.01533 103.195 6.54032C100.72 6.39434 98.6146 6.96172 96.7129 7.93803C93.1826 9.75108 91.2401 14.5878 93.1003 18.5426C94.0689 20.6004 95.0138 21.2001 96.5497 22.3018C96.8124 22.49 96.6977 22.4026 96.809 22.5392C95.0745 23.8769 94.0918 24.4031 93.0605 26.6174C90.4171 32.2915 95.2353 39.1007 103.185 38.532L103.014 38.4328C102.983 38.4173 102.874 38.3651 102.838 38.3496C102.748 38.3125 102.654 38.2872 102.561 38.2562C97.0332 36.43 94.8355 30.6726 97.1188 26.108C98.3611 23.6244 99.6597 23.1972 100.211 22.5388V22.5392Z" fill="white"/>
<path d="M15.3673 36.9397C12.5748 36.9397 10.166 36.3234 8.14078 35.0906C6.12817 33.8453 4.57468 32.1095 3.48032 29.883C2.39854 27.644 1.85765 25.0401 1.85765 22.0715C1.85765 19.1029 2.39854 16.4865 3.48032 14.2224C4.57468 11.9456 6.09672 10.172 8.04644 8.90151C10.0087 7.61847 12.2981 6.97695 14.9145 6.97695C16.4239 6.97695 17.9145 7.22852 19.3863 7.73167C20.858 8.23483 22.1976 9.05245 23.4052 10.1845C24.6128 11.3041 25.575 12.7884 26.292 14.6375C27.009 16.4865 27.3675 18.7633 27.3675 21.4678V23.3546H5.02752V19.5055H22.8391C22.8391 17.8702 22.5121 16.4111 21.858 15.128C21.2165 13.845 20.2982 12.8324 19.1032 12.0902C17.9208 11.3481 16.5246 10.977 14.9145 10.977C13.1409 10.977 11.6062 11.4173 10.3106 12.2978C9.02759 13.1657 8.04015 14.2978 7.34831 15.6941C6.65648 17.0903 6.31056 18.5872 6.31056 20.1847V22.7508C6.31056 24.9395 6.68792 26.7949 7.44265 28.3169C8.20996 29.8264 9.27287 30.9774 10.6314 31.7698C11.9899 32.5497 13.5685 32.9397 15.3673 32.9397C16.5371 32.9397 17.5938 32.7761 18.5372 32.4491C19.4932 32.1095 20.3171 31.6063 21.0089 30.9396C21.7008 30.2604 22.2354 29.4176 22.6127 28.4113L26.9147 29.6188C26.4618 31.078 25.7008 32.361 24.6316 33.468C23.5624 34.5623 22.2416 35.4177 20.6693 36.034C19.0969 36.6378 17.3296 36.9397 15.3673 36.9397ZM38.5941 -2.30623V36.3359H34.1412V-2.30623H38.5941ZM58.9011 36.9397C56.1086 36.9397 53.6997 36.3234 51.6745 35.0906C49.6619 33.8453 48.1084 32.1095 47.0141 29.883C45.9323 27.644 45.3914 25.0401 45.3914 22.0715C45.3914 19.1029 45.9323 16.4865 47.0141 14.2224C48.1084 11.9456 49.6305 10.172 51.5802 8.90151C53.5425 7.61847 55.8318 6.97695 58.4482 6.97695C59.9577 6.97695 61.4483 7.22852 62.92 7.73167C64.3917 8.23483 65.7314 9.05245 66.939 10.1845C68.1465 11.3041 69.1088 12.7884 69.8258 14.6375C70.5428 16.4865 70.9013 18.7633 70.9013 21.4678V23.3546H48.5613V19.5055H66.3729C66.3729 17.8702 66.0459 16.4111 65.3918 15.128C64.7502 13.845 63.832 12.8324 62.637 12.0902C61.4546 11.3481 60.0583 10.977 58.4482 10.977C56.6746 10.977 55.14 11.4173 53.8444 12.2978C52.5613 13.1657 51.5739 14.2978 50.8821 15.6941C50.1902 17.0903 49.8443 18.5872 49.8443 20.1847V22.7508C49.8443 24.9395 50.2217 26.7949 50.9764 28.3169C51.7437 29.8264 52.8066 30.9774 54.1651 31.7698C55.5237 32.5497 57.1023 32.9397 58.9011 32.9397C60.0709 32.9397 61.1275 32.7761 62.0709 32.4491C63.0269 32.1095 63.8508 31.6063 64.5427 30.9396C65.2345 30.2604 65.7691 29.4176 66.1465 28.4113L70.4484 29.6188C69.9956 31.078 69.2346 32.361 68.1654 33.468C67.0962 34.5623 65.7754 35.4177 64.2031 36.034C62.6307 36.6378 60.8634 36.9397 58.9011 36.9397ZM100.491 7.35431L89.7742 36.3359H85.2459L74.5287 7.35431H79.359L87.3591 30.449H87.661L95.6611 7.35431H100.491ZM121.313 36.3359V7.35431H125.614V11.7317H125.916C126.445 10.2978 127.401 9.13422 128.784 8.24112C130.168 7.34802 131.728 6.90147 133.464 6.90147C133.791 6.90147 134.2 6.90776 134.69 6.92034C135.181 6.93292 135.552 6.95179 135.803 6.97695V11.5053C135.652 11.4676 135.306 11.411 134.766 11.3355C134.237 11.2475 133.678 11.2034 133.086 11.2034C131.677 11.2034 130.42 11.499 129.313 12.0902C128.218 12.6689 127.35 13.4739 126.709 14.5054C126.08 15.5243 125.765 16.6878 125.765 17.996V36.3359H121.313ZM141.082 36.3359V7.35431H145.535V36.3359H141.082ZM143.346 2.52404C142.478 2.52404 141.73 2.22844 141.101 1.63723C140.484 1.04603 140.176 0.335325 140.176 -0.494878C140.176 -1.32508 140.484 -2.03579 141.101 -2.62699C141.73 -3.2182 142.478 -3.5138 143.346 -3.5138C144.214 -3.5138 144.956 -3.2182 145.572 -2.62699C146.201 -2.03579 146.516 -1.32508 146.516 -0.494878C146.516 0.335325 146.201 1.04603 145.572 1.63723C144.956 2.22844 144.214 2.52404 143.346 2.52404ZM157.011 7.35431L163.955 19.2036L170.898 7.35431H176.03L166.672 21.8451L176.03 36.3359H170.898L163.955 25.0905L157.011 36.3359H151.879L161.087 21.8451L151.879 7.35431H157.011Z" fill="white"/>
</svg>
